M48
;Layer_Color=9474304
;FILE_FORMAT=4:4
METRIC,LZ
;TYPE=PLATED
T1F00S00C0.2000
T2F00S00C0.4000
T4F00S00C0.7000
T6F00S00C0.9000
T8F00S00C1.1000
T9F00S00C1.3000
T10F00S00C1.6000
T11F00S00C2.4000
T12F00S00C2.5000
T13F00S00C3.0000
;TYPE=NON_PLATED
T14F00S00C0.8000
T15F00S00C0.9000
T16F00S00C1.1000
T17F00S00C1.6000
T18F00S00C3.3000
%
T01
X00696522Y00027346
Y00042654
X00707346Y00053478
X00722654
X00721Y0007175
X00711
X00701
Y0008175
Y0009175
X00731Y0007175
X00741
X00733478Y00042654
Y00027346
X00722654Y00016523
X00707346
X00645571Y00040321
X00652642Y00047392
X00659713Y00054463
X00666784Y00061535
X00667387Y00091
X0060775Y00083
X0060075Y00069821
X0061575Y00069727
X0060775Y000565
X006085Y0003325
X006185
X006285
X006385
X005985
X005885
X005785
X005685
X00572174Y00052983
X00577924
X00584174Y00054733
Y00059983
X005405Y0002925
X00521Y000465
X00516
X00511
X00506
X004885Y0003325
X004785
X00481903Y000295
X004685Y0003325
X004585
X004485
X004385
X00431429Y00040321
X00449329Y00055615
Y00060896
Y00084614
Y00089896
X0041325Y00095
X004155Y0007525
Y0006525
X0038025Y00085
X003785Y0009525
X0038325
X003815Y00041
Y00031
X003365Y0003675
X0030525Y00040321
X0030825Y0005725
X00315Y0006025
X00521Y00007
X00526
X002855Y0005525
X0029325Y00064
X0029475Y000945
X002585Y0006825
X0023575Y000735
X002405Y0005375
X00197Y0006845
Y0008115
X002015Y0008525
X0018975Y0008875
Y0009425
X00185758Y000985
X0016375Y0007525
X0014125Y00046
X00121Y0009625
X0004475Y0009825
X00066Y000725
X00053478Y00042254
Y00026946
X00042654Y00016122
X00027346
X00016522Y00026946
Y00042254
X00027346Y00053078
X00042654
X001989Y0003215
X0019875Y00025
X002135Y001005
X0021925Y001005
X00231375Y00100839
X00228Y001053
Y0011025
X0024472Y00115
X00253Y00111
X002565Y001175
X0025672Y00133938
X0025672Y00141938
Y00149938
X0024872
X0024872Y00157938
X0025672
X0025672Y00165938
X0024872
X0024072Y00173938
X0024872Y00181938
X0025672
X0026472Y00181938
X0027272
X0028072Y00181938
X0028072Y00189938
X0028872
Y00197938
Y00205938
X0028072
Y00197938
X0027272Y00197938
Y00205938
X0026472
Y00197938
Y00189938
X0027272
X0025672Y00189938
X0024872
Y00197938
X0025672
Y00205938
X0024872
X0024872Y00213938
X0025672
X0025672Y00221938
X0024872
Y00229938
X0025672
X0026472Y00229938
Y00221938
X0027272
X0028072Y00221938
Y00229938
X0028872
Y00221938
X0028872Y00213938
X0028072
X0027272Y00213938
X0026472
X0027272Y00229938
X0026472Y00237938
X0028072Y00237938
X0028872
X0027Y0025225
X0024875Y00255
X0023272Y00229938
Y00221938
Y00213938
Y00205938
Y00197938
Y00189938
Y00181938
X0022472Y00189938
X0021672
Y00197938
X0022472
Y00205938
X0021672Y00205938
X0021672Y00213938
X0022472
X0022472Y00221938
X0021672
Y00229938
X0022472
X0021672Y00237938
X0020872Y00229938
Y00221938
X0020072
Y00229938
X0019272Y00229938
X0019272Y00237938
X0019272Y00221938
Y00213938
X0020072Y00213938
X0020872
X0020872Y00205938
Y00197938
X0020072
Y00205938
X0019272Y00205938
Y00197938
Y00189938
X0020072Y00189938
Y00173938
Y00165938
X0020872
Y00173938
X0020872Y00181938
X0021672Y00173938
X0022472
Y00165938
X0021672
X0020872Y00157938
X0020872Y00149938
X0020072
X0019272Y00149938
X0019272Y00157938
X0020072Y00157938
X0019272Y00165938
Y00173938
Y00141938
X0018472Y00141938
X0021672Y00141938
X0022472
Y00149938
X0021672
X0023272Y00149938
Y00157938
X0022472Y00157938
X0024072Y00141938
Y00133938
X0021672Y00133938
X00219Y0012375
X0020125Y00124
X0016525Y0011575
X0015875
X00154072Y00118
X00142Y00122992
X001325Y001225
X00120321Y00130028
X0012575Y00139
X0012675Y001685
X0013625Y0016875
X001005Y001845
X000915Y001845
X00075Y001845
X0006225Y001845
X000395Y00197042
X0005675Y00219195
X00066Y0022175
X000825Y0021725
X000865Y0022025
Y00225438
X001255Y0022575
X0017Y00230688
X0016625Y0024
X0018472Y00221938
X0018472Y00213938
X0016375Y0020075
X00161477Y00315096
Y00330404
X00150653Y00341228
X00135346
X00124522Y00330404
Y00315096
X00135346Y00304273
X00150653
X0009565Y002855
X000765Y0031625
X0002975Y0030075
X00013733Y00269517
X0006225Y0014425
X00075Y00143878
X0007575Y0011175
X0025425Y001015
X0026472Y00133938
X0027272
X0028072Y00133938
X0028872
X0028872Y00141938
X0028872Y00149938
X0028872Y00157938
X0028072
X0027272Y00157938
X0026472
X0026472Y00149938
X0026472Y00141938
X0027272Y00141938
Y00149938
X0028072Y00149938
Y00141938
Y00165938
X0027272Y00165938
X0026472
X0028872Y00165938
X0028872Y00181938
X00295Y0011525
Y0011025
X0028525Y00329
X0028272Y003335
X0027725
X0028275Y00339
X0028725Y003645
X002925
X00293835Y004145
X002585Y004195
X002505
X002545Y004235
X002625
X002425Y0042275
X002385Y0042675
X002335Y0041175
X0022875Y00408
X00235Y0040425
X0022425Y0041425
X0021925Y0041175
X002145Y0041756
X002065Y00426
X002125Y0044525
X002205Y0045675
Y0046775
Y0047875
X002205Y0048975
X002315
X002425Y0048975
Y0047875
X002315
X002315Y0046775
X002425
X002535
Y0047875
Y0048975
X002645
Y0047875
Y0046775
Y0045675
X002535
X002425
X002315
X002425Y0044375
X00268Y00444678
X0027775Y0045475
Y0046275
X002765Y0047975
X0027575Y0048675
X002795Y0049475
X002075Y0048275
X002075Y0047075
X0018125Y004065
X001725
X001645
X001605Y0041125
X001685
X001765
X0015625Y003755
X0019705Y0035475
X002225Y003531
Y003449
X0023225Y00294
X0024825Y0030225
Y003075
X00254Y003075
X0025375Y0030225
X0031975Y0028825
X0033375Y0027625
X003395
X003515Y0025675
X00364809Y00255528
X003735Y002589
X00382769Y00240428
X00386099Y00237098
X00392759
X00396089Y00233768
X00392759Y00230438
X00389429Y00233768
X00382769
X00386099Y00223778
X0039609Y00227108
X00402749
X00406079Y00223778
X00406079Y00230438
X00409409Y00233768
X00412739Y00237098
X00402749Y00233768
X0039942Y00230438
X0040072Y00210538
X0039072
Y00200538
X0040072
Y00190538
X0039072
Y00180538
Y00170538
X0040072
Y00180538
X0041072Y00180438
Y00170438
Y00160438
X0040072Y00160538
X0039072
X00389429Y00147188
Y00140527
X00386099Y00137198
X00379439
X00372779
X00376109Y00140527
X00379439Y00143857
X00376109Y00147188
X00369449
Y00153848
X00362789Y00153848
X00366119Y00157178
X00362789Y00160508
X00366119Y00163838
X00369449Y00160508
Y00167168
X00366119Y00170498
X00362789Y00173828
X00366119Y00177158
X00369449Y00173828
X00372779Y00177158
X00372779Y00183818
X00366119Y00183818
X00362789Y00187148
X00359459Y00183818
X00356129Y00187148
X00359459Y00190478
X00362789Y00193808
Y00200468
X00366119Y00203798
X00369449Y00200468
X00372779Y00203798
X00369449Y00207128
X00366119Y00210458
Y00217118
X00362789Y00213788
X00369449
X00372779Y00210458
X00369449Y00220448
X00353685Y00216305
X00349685Y00213305
X00346185Y00209555
X00342435Y00206055
X0034622Y00184688
X0034897Y00180438
X0034372Y00175019
X0033625Y0017875
X0033847Y00183438
X0033097
X0032547
X0033275Y0015525
X0033775
X00339184Y00138555
X00344184Y00138805
X00349184
X0035422Y00153188
X00359459Y00163838
X00372779Y00163838
X0037322Y00170688
X00366119Y00190478
X00372779Y00197138
X0041072Y00200438
Y00210438
X0042072Y00210538
X0043072
Y00200538
X0042072Y00200538
X0042072Y00190538
X0043072
Y00180538
X0042072
Y00170538
Y00160538
X0043072
Y00170538
X0045603Y00173828
Y00167168
Y00160508
X0045936Y00157178
X0046269Y00160508
X0045936Y00163838
X004527
X0044937Y00160508
X004527Y00157178
X0044937Y00153848
X004527Y00150518
Y00143858
X0044937Y00147188
X0044937Y00140528
X0044604Y00137198
X0044271Y00147188
X0045936Y00150518
X0046602Y00170498
X00481349Y00172118
X00487309Y00175631
X00475Y001795
X00474559Y00189778
X00477859Y00201528
X00482Y00213
X0046269Y00213788
X0045936Y00210458
X0045603Y00207128
X0044937Y00207128
X0044937Y00213788
X004527Y00217118
X0043938Y00223778
X0042939Y00227108
X0042606Y00230438
X0046425Y002345
X005125Y0021075
Y00205
Y001995
X005015Y001915
Y0018575
Y0018025
X0049325Y00157
X0049375Y0015125
X00487825Y00139044
X00482543
X0047775Y0012975
X00472309Y00130528
X0048247Y00099938
X00487751
X004155Y0010275
X00406079
X00391559Y00106691
X003875Y0010375
X0037937Y00109992
X0037952Y00115492
X0039456Y00125055
X00399419Y00137198
Y00143857
X00402749Y00147188
X00406079Y00143857
X00409409Y00147188
X00412739Y00143857
X00416069Y00140527
Y00133868
X00412739Y00130538
X00425109Y001215
X00386099Y00143857
X00382769Y00140527
X003405Y00118938
X0033075Y001125
X003245
X0031825Y001125
X00309Y00116
X0030525Y0011275
X0029675Y0015425
X0029675Y0015925
X0031675Y00215
X00317Y0026125
X003Y002525
X003528Y00240762
X00412559Y00261028
X00412659Y00273688
X0042175Y0027475
X00422929Y00290429
X0043Y002975
X0043975Y00324
X0043625Y003515
X0043875Y003695
X0041275Y0036975
X0038725Y0036975
Y00348
X0040825Y0034736
X0038725Y0032425
X00358
X0035775Y00348
X003205Y0035175
X003205Y0035675
X0031525
X0031525Y0035175
X0032475Y0036746
Y0037246
X003275Y00383
Y00388
Y00393
X0039525Y0039275
X0042325Y004035
X0042675Y0040725
X00439Y0040225
X004395Y0042925
Y0043525
Y0044725
Y0045325
Y0045925
Y0046525
Y0047125
X004395Y0047725
X00414Y0048625
X0035412Y0048237
X00300625Y00479
X0030075Y004735
Y00464
Y00456
Y0049075
X004685Y00453
X0046825Y0043975
Y004345
X00468Y0040575
X0047175Y00402383
X00477
X0048225
X00488899Y0040325
X00484Y004115
X00481342Y00415913
X00484595Y0036954
X00484744Y0036475
X0048875Y00367
X00488899Y0036221
X00478009Y0035396
X00478046Y0034629
Y0034129
X00483Y0033975
X0046825Y003515
X00521023Y0034007
X00526477Y0034007
Y0036954
X00521023Y0036954
X005335Y003805
X0053825Y00383
Y0037775
X0058725Y00378
X00587Y0038325
X0059175Y0038075
X0058425Y0040475
X0057875
X0057325
Y00411
X0057875
X0058425
Y0041725
X0057875
X0057325
X005365Y0043125
X0051825Y00431356
X00524Y00424
X00512309Y00457152
X00505309Y00486
X00511Y00494
X005875Y0046825
X00593
X005985
Y00462
X00593
X005875
Y0045575
X00593
X005985
X00644Y0040875
Y0040325
X0064925
X0063331Y0036611
X00627856Y0036611
X0060888Y0035975
X00591Y003395
X0058488Y0034011
Y0033511
X005875Y00325
X00564546Y00320284
X00558796
X00552546Y00318534
Y00313284
Y00267534
Y00262284
X00558796Y00269284
X00564546
X0058975Y002755
X005895Y00249
X00617502Y00249403
X0062422Y00252185
X00627583Y00243583
X00634301Y00240801
X00637083Y00234083
X00634301Y00227366
X0064245Y00224445
Y00219445
X00620866Y00227366
X00618083Y00234083
X00620866Y00240801
X0062422Y0026562
X00617502Y00268403
X00610785Y0026562
X00608002Y00258903
X0061745Y00209695
X0063295Y00193195
X006382
X00627867Y00163805
X00622617
X00627058Y001385
X006315Y00142
X00623968Y00128126
X0062675Y00121409
X00630685Y00117474
X00623968Y00114691
X0061725Y00111909
X00621185Y00107974
X00623968Y00101256
X00637402
X00640185Y00107974
X00610532Y00114691
X0060775Y00121409
X00610532Y00128126
X0057575Y0013925
X0057
X0056375Y001375
Y0013225
X0068625Y0012725
Y001015
X0067125Y00167
Y00177
X00691Y0022175
X0068675Y00258
X00686858Y00273608
X006675Y00305
Y00315
Y00325
X006575
X006475
X0063331Y0033389
X00627856Y0033389
X0041072Y00190438
X00701Y0022175
X00711
X00721
X00731
X00741
Y0015775
X00731
X00721
X00711
X00701
Y0014775
Y0013775
X00693929Y00130679
Y00098821
Y00280679
X00701Y0028775
Y0029775
Y0030775
X00711
X00721
X00731
X00741
X007205Y00377
X0069325Y0060875
Y00615
Y0062125
X0074325Y006635
X00741Y0082225
X00731
X00721
X00711
X00701
Y0083225
Y0084225
X006915Y0075
Y0074375
Y007375
X0068525
Y0074375
Y0075
X00679
Y0074375
Y007375
X0066625Y0071025
Y00704
Y0069775
X0066
Y00704
Y0071025
X0065375
Y00704
Y0069775
X006395Y0065675
X005885Y00636
X00583
X005775
Y0063025
X00583
X005885
Y006245
X00583
X0057725
X00567Y0055925
X00567Y0055375
X0056075
X0056075Y0055925
X005545
Y0055375
X0054825Y0055375
X0054825Y0055925
X0058583Y005175
X0058583Y00512
X0047525Y00571
X004392Y00613
X0040275Y00622
Y00627
X0035825Y0063625
X0035092Y006345
X0034558
X00339795Y006345
X00334455
X0031625Y0063175
X00309708Y00617159
Y00611159
X00303708
Y00617159
X0033225Y00609
X00335786Y00605464
X003575Y0056425
Y0055825
Y0055225
Y0054625
X0031275Y0055125
X0029925Y0055625
X0030075Y0051075
X003055Y0050625
X0030075Y0049875
X0031475Y0051725
X0040475Y00534
Y00539
X0040625Y0055975
X0040125
X0039175Y00679
X0038525Y0067525
X0038625Y0068525
X0040625Y0069925
X0040925Y007055
X004045Y0071075
X0042725Y0070525
X004395Y0071125
X0044Y00681
X00437Y0075325
Y0075925
X0044075Y0077725
X004395Y0078325
X0043975Y0082625
X00425894Y00835394
X004285Y0084425
X00423Y00847
X00426Y0087125
X004395Y0086725
X0047575Y008665
Y008725
X0052275Y008715
X005275Y0087325
X005385
X0054325Y008715
X0055125Y0087275
X0055675
X0056475Y008715
X005695Y0087325
X005805
X0058525Y008715
X0056375Y0088425
X006285Y00884
X006335Y00889
X0059275Y00687
X0068075Y0062125
Y00615
Y0060875
X00687
Y00615
Y0062125
X00357Y0065625
X0035175Y006545
X0035575Y006775
X0035875Y0072625
X003595Y0073225
X003545Y00742
X003505Y007475
X003595Y0075025
X003845Y0075625
X003885Y00744
X003845Y0073825
X0038525Y0073225
X00384809Y0072625
X0040575Y0079825
X0041325Y0082925
X0038675Y008705
X003865Y0087625
X003865Y0088225
X003585Y0087825
X003265Y00871
X0032125Y00871
X00316Y00871
X003395Y0084775
X00241Y0083825
X00243Y008675
X002135Y00870997
X002095Y0085425
X002005Y0088
X0018125Y008915
X00150375Y0087675
Y008715
Y0086525
Y00858125
X0015775Y0085
X0016375Y0083875
X0016925Y00837
X00111846Y0083175
X0010875Y0082675
X0011475Y00818
X00087Y0081525
X0008675Y0082625
X0010475Y0083925
X0007425Y0086825
X0014175Y0080125
X0015475Y00780158
X0017325Y0077675
X0015475Y0075125
Y0074125
X0016225Y0073475
X00137592Y00724592
X002085Y0072775
X002205Y007105
X00218Y0069325
X00212
Y0068725
X00218
X00177Y00669
X00114922Y006555
X00111Y005845
Y005775
X00108Y0054075
Y0052964
Y0051864
Y0050753
X000805Y00513085
Y00535195
X0003025Y0053825
X0002025Y00596375
X00197Y006049
Y006131
X0021325Y006225
X0021925
X0026622Y0062615
Y0063435
X0026325Y00608
Y00602
X0026925
Y00608
X002935Y0067175
X002745Y00739836
X0026925Y00739836
X00264Y00739836
X0024225Y0073125
X0023475Y0076625
X002315Y0077375
X0021625Y0078475
X0026925Y0079775
X0023045Y00553
X0023075Y005335
X002265Y00516593
X002385
X002465
X002625
X002785Y00516593
X002645Y0050075
X002535
X002425
X002315Y0050075
X002205Y0050075
X002075Y0051075
X002065Y00530907
X0021425Y0053925
X00202Y005655
X0018725Y0089325
X002005Y009065
X0016325Y00903
X00150653Y00920273
X00135346
X00124522Y00931096
Y00946404
X00135346Y00957228
X00150653
X00161477Y00946404
Y00931096
X0023197Y009385
X002355Y009425
X002315Y0095
X002355Y0095425
X0024Y0098625
X0025375Y009985
X0026086Y0100164
X0021475Y0098475
X002135Y01035
Y01040453
X00204Y0103175
X001985
X0022507Y0105478
X00230523
Y01087
X0022507
X002125Y01089956
X002295Y0110575
X0024475Y0112175
X00228Y011415
X0021825Y0114025
X0023325Y01151
X0023375Y0118825
X00183768Y0119475
X0017875
X00187Y0120675
X0019265Y012221
Y012475
X0019265Y012729
X0023625Y0128595
X0028975Y0128275
X0026525Y012185
X0029375Y01181
Y011285
X0028875Y0109025
Y0108525
X002875Y010615
X00288Y0105175
X00266Y010925
X0020275Y0111575
Y01121
X0014225Y01127
Y0113525
Y0114025
Y0114525
Y0115025
Y0115525
X0014645Y0117255
X0016225Y0116475
X0012105Y0117005
X0010835Y0117005
X0010775Y0119625
X000851Y012005
Y01188
X0008515Y011755
X000851Y01163
Y01150607
Y01138
X0008505Y011255
Y01113
X000851Y011005
X0008505Y01088
Y01075607
Y01063
X00085Y010505
Y01038
X0008505Y010255
X00085Y01013
Y01000607
Y00988
X00072393
X0006
X000475Y0098805
X00035Y00988
X000225
X0001Y0098805
X0007475Y00942
X0008515Y0093825
Y0093325
X00133954Y0099461
X00139454
X001555Y0101225
X0014886Y01058023
X0014886Y01063477
X0011714
Y01058023
X0013875Y0111
X001435
X0015085Y0120435
X0015175Y012195
X001065Y0124525
X00085Y012434
X00072393
X0006
X000475Y0124335
X00035Y012434
X000365Y012507
X00043217Y01253482
X00029782
Y01266917
X000365Y012697
X00043217Y01266917
X0001Y0124335
X0013375Y0128705
X0014645
X0025625Y00906
Y0090025
Y008945
X0030425Y00928
X00319Y009425
X003295Y0096
X00330875Y009845
X00326625Y009945
X0030175Y009965
X0035125Y009975
X0036225
Y009865
X0035125
X00355375Y01028
X0035675Y0103975
X00340354Y0103975
X0033525Y0103925
X0035375Y0105525
X00355875Y010795
X00366875
Y010905
X00355875
X00339795Y0110925
X003395Y01137
X00309708Y0114375
X00315Y0117075
X00315375Y01177
X00325Y0117075
X00345
X00355
X00375Y0117075
X00385
X0042125Y0118475
X004265
X0042325Y012155
X0044525Y012245
X00454096Y0119375
X0045225Y011495
X0045225Y0114
X00412Y0110775
X00427Y0106775
X0040525Y0105675
X0044575Y0104325
X0044565Y0103825
X00415Y0100625
X00414Y01
Y009945
Y00989
X00415Y0098275
X00389375Y009505
X003865Y0091825
X003865Y0091225
X003865Y0090025
X003865Y0089425
X00419161Y008925
X0041908Y008985
X00419Y009045
X0041892Y009105
X00436Y0090325
X0046825Y009095
X004685Y0094975
X005095Y009405
Y009305
X00529Y009175
X00539
X0054375Y00942
X0053675Y009625
X005085Y009655
X005095Y009805
X00516Y009755
Y010055
X0051575Y010115
X0052175Y010105
X005095Y010005
X00549Y010185
X00554
X00559Y0103325
X00564Y0103325
X00574Y01033351
X00579Y01025
X00569
X00589Y01025
X00587965Y01032361
X00584Y010185
X00594
X0058725Y009975
Y0097425
X00617Y009805
X0062342Y0098
X006235Y009855
X00617Y010005
Y009605
Y009555
X00623Y009255
X00628
X00633457Y00928129
X00636993Y00931664
X006435Y009105
X0061Y00911
X00604
X00594Y009175
X00589
X00584
X00579
X00574
X00569Y00911
X00554Y008935
X00558Y0098875
X0058725Y0108875
Y0113275
X00623813Y0112175
X00629
X00625813Y0107775
X00625813Y0106675
X00628Y010555
X00691718Y01158532
X00515Y012245
X0051625Y0124777
X0056175Y0128675
X00385Y01245
X00375
X00355Y01245
X00345
X00325Y01245
X00315
X002985Y0112175
Y011135
X003155Y010965
X003895Y01016
X00701Y0103825
Y0104825
Y0105825
X00711Y0105825
X00721
X00731
X00741
Y0112225
X00731
X00721
X00711
X00701
Y0113225
Y0114225
Y0118825
Y0119825
Y0120825
X00711
X00721
X00731
X00741
Y0127225
X00731
X00721
X00711
X00701
Y0128225
Y0099225
Y0098225
Y0097225
X00711
X00721
X00731
X00741
Y0090825
X00731
X00721
X00711
X00701Y0090825
Y0089825
Y0129225
Y0133825
Y0134825
Y0135825
X00711
X00721
X00731
X00741
X00722654Y01376522
X00707346
X00696522Y01387346
Y01402654
X00707346Y01413478
X00722654
X00733478Y01402654
Y01387346
X0060675Y0135875
X00592Y01359
X00577
X00549Y0135875
X005515Y01331
X005575
X00541Y01328
X005345
X0049025Y01325133
X00484046Y0131725
X00484926Y0129425
X0046825Y013345
X004685Y0134625
X0046625Y0135725
Y0136825
Y0137925
Y0139025
X004443Y013602
X004392
X0028475Y013795
X0029025Y0139425
X002405Y0139775
Y0138025
X00239Y013725
X00231Y013725
X002275Y0137975
X00221
X0021875Y0136425
X0021875Y0135625
X00225798Y0135175
X00231Y013445
X00239Y013445
X0024575Y0134263
X0025375
X002555Y0135425
X002515Y0135975
X0026625Y013325
X0026625Y013195
X0025375Y0131463
X0024575Y0131463
X0023725Y0132188
X002335Y0132638
Y0133438
X0021075Y0133625
X0021525Y01341
X0020125Y0133325
X0019325
X00185Y013455
Y013535
X0019925Y0137
X0020475Y01366
X002365Y012915
X0026245Y013005
X002675Y013005
X0027775Y0132575
X0008515Y0132475
Y013195
X00093Y0136375
X0008425Y0138475
X00053478Y01387346
Y01402654
X00042654Y01413478
X00027346
X00016523Y01402654
Y01387346
X00027346Y01376523
X00042654
X00022Y0132125
Y0131625
T02
X00630685Y00107974
X0061725Y00121409
X00627583Y00234083
X00617502Y00258903
X000365Y012602
T04
X001565Y0104525
Y0112125
T06
X00074893Y00016523
X00100321
X0012575
X00151179
X00014Y00089214
Y00114643
Y00140071
Y001655
Y00190929
Y00216357
Y00241786
Y00318071
Y00343471
Y00394271
Y004197
Y00445128
Y00470557
X00683364Y00460106
X00708764
X00734164
Y00430106
X00708764
X0072545Y003945
Y003495
X00619149Y0066035
Y0068575
X00619149Y0071115
X00593749Y0069845
Y0067305
Y0074925
Y0077465
X00568349Y0076195
X00619149
X0001375Y00938878
Y00964278
X00278Y01287857
X003417Y0128595
X003667
X003867
X004117
X006461Y012602
X006715
X004117Y0131215
X003867
X003667
X003417
X00278Y01313286
Y01338714
Y01364143
X000442Y0133675
X000188
T08
X00545449Y0066285
Y0068825
Y0074675
Y0077215
X00133346Y013285
X00101346
X00117346Y013595
X00153346
X00162346Y014095
X00117346Y014095
X00069346Y014095
T09
X0070055Y0033695
Y0040705
X00652Y0135475
X00658Y0140425
X00501
X00507Y0135475
T10
X00652149Y0064005
X00652149Y0079495
T11
X00311Y0128245
X004424
Y0133925
X00311
T12
X00143Y0032275
Y0093875
T13
X00715Y00035
X00035Y00035
X00715Y01395
X00035Y01395
T14
X0061825Y0
X0063025
X0064225
X00654
X0013175Y0
X0011975
X0010775
X00096
X0075Y0069725
Y00709
Y00721
Y00733
X00654Y0143
X0064225
X0063025
X0061825
X0013175Y0143
X0011975
X0010775
X00096
T15
X0031375Y0068075
Y0082975
X0018475Y0082975
Y0068075
T16
X00413Y0029475
T17
X00413Y0096275
T18
X00682649Y0066035
Y0077465
M30
