G04*
G04 #@! TF.GenerationSoftware,Altium Limited,Altium Designer,18.1.9 (240)*
G04*
G04 Layer_Color=8388736*
%FSLAX44Y44*%
%MOMM*%
G71*
G01*
G75*
%ADD81C,0.3500*%
%ADD86C,0.5000*%
%ADD89C,1.6000*%
%ADD116R,7.0000X7.0000*%
G04:AMPARAMS|DCode=117|XSize=0.7mm|YSize=0.7mm|CornerRadius=0.11mm|HoleSize=0mm|Usage=FLASHONLY|Rotation=180.000|XOffset=0mm|YOffset=0mm|HoleType=Round|Shape=RoundedRectangle|*
%AMROUNDEDRECTD117*
21,1,0.7000,0.4800,0,0,180.0*
21,1,0.4800,0.7000,0,0,180.0*
1,1,0.2200,-0.2400,0.2400*
1,1,0.2200,0.2400,0.2400*
1,1,0.2200,0.2400,-0.2400*
1,1,0.2200,-0.2400,-0.2400*
%
%ADD117ROUNDEDRECTD117*%
%ADD118R,0.6500X2.3000*%
%ADD119R,1.2013X1.7019*%
%ADD120R,1.7000X1.2000*%
%ADD121R,1.0004X1.6006*%
%ADD122R,1.0006X1.7011*%
%ADD123R,1.7018X1.7018*%
%ADD124R,1.7009X1.7009*%
%ADD125R,0.9011X1.9526*%
%ADD126R,0.9007X1.9518*%
%ADD127R,0.9002X1.9504*%
%ADD128R,0.9010X1.9525*%
%ADD129R,0.9009X1.9522*%
%ADD130R,0.9006X1.9516*%
%ADD131R,0.9012X1.9530*%
%ADD132R,0.9002X1.9504*%
%ADD133R,0.7400X2.0900*%
%ADD134R,0.7400X0.4400*%
%ADD135R,1.3000X1.6200*%
G04:AMPARAMS|DCode=136|XSize=1.8mm|YSize=2.3mm|CornerRadius=0.475mm|HoleSize=0mm|Usage=FLASHONLY|Rotation=180.000|XOffset=0mm|YOffset=0mm|HoleType=Round|Shape=RoundedRectangle|*
%AMROUNDEDRECTD136*
21,1,1.8000,1.3500,0,0,180.0*
21,1,0.8500,2.3000,0,0,180.0*
1,1,0.9500,-0.4250,0.6750*
1,1,0.9500,0.4250,0.6750*
1,1,0.9500,0.4250,-0.6750*
1,1,0.9500,-0.4250,-0.6750*
%
%ADD136ROUNDEDRECTD136*%
G04:AMPARAMS|DCode=137|XSize=6.8mm|YSize=6.8mm|CornerRadius=0.8875mm|HoleSize=0mm|Usage=FLASHONLY|Rotation=180.000|XOffset=0mm|YOffset=0mm|HoleType=Round|Shape=RoundedRectangle|*
%AMROUNDEDRECTD137*
21,1,6.8000,5.0250,0,0,180.0*
21,1,5.0250,6.8000,0,0,180.0*
1,1,1.7750,-2.5125,2.5125*
1,1,1.7750,2.5125,2.5125*
1,1,1.7750,2.5125,-2.5125*
1,1,1.7750,-2.5125,-2.5125*
%
%ADD137ROUNDEDRECTD137*%
G04:AMPARAMS|DCode=138|XSize=3.4mm|YSize=1.7mm|CornerRadius=0.25mm|HoleSize=0mm|Usage=FLASHONLY|Rotation=180.000|XOffset=0mm|YOffset=0mm|HoleType=Round|Shape=RoundedRectangle|*
%AMROUNDEDRECTD138*
21,1,3.4000,1.2000,0,0,180.0*
21,1,2.9000,1.7000,0,0,180.0*
1,1,0.5000,-1.4500,0.6000*
1,1,0.5000,1.4500,0.6000*
1,1,0.5000,1.4500,-0.6000*
1,1,0.5000,-1.4500,-0.6000*
%
%ADD138ROUNDEDRECTD138*%
%ADD139R,1.5732X0.4556*%
%ADD140R,3.1000X3.1000*%
G04:AMPARAMS|DCode=141|XSize=2.5mm|YSize=2.1mm|CornerRadius=0.55mm|HoleSize=0mm|Usage=FLASHONLY|Rotation=180.000|XOffset=0mm|YOffset=0mm|HoleType=Round|Shape=RoundedRectangle|*
%AMROUNDEDRECTD141*
21,1,2.5000,1.0000,0,0,180.0*
21,1,1.4000,2.1000,0,0,180.0*
1,1,1.1000,-0.7000,0.5000*
1,1,1.1000,0.7000,0.5000*
1,1,1.1000,0.7000,-0.5000*
1,1,1.1000,-0.7000,-0.5000*
%
%ADD141ROUNDEDRECTD141*%
G04:AMPARAMS|DCode=142|XSize=2.5mm|YSize=2.1mm|CornerRadius=0.55mm|HoleSize=0mm|Usage=FLASHONLY|Rotation=90.000|XOffset=0mm|YOffset=0mm|HoleType=Round|Shape=RoundedRectangle|*
%AMROUNDEDRECTD142*
21,1,2.5000,1.0000,0,0,90.0*
21,1,1.4000,2.1000,0,0,90.0*
1,1,1.1000,0.5000,0.7000*
1,1,1.1000,0.5000,-0.7000*
1,1,1.1000,-0.5000,-0.7000*
1,1,1.1000,-0.5000,0.7000*
%
%ADD142ROUNDEDRECTD142*%
%ADD143R,0.8000X0.5500*%
%ADD144C,2.0000*%
G04:AMPARAMS|DCode=145|XSize=1.4mm|YSize=0.9mm|CornerRadius=0.15mm|HoleSize=0mm|Usage=FLASHONLY|Rotation=270.000|XOffset=0mm|YOffset=0mm|HoleType=Round|Shape=RoundedRectangle|*
%AMROUNDEDRECTD145*
21,1,1.4000,0.6000,0,0,270.0*
21,1,1.1000,0.9000,0,0,270.0*
1,1,0.3000,-0.3000,-0.5500*
1,1,0.3000,-0.3000,0.5500*
1,1,0.3000,0.3000,0.5500*
1,1,0.3000,0.3000,-0.5500*
%
%ADD145ROUNDEDRECTD145*%
G04:AMPARAMS|DCode=146|XSize=1.4mm|YSize=0.9mm|CornerRadius=0.15mm|HoleSize=0mm|Usage=FLASHONLY|Rotation=0.000|XOffset=0mm|YOffset=0mm|HoleType=Round|Shape=RoundedRectangle|*
%AMROUNDEDRECTD146*
21,1,1.4000,0.6000,0,0,0.0*
21,1,1.1000,0.9000,0,0,0.0*
1,1,0.3000,0.5500,-0.3000*
1,1,0.3000,-0.5500,-0.3000*
1,1,0.3000,-0.5500,0.3000*
1,1,0.3000,0.5500,0.3000*
%
%ADD146ROUNDEDRECTD146*%
G04:AMPARAMS|DCode=147|XSize=0.7mm|YSize=0.7mm|CornerRadius=0.11mm|HoleSize=0mm|Usage=FLASHONLY|Rotation=90.000|XOffset=0mm|YOffset=0mm|HoleType=Round|Shape=RoundedRectangle|*
%AMROUNDEDRECTD147*
21,1,0.7000,0.4800,0,0,90.0*
21,1,0.4800,0.7000,0,0,90.0*
1,1,0.2200,0.2400,0.2400*
1,1,0.2200,0.2400,-0.2400*
1,1,0.2200,-0.2400,-0.2400*
1,1,0.2200,-0.2400,0.2400*
%
%ADD147ROUNDEDRECTD147*%
G04:AMPARAMS|DCode=148|XSize=0.6mm|YSize=0.7mm|CornerRadius=0.1mm|HoleSize=0mm|Usage=FLASHONLY|Rotation=180.000|XOffset=0mm|YOffset=0mm|HoleType=Round|Shape=RoundedRectangle|*
%AMROUNDEDRECTD148*
21,1,0.6000,0.5000,0,0,180.0*
21,1,0.4000,0.7000,0,0,180.0*
1,1,0.2000,-0.2000,0.2500*
1,1,0.2000,0.2000,0.2500*
1,1,0.2000,0.2000,-0.2500*
1,1,0.2000,-0.2000,-0.2500*
%
%ADD148ROUNDEDRECTD148*%
G04:AMPARAMS|DCode=149|XSize=0.6mm|YSize=0.7mm|CornerRadius=0.1mm|HoleSize=0mm|Usage=FLASHONLY|Rotation=90.000|XOffset=0mm|YOffset=0mm|HoleType=Round|Shape=RoundedRectangle|*
%AMROUNDEDRECTD149*
21,1,0.6000,0.5000,0,0,90.0*
21,1,0.4000,0.7000,0,0,90.0*
1,1,0.2000,0.2500,0.2000*
1,1,0.2000,0.2500,-0.2000*
1,1,0.2000,-0.2500,-0.2000*
1,1,0.2000,-0.2500,0.2000*
%
%ADD149ROUNDEDRECTD149*%
%ADD150O,1.0000X0.3500*%
%ADD151O,0.3500X1.0000*%
%ADD152R,2.6000X2.6000*%
%ADD153R,0.4000X0.4500*%
%ADD154R,2.2000X2.2000*%
%ADD155R,0.9500X0.4000*%
%ADD156R,0.4000X0.9500*%
G04:AMPARAMS|DCode=157|XSize=1.1mm|YSize=1mm|CornerRadius=0.1625mm|HoleSize=0mm|Usage=FLASHONLY|Rotation=180.000|XOffset=0mm|YOffset=0mm|HoleType=Round|Shape=RoundedRectangle|*
%AMROUNDEDRECTD157*
21,1,1.1000,0.6750,0,0,180.0*
21,1,0.7750,1.0000,0,0,180.0*
1,1,0.3250,-0.3875,0.3375*
1,1,0.3250,0.3875,0.3375*
1,1,0.3250,0.3875,-0.3375*
1,1,0.3250,-0.3875,-0.3375*
%
%ADD157ROUNDEDRECTD157*%
G04:AMPARAMS|DCode=158|XSize=1.9mm|YSize=1.25mm|CornerRadius=0.1938mm|HoleSize=0mm|Usage=FLASHONLY|Rotation=90.000|XOffset=0mm|YOffset=0mm|HoleType=Round|Shape=RoundedRectangle|*
%AMROUNDEDRECTD158*
21,1,1.9000,0.8625,0,0,90.0*
21,1,1.5125,1.2500,0,0,90.0*
1,1,0.3875,0.4313,0.7563*
1,1,0.3875,0.4313,-0.7563*
1,1,0.3875,-0.4313,-0.7563*
1,1,0.3875,-0.4313,0.7563*
%
%ADD158ROUNDEDRECTD158*%
G04:AMPARAMS|DCode=159|XSize=0.41mm|YSize=0.4mm|CornerRadius=0mm|HoleSize=0mm|Usage=FLASHONLY|Rotation=135.000|XOffset=0mm|YOffset=0mm|HoleType=Round|Shape=Rectangle|*
%AMROTATEDRECTD159*
4,1,4,0.2864,-0.0035,0.0035,-0.2864,-0.2864,0.0035,-0.0035,0.2864,0.2864,-0.0035,0.0*
%
%ADD159ROTATEDRECTD159*%

%ADD160R,0.4000X0.4100*%
%ADD161C,3.0000*%
%ADD162R,7.5000X7.5000*%
%ADD163O,0.4000X0.9500*%
%ADD164O,0.9500X0.4000*%
%ADD165R,1.1000X0.5000*%
%ADD166R,0.9500X0.5000*%
%ADD167R,4.1000X2.1000*%
%ADD168R,4.3500X2.1000*%
%ADD169R,1.7500X1.0000*%
%ADD170R,1.7500X0.8600*%
%ADD171R,1.0000X1.5000*%
%ADD172R,1.3000X1.6000*%
%ADD173R,1.1000X1.4500*%
%ADD174R,1.4500X0.8000*%
%ADD175R,0.8000X1.4500*%
G04:AMPARAMS|DCode=176|XSize=1.5mm|YSize=1.3mm|CornerRadius=0.2mm|HoleSize=0mm|Usage=FLASHONLY|Rotation=180.000|XOffset=0mm|YOffset=0mm|HoleType=Round|Shape=RoundedRectangle|*
%AMROUNDEDRECTD176*
21,1,1.5000,0.9000,0,0,180.0*
21,1,1.1000,1.3000,0,0,180.0*
1,1,0.4000,-0.5500,0.4500*
1,1,0.4000,0.5500,0.4500*
1,1,0.4000,0.5500,-0.4500*
1,1,0.4000,-0.5500,-0.4500*
%
%ADD176ROUNDEDRECTD176*%
%ADD177R,0.5000X0.8000*%
%ADD178R,0.4600X0.5500*%
%ADD179R,0.8500X0.5500*%
%ADD180R,3.9000X1.3000*%
%ADD181R,1.3000X3.9000*%
%ADD182R,1.3000X3.4500*%
%ADD183R,3.9500X1.3000*%
%ADD184C,0.6000*%
G04:AMPARAMS|DCode=185|XSize=0.7mm|YSize=0.7mm|CornerRadius=0.11mm|HoleSize=0mm|Usage=FLASHONLY|Rotation=45.000|XOffset=0mm|YOffset=0mm|HoleType=Round|Shape=RoundedRectangle|*
%AMROUNDEDRECTD185*
21,1,0.7000,0.4800,0,0,45.0*
21,1,0.4800,0.7000,0,0,45.0*
1,1,0.2200,0.3394,0.0000*
1,1,0.2200,0.0000,-0.3394*
1,1,0.2200,-0.3394,0.0000*
1,1,0.2200,0.0000,0.3394*
%
%ADD185ROUNDEDRECTD185*%
G04:AMPARAMS|DCode=186|XSize=0.7mm|YSize=0.7mm|CornerRadius=0.11mm|HoleSize=0mm|Usage=FLASHONLY|Rotation=135.000|XOffset=0mm|YOffset=0mm|HoleType=Round|Shape=RoundedRectangle|*
%AMROUNDEDRECTD186*
21,1,0.7000,0.4800,0,0,135.0*
21,1,0.4800,0.7000,0,0,135.0*
1,1,0.2200,0.0000,0.3394*
1,1,0.2200,0.3394,0.0000*
1,1,0.2200,0.0000,-0.3394*
1,1,0.2200,-0.3394,0.0000*
%
%ADD186ROUNDEDRECTD186*%
%ADD187C,1.7000*%
%ADD188R,3.1000X0.9000*%
G04:AMPARAMS|DCode=189|XSize=0.8mm|YSize=1.1mm|CornerRadius=0.1375mm|HoleSize=0mm|Usage=FLASHONLY|Rotation=0.000|XOffset=0mm|YOffset=0mm|HoleType=Round|Shape=RoundedRectangle|*
%AMROUNDEDRECTD189*
21,1,0.8000,0.8250,0,0,0.0*
21,1,0.5250,1.1000,0,0,0.0*
1,1,0.2750,0.2625,-0.4125*
1,1,0.2750,-0.2625,-0.4125*
1,1,0.2750,-0.2625,0.4125*
1,1,0.2750,0.2625,0.4125*
%
%ADD189ROUNDEDRECTD189*%
%ADD190R,5.6500X5.6500*%
%ADD191R,0.3000X1.0000*%
%ADD192R,1.0000X0.3000*%
G04:AMPARAMS|DCode=193|XSize=1.1mm|YSize=1mm|CornerRadius=0.1625mm|HoleSize=0mm|Usage=FLASHONLY|Rotation=270.000|XOffset=0mm|YOffset=0mm|HoleType=Round|Shape=RoundedRectangle|*
%AMROUNDEDRECTD193*
21,1,1.1000,0.6750,0,0,270.0*
21,1,0.7750,1.0000,0,0,270.0*
1,1,0.3250,-0.3375,-0.3875*
1,1,0.3250,-0.3375,0.3875*
1,1,0.3250,0.3375,0.3875*
1,1,0.3250,0.3375,-0.3875*
%
%ADD193ROUNDEDRECTD193*%
G04:AMPARAMS|DCode=194|XSize=0.7mm|YSize=1.1mm|CornerRadius=0.125mm|HoleSize=0mm|Usage=FLASHONLY|Rotation=270.000|XOffset=0mm|YOffset=0mm|HoleType=Round|Shape=RoundedRectangle|*
%AMROUNDEDRECTD194*
21,1,0.7000,0.8500,0,0,270.0*
21,1,0.4500,1.1000,0,0,270.0*
1,1,0.2500,-0.4250,-0.2250*
1,1,0.2500,-0.4250,0.2250*
1,1,0.2500,0.4250,0.2250*
1,1,0.2500,0.4250,-0.2250*
%
%ADD194ROUNDEDRECTD194*%
G04:AMPARAMS|DCode=195|XSize=0.6mm|YSize=0.7mm|CornerRadius=0.1125mm|HoleSize=0mm|Usage=FLASHONLY|Rotation=270.000|XOffset=0mm|YOffset=0mm|HoleType=Round|Shape=RoundedRectangle|*
%AMROUNDEDRECTD195*
21,1,0.6000,0.4750,0,0,270.0*
21,1,0.3750,0.7000,0,0,270.0*
1,1,0.2250,-0.2375,-0.1875*
1,1,0.2250,-0.2375,0.1875*
1,1,0.2250,0.2375,0.1875*
1,1,0.2250,0.2375,-0.1875*
%
%ADD195ROUNDEDRECTD195*%
%ADD196R,1.3000X0.8000*%
%ADD197R,0.3500X0.4500*%
G04:AMPARAMS|DCode=198|XSize=0.6mm|YSize=0.7mm|CornerRadius=0.1mm|HoleSize=0mm|Usage=FLASHONLY|Rotation=315.000|XOffset=0mm|YOffset=0mm|HoleType=Round|Shape=RoundedRectangle|*
%AMROUNDEDRECTD198*
21,1,0.6000,0.5000,0,0,315.0*
21,1,0.4000,0.7000,0,0,315.0*
1,1,0.2000,-0.0354,-0.3182*
1,1,0.2000,-0.3182,-0.0354*
1,1,0.2000,0.0354,0.3182*
1,1,0.2000,0.3182,0.0354*
%
%ADD198ROUNDEDRECTD198*%
G04:AMPARAMS|DCode=199|XSize=1.9mm|YSize=1.25mm|CornerRadius=0.1938mm|HoleSize=0mm|Usage=FLASHONLY|Rotation=180.000|XOffset=0mm|YOffset=0mm|HoleType=Round|Shape=RoundedRectangle|*
%AMROUNDEDRECTD199*
21,1,1.9000,0.8625,0,0,180.0*
21,1,1.5125,1.2500,0,0,180.0*
1,1,0.3875,-0.7563,0.4313*
1,1,0.3875,0.7563,0.4313*
1,1,0.3875,0.7563,-0.4313*
1,1,0.3875,-0.7563,-0.4313*
%
%ADD199ROUNDEDRECTD199*%
%ADD200R,1.7000X2.4500*%
%ADD201R,0.8000X0.4000*%
G04:AMPARAMS|DCode=202|XSize=1.6mm|YSize=1.4mm|CornerRadius=0.375mm|HoleSize=0mm|Usage=FLASHONLY|Rotation=270.000|XOffset=0mm|YOffset=0mm|HoleType=Round|Shape=RoundedRectangle|*
%AMROUNDEDRECTD202*
21,1,1.6000,0.6500,0,0,270.0*
21,1,0.8500,1.4000,0,0,270.0*
1,1,0.7500,-0.3250,-0.4250*
1,1,0.7500,-0.3250,0.4250*
1,1,0.7500,0.3250,0.4250*
1,1,0.7500,0.3250,-0.4250*
%
%ADD202ROUNDEDRECTD202*%
G04:AMPARAMS|DCode=203|XSize=0.8mm|YSize=1.1mm|CornerRadius=0.1375mm|HoleSize=0mm|Usage=FLASHONLY|Rotation=90.000|XOffset=0mm|YOffset=0mm|HoleType=Round|Shape=RoundedRectangle|*
%AMROUNDEDRECTD203*
21,1,0.8000,0.8250,0,0,90.0*
21,1,0.5250,1.1000,0,0,90.0*
1,1,0.2750,0.4125,0.2625*
1,1,0.2750,0.4125,-0.2625*
1,1,0.2750,-0.4125,-0.2625*
1,1,0.2750,-0.4125,0.2625*
%
%ADD203ROUNDEDRECTD203*%
%ADD204R,1.7000X3.8000*%
G04:AMPARAMS|DCode=205|XSize=1.5mm|YSize=1.1mm|CornerRadius=0.175mm|HoleSize=0mm|Usage=FLASHONLY|Rotation=270.000|XOffset=0mm|YOffset=0mm|HoleType=Round|Shape=RoundedRectangle|*
%AMROUNDEDRECTD205*
21,1,1.5000,0.7500,0,0,270.0*
21,1,1.1500,1.1000,0,0,270.0*
1,1,0.3500,-0.3750,-0.5750*
1,1,0.3500,-0.3750,0.5750*
1,1,0.3500,0.3750,0.5750*
1,1,0.3500,0.3750,-0.5750*
%
%ADD205ROUNDEDRECTD205*%
G04:AMPARAMS|DCode=206|XSize=1.5mm|YSize=1.1mm|CornerRadius=0.175mm|HoleSize=0mm|Usage=FLASHONLY|Rotation=0.000|XOffset=0mm|YOffset=0mm|HoleType=Round|Shape=RoundedRectangle|*
%AMROUNDEDRECTD206*
21,1,1.5000,0.7500,0,0,0.0*
21,1,1.1500,1.1000,0,0,0.0*
1,1,0.3500,0.5750,-0.3750*
1,1,0.3500,-0.5750,-0.3750*
1,1,0.3500,-0.5750,0.3750*
1,1,0.3500,0.5750,0.3750*
%
%ADD206ROUNDEDRECTD206*%
G04:AMPARAMS|DCode=207|XSize=2.1mm|YSize=3.4mm|CornerRadius=0.55mm|HoleSize=0mm|Usage=FLASHONLY|Rotation=90.000|XOffset=0mm|YOffset=0mm|HoleType=Round|Shape=RoundedRectangle|*
%AMROUNDEDRECTD207*
21,1,2.1000,2.3000,0,0,90.0*
21,1,1.0000,3.4000,0,0,90.0*
1,1,1.1000,1.1500,0.5000*
1,1,1.1000,1.1500,-0.5000*
1,1,1.1000,-1.1500,-0.5000*
1,1,1.1000,-1.1500,0.5000*
%
%ADD207ROUNDEDRECTD207*%
G04:AMPARAMS|DCode=208|XSize=0.7mm|YSize=1.1mm|CornerRadius=0.125mm|HoleSize=0mm|Usage=FLASHONLY|Rotation=0.000|XOffset=0mm|YOffset=0mm|HoleType=Round|Shape=RoundedRectangle|*
%AMROUNDEDRECTD208*
21,1,0.7000,0.8500,0,0,0.0*
21,1,0.4500,1.1000,0,0,0.0*
1,1,0.2500,0.2250,-0.4250*
1,1,0.2500,-0.2250,-0.4250*
1,1,0.2500,-0.2250,0.4250*
1,1,0.2500,0.2250,0.4250*
%
%ADD208ROUNDEDRECTD208*%
%ADD209R,2.4500X1.7000*%
%ADD210R,0.4000X0.8000*%
G04:AMPARAMS|DCode=211|XSize=2.7mm|YSize=1.25mm|CornerRadius=0.1938mm|HoleSize=0mm|Usage=FLASHONLY|Rotation=270.000|XOffset=0mm|YOffset=0mm|HoleType=Round|Shape=RoundedRectangle|*
%AMROUNDEDRECTD211*
21,1,2.7000,0.8625,0,0,270.0*
21,1,2.3125,1.2500,0,0,270.0*
1,1,0.3875,-0.4313,-1.1563*
1,1,0.3875,-0.4313,1.1563*
1,1,0.3875,0.4313,1.1563*
1,1,0.3875,0.4313,-1.1563*
%
%ADD211ROUNDEDRECTD211*%
G04:AMPARAMS|DCode=212|XSize=2.7mm|YSize=1.25mm|CornerRadius=0.1938mm|HoleSize=0mm|Usage=FLASHONLY|Rotation=180.000|XOffset=0mm|YOffset=0mm|HoleType=Round|Shape=RoundedRectangle|*
%AMROUNDEDRECTD212*
21,1,2.7000,0.8625,0,0,180.0*
21,1,2.3125,1.2500,0,0,180.0*
1,1,0.3875,-1.1563,0.4313*
1,1,0.3875,1.1563,0.4313*
1,1,0.3875,1.1563,-0.4313*
1,1,0.3875,-1.1563,-0.4313*
%
%ADD212ROUNDEDRECTD212*%
G04:AMPARAMS|DCode=213|XSize=3.7mm|YSize=1.6mm|CornerRadius=0.2375mm|HoleSize=0mm|Usage=FLASHONLY|Rotation=0.000|XOffset=0mm|YOffset=0mm|HoleType=Round|Shape=RoundedRectangle|*
%AMROUNDEDRECTD213*
21,1,3.7000,1.1250,0,0,0.0*
21,1,3.2250,1.6000,0,0,0.0*
1,1,0.4750,1.6125,-0.5625*
1,1,0.4750,-1.6125,-0.5625*
1,1,0.4750,-1.6125,0.5625*
1,1,0.4750,1.6125,0.5625*
%
%ADD213ROUNDEDRECTD213*%
G04:AMPARAMS|DCode=214|XSize=1.624mm|YSize=1.624mm|CornerRadius=0.2405mm|HoleSize=0mm|Usage=FLASHONLY|Rotation=270.000|XOffset=0mm|YOffset=0mm|HoleType=Round|Shape=RoundedRectangle|*
%AMROUNDEDRECTD214*
21,1,1.6240,1.1430,0,0,270.0*
21,1,1.1430,1.6240,0,0,270.0*
1,1,0.4810,-0.5715,-0.5715*
1,1,0.4810,-0.5715,0.5715*
1,1,0.4810,0.5715,0.5715*
1,1,0.4810,0.5715,-0.5715*
%
%ADD214ROUNDEDRECTD214*%
%ADD215C,5.1000*%
%ADD216C,1.2000*%
%ADD217C,2.0500*%
%ADD218C,1.3000*%
%ADD219C,1.5000*%
%ADD220O,5.1000X2.1000*%
%ADD221O,2.3000X5.1000*%
%ADD222O,2.1000X5.1000*%
G04:AMPARAMS|DCode=223|XSize=1.7mm|YSize=1.7mm|CornerRadius=0.45mm|HoleSize=0mm|Usage=FLASHONLY|Rotation=270.000|XOffset=0mm|YOffset=0mm|HoleType=Round|Shape=RoundedRectangle|*
%AMROUNDEDRECTD223*
21,1,1.7000,0.8000,0,0,270.0*
21,1,0.8000,1.7000,0,0,270.0*
1,1,0.9000,-0.4000,-0.4000*
1,1,0.9000,-0.4000,0.4000*
1,1,0.9000,0.4000,0.4000*
1,1,0.9000,0.4000,-0.4000*
%
%ADD223ROUNDEDRECTD223*%
%ADD224C,1.9000*%
G04:AMPARAMS|DCode=225|XSize=1.9mm|YSize=1.9mm|CornerRadius=0.5mm|HoleSize=0mm|Usage=FLASHONLY|Rotation=270.000|XOffset=0mm|YOffset=0mm|HoleType=Round|Shape=RoundedRectangle|*
%AMROUNDEDRECTD225*
21,1,1.9000,0.9000,0,0,270.0*
21,1,0.9000,1.9000,0,0,270.0*
1,1,1.0000,-0.4500,-0.4500*
1,1,1.0000,-0.4500,0.4500*
1,1,1.0000,0.4500,0.4500*
1,1,1.0000,0.4500,-0.4500*
%
%ADD225ROUNDEDRECTD225*%
G04:AMPARAMS|DCode=226|XSize=1.7mm|YSize=1.7mm|CornerRadius=0.45mm|HoleSize=0mm|Usage=FLASHONLY|Rotation=0.000|XOffset=0mm|YOffset=0mm|HoleType=Round|Shape=RoundedRectangle|*
%AMROUNDEDRECTD226*
21,1,1.7000,0.8000,0,0,0.0*
21,1,0.8000,1.7000,0,0,0.0*
1,1,0.9000,0.4000,-0.4000*
1,1,0.9000,-0.4000,-0.4000*
1,1,0.9000,-0.4000,0.4000*
1,1,0.9000,0.4000,0.4000*
%
%ADD226ROUNDEDRECTD226*%
%ADD227C,2.4000*%
%ADD228C,1.6500*%
G04:AMPARAMS|DCode=229|XSize=1.624mm|YSize=1.624mm|CornerRadius=0.2405mm|HoleSize=0mm|Usage=FLASHONLY|Rotation=180.000|XOffset=0mm|YOffset=0mm|HoleType=Round|Shape=RoundedRectangle|*
%AMROUNDEDRECTD229*
21,1,1.6240,1.1430,0,0,180.0*
21,1,1.1430,1.6240,0,0,180.0*
1,1,0.4810,-0.5715,0.5715*
1,1,0.4810,0.5715,0.5715*
1,1,0.4810,0.5715,-0.5715*
1,1,0.4810,-0.5715,-0.5715*
%
%ADD229ROUNDEDRECTD229*%
%ADD230O,1.0000X1.7000*%
%ADD231C,3.2000*%
G36*
X530500Y1396500D02*
X504500D01*
Y1413478D01*
X530500D01*
Y1396500D01*
D02*
G37*
G36*
X651250Y1396500D02*
X619000D01*
Y1413478D01*
X651250D01*
Y1396500D01*
D02*
G37*
G36*
X699500Y1309000D02*
X695500D01*
Y1317000D01*
X699500D01*
Y1309000D01*
D02*
G37*
G36*
X643250Y1307875D02*
X626000D01*
Y1320125D01*
X633250D01*
Y1320625D01*
X643250D01*
Y1307875D01*
D02*
G37*
G36*
X699500Y1159000D02*
X695500D01*
Y1167000D01*
X699500D01*
Y1159000D01*
D02*
G37*
G36*
X316959Y840328D02*
X318961Y839498D01*
X320762Y838295D01*
X322295Y836762D01*
X323498Y834961D01*
X324328Y832959D01*
X324750Y830834D01*
Y829750D01*
Y828667D01*
X324328Y826542D01*
X323498Y824540D01*
X322295Y822738D01*
X320762Y821206D01*
X318961Y820002D01*
X316959Y819173D01*
X314834Y818750D01*
X312667D01*
X310542Y819173D01*
X308540Y820002D01*
X306738Y821206D01*
X305206Y822738D01*
X304002Y824540D01*
X303173Y826542D01*
X302750Y828667D01*
Y829750D01*
Y830834D01*
X303173Y832959D01*
X304002Y834961D01*
X305206Y836762D01*
X306738Y838295D01*
X308540Y839498D01*
X310542Y840328D01*
X312667Y840750D01*
X314834D01*
X316959Y840328D01*
D02*
G37*
G36*
X187959Y840328D02*
X189961Y839498D01*
X191762Y838295D01*
X193295Y836762D01*
X194498Y834961D01*
X195327Y832959D01*
X195750Y830834D01*
Y829750D01*
Y828667D01*
X195327Y826542D01*
X194498Y824540D01*
X193295Y822738D01*
X191762Y821206D01*
X189961Y820002D01*
X187959Y819173D01*
X185834Y818750D01*
X183667D01*
X181542Y819173D01*
X179540Y820002D01*
X177738Y821206D01*
X176206Y822738D01*
X175002Y824540D01*
X174173Y826542D01*
X173750Y828667D01*
Y829750D01*
Y830834D01*
X174173Y832959D01*
X175002Y834961D01*
X176206Y836762D01*
X177738Y838295D01*
X179540Y839498D01*
X181542Y840328D01*
X183667Y840750D01*
X185834D01*
X187959Y840328D01*
D02*
G37*
G36*
X316959Y691328D02*
X318961Y690498D01*
X320762Y689295D01*
X322295Y687762D01*
X323498Y685961D01*
X324328Y683959D01*
X324750Y681834D01*
Y680750D01*
Y679667D01*
X324328Y677542D01*
X323498Y675540D01*
X322295Y673738D01*
X320762Y672206D01*
X318961Y671002D01*
X316959Y670173D01*
X314834Y669750D01*
X312667D01*
X310542Y670173D01*
X308540Y671002D01*
X306738Y672206D01*
X305206Y673738D01*
X304002Y675540D01*
X303173Y677542D01*
X302750Y679667D01*
Y680750D01*
Y681834D01*
X303173Y683959D01*
X304002Y685961D01*
X305206Y687762D01*
X306738Y689295D01*
X308540Y690498D01*
X310542Y691328D01*
X312667Y691750D01*
X313750D01*
Y680750D01*
X313750Y691750D01*
X313750Y691750D01*
X314834D01*
X316959Y691328D01*
D02*
G37*
G36*
X187959D02*
X189961Y690498D01*
X191762Y689295D01*
X193295Y687762D01*
X194498Y685961D01*
X195327Y683959D01*
X195750Y681834D01*
Y680750D01*
Y679667D01*
X195327Y677542D01*
X194498Y675540D01*
X193295Y673738D01*
X191762Y672206D01*
X189961Y671002D01*
X187959Y670173D01*
X185834Y669750D01*
X183667D01*
X181542Y670173D01*
X179540Y671002D01*
X177738Y672206D01*
X176206Y673738D01*
X175002Y675540D01*
X174173Y677542D01*
X173750Y679667D01*
Y680750D01*
Y681834D01*
X174173Y683959D01*
X175002Y685961D01*
X176206Y687762D01*
X177738Y689295D01*
X179540Y690498D01*
X181542Y691328D01*
X183667Y691750D01*
X185834D01*
X187959Y691328D01*
D02*
G37*
G36*
X399300Y651500D02*
X399300Y652250D01*
X400050Y652250D01*
X399300Y651500D01*
D02*
G37*
G36*
X428700Y652250D02*
X428700Y651500D01*
X427950Y652250D01*
X428700Y652250D01*
D02*
G37*
G36*
Y622750D02*
X427950Y622750D01*
X428700Y623500D01*
X428700Y622750D01*
D02*
G37*
G36*
X400050Y622750D02*
X399300Y622750D01*
X399300Y623500D01*
X400050Y622750D01*
D02*
G37*
G36*
X399350Y524750D02*
X399350Y525500D01*
X400100Y525500D01*
X399350Y524750D01*
D02*
G37*
G36*
X428750Y525500D02*
X428750Y524750D01*
X428000Y525500D01*
X428750Y525500D01*
D02*
G37*
G36*
Y496000D02*
X428000Y496000D01*
X428750Y496750D01*
X428750Y496000D01*
D02*
G37*
G36*
X400100Y496000D02*
X399350Y496000D01*
X399350Y496750D01*
X400100Y496000D01*
D02*
G37*
G36*
X701902Y249927D02*
X699073Y247098D01*
X693416Y252755D01*
X696245Y255584D01*
X701902Y249927D01*
D02*
G37*
G36*
X640833Y195750D02*
X624333D01*
Y216750D01*
X640833D01*
Y195750D01*
D02*
G37*
G36*
X630500Y140250D02*
X614000D01*
Y161250D01*
X630500D01*
Y140250D01*
D02*
G37*
G36*
X694000Y113000D02*
X690000D01*
Y121000D01*
X694000D01*
Y113000D01*
D02*
G37*
%LPC*%
G36*
X173750Y829750D02*
X173750Y829750D01*
X184750D01*
X173750Y829750D01*
D02*
G37*
%LPD*%
D81*
X449370Y240428D02*
D03*
X452700Y237098D02*
D03*
X456030Y233768D02*
D03*
X459360Y230438D02*
D03*
X462690Y227108D02*
D03*
X466020Y223778D02*
D03*
X462690Y220448D02*
D03*
X459360Y223778D02*
D03*
X452700Y230438D02*
D03*
X456030Y227108D02*
D03*
X446040Y237098D02*
D03*
X449370Y233768D02*
D03*
X446040Y230438D02*
D03*
X442710Y233768D02*
D03*
X452700Y223778D02*
D03*
X449370Y227108D02*
D03*
X456030Y220448D02*
D03*
X459360Y217118D02*
D03*
X442710Y227108D02*
D03*
X439380Y230438D02*
D03*
X446040Y223778D02*
D03*
X456030Y213788D02*
D03*
X452700Y217118D02*
D03*
X432720Y237098D02*
D03*
X436050Y233768D02*
D03*
Y240428D02*
D03*
X439380Y237098D02*
D03*
X462690Y207128D02*
D03*
X459360Y210458D02*
D03*
X466020D02*
D03*
X462690Y213788D02*
D03*
X456030Y207128D02*
D03*
X459360Y203798D02*
D03*
X449370Y213788D02*
D03*
X452700Y210458D02*
D03*
X436050Y227108D02*
D03*
X439380Y223778D02*
D03*
X429390Y233768D02*
D03*
X432720Y230438D02*
D03*
X429390Y227108D02*
D03*
X426060Y230438D02*
D03*
X432720Y223778D02*
D03*
X426060D02*
D03*
X422730Y227108D02*
D03*
X419400Y223778D02*
D03*
X466020Y197138D02*
D03*
X462690Y200468D02*
D03*
X459360Y197138D02*
D03*
X462690Y193808D02*
D03*
X449370Y207128D02*
D03*
X456030Y200468D02*
D03*
X452700Y203798D02*
D03*
X462690Y187148D02*
D03*
X466020Y183818D02*
D03*
X452700Y197138D02*
D03*
X449370Y200468D02*
D03*
X459360Y190478D02*
D03*
X456030Y193808D02*
D03*
X449370Y193808D02*
D03*
X459360Y183818D02*
D03*
X456030Y187148D02*
D03*
Y180488D02*
D03*
X459360Y177158D02*
D03*
X449370Y187148D02*
D03*
X452700Y183818D02*
D03*
X466020Y170498D02*
D03*
X462690Y173828D02*
D03*
X456030D02*
D03*
X459360Y170498D02*
D03*
X449370Y180488D02*
D03*
X452700Y177158D02*
D03*
X462690Y167168D02*
D03*
X456030D02*
D03*
X459360Y163838D02*
D03*
X466020Y157178D02*
D03*
X462690Y160508D02*
D03*
X456030D02*
D03*
X459360Y157178D02*
D03*
X449370Y167168D02*
D03*
X452700Y163838D02*
D03*
X466020Y150518D02*
D03*
X462690Y153848D02*
D03*
X459360Y150518D02*
D03*
X449370Y160508D02*
D03*
X452700Y157178D02*
D03*
X459360Y143858D02*
D03*
X449370Y153848D02*
D03*
X452700Y150518D02*
D03*
X466020Y137198D02*
D03*
X462690Y140528D02*
D03*
X456030D02*
D03*
X459360Y137198D02*
D03*
X452700Y143858D02*
D03*
X462690Y133868D02*
D03*
X456030D02*
D03*
X449370Y140528D02*
D03*
X452700Y137198D02*
D03*
X459360Y237098D02*
D03*
X406079Y223778D02*
D03*
X399420D02*
D03*
X402749Y227108D02*
D03*
X406079Y230438D02*
D03*
X409409Y233768D02*
D03*
X412739Y237098D02*
D03*
X396090Y227108D02*
D03*
X399420Y230438D02*
D03*
X396089Y233768D02*
D03*
X392759Y230438D02*
D03*
Y237098D02*
D03*
X389429Y233768D02*
D03*
X402749D02*
D03*
X386099Y237098D02*
D03*
X382769Y240428D02*
D03*
X379439Y237098D02*
D03*
X382769Y233768D02*
D03*
X386099Y223778D02*
D03*
X382769Y227108D02*
D03*
X379439Y230438D02*
D03*
X372779Y237098D02*
D03*
X376109Y233768D02*
D03*
X369449Y240428D02*
D03*
X362789D02*
D03*
X369449Y233768D02*
D03*
X366119Y237098D02*
D03*
X372779Y230438D02*
D03*
X376109Y227108D02*
D03*
X379439Y223778D02*
D03*
X366119Y230438D02*
D03*
X369449Y227108D02*
D03*
X372779Y223778D02*
D03*
X356129Y233768D02*
D03*
X362789Y227108D02*
D03*
X359459Y230438D02*
D03*
X366119Y223778D02*
D03*
X369449Y220448D02*
D03*
X372779Y217118D02*
D03*
X356129Y227108D02*
D03*
X362789Y220448D02*
D03*
X359459Y223778D02*
D03*
X366119Y217118D02*
D03*
X369449Y213788D02*
D03*
X372779Y210458D02*
D03*
X362789Y213788D02*
D03*
X359459Y217118D02*
D03*
X366119Y210458D02*
D03*
X369449Y207128D02*
D03*
X372779Y203798D02*
D03*
X356129Y213788D02*
D03*
X362789Y207128D02*
D03*
X359459Y210458D02*
D03*
X366119Y203798D02*
D03*
X369449Y200468D02*
D03*
X372779Y197138D02*
D03*
X362789Y200468D02*
D03*
X359459Y203798D02*
D03*
X366119Y197138D02*
D03*
X369449Y193808D02*
D03*
X372779Y190478D02*
D03*
X356129Y200468D02*
D03*
X362789Y193808D02*
D03*
X359459Y197138D02*
D03*
X366119Y190478D02*
D03*
X369449Y187148D02*
D03*
X372779Y183818D02*
D03*
X362789Y187148D02*
D03*
X359459Y190478D02*
D03*
X366119Y183818D02*
D03*
X369449Y180488D02*
D03*
X372779Y177158D02*
D03*
X356129Y187148D02*
D03*
X362789Y180488D02*
D03*
X359459Y183818D02*
D03*
X366119Y177158D02*
D03*
X369449Y173828D02*
D03*
X362789Y173828D02*
D03*
X359459Y177158D02*
D03*
X366119Y170498D02*
D03*
X369449Y167168D02*
D03*
X356129Y173828D02*
D03*
X362789Y167168D02*
D03*
X359459Y170498D02*
D03*
X366119Y163838D02*
D03*
X369449Y160508D02*
D03*
X359459Y163838D02*
D03*
X366119Y157178D02*
D03*
X362789Y160508D02*
D03*
X369449Y153848D02*
D03*
X372779Y150518D02*
D03*
X376109Y147188D02*
D03*
X356129Y160508D02*
D03*
X362789Y153848D02*
D03*
X359459Y157178D02*
D03*
X366119Y150518D02*
D03*
X369449Y147188D02*
D03*
X372779Y143857D02*
D03*
X379439Y137198D02*
D03*
X376109Y140527D02*
D03*
X382769Y140527D02*
D03*
X379439Y143857D02*
D03*
X372779Y137198D02*
D03*
X369449Y140527D02*
D03*
X366119Y143857D02*
D03*
X362789Y147188D02*
D03*
X366119Y137198D02*
D03*
X362789Y140527D02*
D03*
X382769Y147188D02*
D03*
X389429D02*
D03*
X396089Y147188D02*
D03*
X402749Y147188D02*
D03*
X409409D02*
D03*
X416069Y147188D02*
D03*
X422729Y147188D02*
D03*
X429390D02*
D03*
X436050D02*
D03*
X442710D02*
D03*
X449370D02*
D03*
X456030D02*
D03*
X462690D02*
D03*
X386099Y143857D02*
D03*
X392759D02*
D03*
X399419D02*
D03*
X406079D02*
D03*
X412739D02*
D03*
X419399D02*
D03*
X426059D02*
D03*
X439380D02*
D03*
X432720D02*
D03*
X442710Y140527D02*
D03*
X436050Y140527D02*
D03*
X429390Y140527D02*
D03*
X422729D02*
D03*
X416069Y140527D02*
D03*
X409409Y140527D02*
D03*
X402749D02*
D03*
X396089Y140527D02*
D03*
X389429Y140527D02*
D03*
X439380Y137198D02*
D03*
X432720D02*
D03*
X426059D02*
D03*
X419399D02*
D03*
X412739D02*
D03*
X406079D02*
D03*
X399419D02*
D03*
X392759D02*
D03*
X386099D02*
D03*
X446040D02*
D03*
X452700Y130538D02*
D03*
X442710Y133868D02*
D03*
X396089D02*
D03*
X402749D02*
D03*
X409409D02*
D03*
X416069D02*
D03*
X422730D02*
D03*
X429390D02*
D03*
X436050D02*
D03*
X446040Y130538D02*
D03*
X439380D02*
D03*
X426059D02*
D03*
X412739D02*
D03*
X399419D02*
D03*
D86*
X266220Y626150D02*
D03*
Y634350D02*
D03*
D89*
X725450Y394500D02*
D03*
Y349500D02*
D03*
D116*
X410970Y185438D02*
D03*
D117*
X384500Y762750D02*
D03*
Y772750D02*
D03*
X387375Y1033250D02*
D03*
Y1043250D02*
D03*
X300625Y1053000D02*
D03*
Y1043000D02*
D03*
X321625Y1043000D02*
D03*
Y1053000D02*
D03*
X300000Y1074000D02*
D03*
Y1064000D02*
D03*
X311125Y1074000D02*
D03*
Y1064000D02*
D03*
X331125Y1086500D02*
D03*
Y1096500D02*
D03*
X413875Y1095000D02*
D03*
Y1085000D02*
D03*
X353625Y1127250D02*
D03*
Y1117250D02*
D03*
X364625Y1127250D02*
D03*
Y1117250D02*
D03*
X385500Y1124000D02*
D03*
Y1134000D02*
D03*
X364500Y1148000D02*
D03*
Y1138000D02*
D03*
X615833Y189500D02*
D03*
Y199500D02*
D03*
X647833Y216250D02*
D03*
Y206250D02*
D03*
X605500Y165000D02*
D03*
Y155000D02*
D03*
X638250Y140750D02*
D03*
Y150750D02*
D03*
X485184Y124494D02*
D03*
Y134494D02*
D03*
X485111Y114488D02*
D03*
Y104488D02*
D03*
X485110Y67738D02*
D03*
Y57738D02*
D03*
Y77738D02*
D03*
Y87738D02*
D03*
X515309Y259778D02*
D03*
Y249778D02*
D03*
X233000Y1414500D02*
D03*
Y1404500D02*
D03*
X501000Y960500D02*
D03*
Y950500D02*
D03*
X321250Y887500D02*
D03*
X321250Y877500D02*
D03*
X232610Y1000000D02*
D03*
Y1010000D02*
D03*
X288860Y1006500D02*
D03*
X288860Y996500D02*
D03*
X321250Y897500D02*
D03*
Y887500D02*
D03*
X288860Y985500D02*
D03*
Y975500D02*
D03*
X661250Y975250D02*
D03*
Y985250D02*
D03*
X221500Y1183750D02*
D03*
Y1193750D02*
D03*
X218000Y1115250D02*
D03*
Y1105250D02*
D03*
X424650Y1108000D02*
D03*
X424650Y1098000D02*
D03*
X419150Y1119000D02*
D03*
X419150Y1129000D02*
D03*
X343500Y877500D02*
D03*
Y887500D02*
D03*
X173470Y1304250D02*
D03*
Y1294250D02*
D03*
X658282Y1185750D02*
D03*
Y1195750D02*
D03*
X659281Y1153750D02*
D03*
Y1143750D02*
D03*
X400000Y482000D02*
D03*
Y472000D02*
D03*
X317920Y486750D02*
D03*
Y476750D02*
D03*
X606250Y677000D02*
D03*
Y687000D02*
D03*
X174000Y552250D02*
D03*
Y542250D02*
D03*
X185000Y535000D02*
D03*
Y545000D02*
D03*
X307000Y494750D02*
D03*
Y484750D02*
D03*
X150850Y1187600D02*
D03*
Y1177600D02*
D03*
X366700Y1390700D02*
D03*
Y1380700D02*
D03*
X527750Y470667D02*
D03*
Y480667D02*
D03*
X527449Y564500D02*
D03*
Y554500D02*
D03*
Y543500D02*
D03*
Y533500D02*
D03*
X74071Y1330250D02*
D03*
Y1340250D02*
D03*
X85071D02*
D03*
Y1330250D02*
D03*
X257500Y1060750D02*
D03*
Y1070750D02*
D03*
Y1091750D02*
D03*
Y1081750D02*
D03*
X139850Y1177600D02*
D03*
Y1187600D02*
D03*
X345740Y406870D02*
D03*
Y416870D02*
D03*
X359740Y472620D02*
D03*
Y482620D02*
D03*
X697250Y536250D02*
D03*
Y546250D02*
D03*
X432085Y427250D02*
D03*
Y437250D02*
D03*
X634000Y657250D02*
D03*
Y667250D02*
D03*
X432000Y450152D02*
D03*
X432000Y460152D02*
D03*
X69500Y334000D02*
D03*
Y324000D02*
D03*
X13750Y289750D02*
D03*
Y279750D02*
D03*
X121680Y1100250D02*
D03*
Y1090250D02*
D03*
D118*
X736550Y738750D02*
D03*
X723850D02*
D03*
X711150D02*
D03*
X698450D02*
D03*
X736550Y690750D02*
D03*
X723850D02*
D03*
X711150D02*
D03*
X698450D02*
D03*
D119*
X522750Y1298000D02*
D03*
D120*
X634700Y1314000D02*
D03*
D121*
X518750Y1322500D02*
D03*
D122*
X638250Y1329000D02*
D03*
D123*
X522000Y1405000D02*
D03*
D124*
X636500D02*
D03*
D125*
X623500Y1406250D02*
D03*
D126*
X612500D02*
D03*
D127*
X601500D02*
D03*
D128*
X590500D02*
D03*
D129*
X579500D02*
D03*
D130*
X568500D02*
D03*
D131*
X557500D02*
D03*
D132*
X546500D02*
D03*
D133*
X266220Y630250D02*
D03*
D134*
X275720Y640000D02*
D03*
Y633500D02*
D03*
Y627000D02*
D03*
Y620500D02*
D03*
X256720D02*
D03*
Y627000D02*
D03*
Y633500D02*
D03*
Y640000D02*
D03*
D135*
X455350Y733500D02*
D03*
Y820500D02*
D03*
X507350Y733500D02*
D03*
Y820500D02*
D03*
Y698500D02*
D03*
Y611500D02*
D03*
X455350Y698500D02*
D03*
Y611500D02*
D03*
D136*
X625480Y414000D02*
D03*
X667480D02*
D03*
D137*
X634258Y469500D02*
D03*
X627743Y593250D02*
D03*
D138*
X564743Y446500D02*
D03*
Y492500D02*
D03*
X697258Y570250D02*
D03*
Y616250D02*
D03*
D139*
X359790Y463250D02*
D03*
Y456750D02*
D03*
Y450250D02*
D03*
Y443750D02*
D03*
Y437250D02*
D03*
Y430750D02*
D03*
Y424250D02*
D03*
Y417750D02*
D03*
X418210D02*
D03*
Y424250D02*
D03*
Y430750D02*
D03*
Y437250D02*
D03*
Y443750D02*
D03*
Y450250D02*
D03*
Y456750D02*
D03*
Y463250D02*
D03*
D140*
X389000Y440500D02*
D03*
D141*
X560750Y414000D02*
D03*
X600750D02*
D03*
D142*
X424750Y597250D02*
D03*
Y637250D02*
D03*
D143*
X223720Y1303250D02*
D03*
Y1309750D02*
D03*
Y1316250D02*
D03*
X204720Y1316250D02*
D03*
Y1309750D02*
D03*
Y1303250D02*
D03*
D144*
X496750Y907250D02*
D03*
X347500Y105250D02*
D03*
X652149Y640050D02*
D03*
X652149Y794950D02*
D03*
D145*
X420500Y1416250D02*
D03*
X440500D02*
D03*
X454879Y58255D02*
D03*
X474879D02*
D03*
X454879Y87255D02*
D03*
X474879D02*
D03*
X290500Y1191250D02*
D03*
X310500D02*
D03*
X551364Y377250D02*
D03*
X571364D02*
D03*
X271750Y316750D02*
D03*
X251750D02*
D03*
X240000Y1038000D02*
D03*
X220000D02*
D03*
X338500Y434750D02*
D03*
X318500D02*
D03*
D146*
X416750Y1022000D02*
D03*
Y1042000D02*
D03*
X309750Y970250D02*
D03*
Y950250D02*
D03*
X260860Y1010250D02*
D03*
Y1030250D02*
D03*
X199296Y1057640D02*
D03*
Y1037640D02*
D03*
X645000Y1055500D02*
D03*
Y1075500D02*
D03*
X686750Y422500D02*
D03*
Y442500D02*
D03*
X515560Y446000D02*
D03*
Y426000D02*
D03*
X534250Y446000D02*
D03*
Y426000D02*
D03*
X134750Y1000500D02*
D03*
Y1020500D02*
D03*
D147*
X354250Y906500D02*
D03*
X364250D02*
D03*
X354250Y895500D02*
D03*
X364250D02*
D03*
X364250Y938500D02*
D03*
X354250D02*
D03*
X377000Y959500D02*
D03*
X367000D02*
D03*
X399250Y989000D02*
D03*
X389250D02*
D03*
X399250Y1000000D02*
D03*
X389250D02*
D03*
X342700Y1118000D02*
D03*
X332700D02*
D03*
X637583Y224000D02*
D03*
X627583D02*
D03*
X627250Y133000D02*
D03*
X617250D02*
D03*
X137000Y162000D02*
D03*
X147000D02*
D03*
X137000Y151000D02*
D03*
X147000D02*
D03*
X569500Y878000D02*
D03*
X559500D02*
D03*
X580500D02*
D03*
X590500D02*
D03*
X527500D02*
D03*
X517500D02*
D03*
X538500D02*
D03*
X548500D02*
D03*
X599000Y903500D02*
D03*
X589000D02*
D03*
X489750Y950500D02*
D03*
X479750D02*
D03*
X212720Y250500D02*
D03*
X222720D02*
D03*
X222610Y969000D02*
D03*
X232610Y969000D02*
D03*
X321250Y887500D02*
D03*
X311250D02*
D03*
X226500Y1161750D02*
D03*
X236500D02*
D03*
X195500Y1161750D02*
D03*
X205500D02*
D03*
X200000Y1183750D02*
D03*
X190000D02*
D03*
X221500Y1172750D02*
D03*
X211500D02*
D03*
X229000Y1115250D02*
D03*
X239000D02*
D03*
X283000Y1110750D02*
D03*
X293000D02*
D03*
X283000Y1121750D02*
D03*
X293000D02*
D03*
X283000Y1132750D02*
D03*
X293000D02*
D03*
X137000Y118000D02*
D03*
X147000D02*
D03*
X528750Y909000D02*
D03*
X518750D02*
D03*
X74750Y934500D02*
D03*
X64750D02*
D03*
X476250Y1395250D02*
D03*
X466250D02*
D03*
X476250Y1384250D02*
D03*
X466250D02*
D03*
X476250Y1373250D02*
D03*
X466250D02*
D03*
X476250Y1362250D02*
D03*
X466250D02*
D03*
X476250Y1351250D02*
D03*
X466250D02*
D03*
X476250Y1340250D02*
D03*
X466250D02*
D03*
X30250Y544125D02*
D03*
X20250D02*
D03*
X163750Y1325250D02*
D03*
X173750D02*
D03*
X111500Y1314850D02*
D03*
X121500Y1314850D02*
D03*
X184470Y1304250D02*
D03*
X194470D02*
D03*
X638282Y1153750D02*
D03*
X648282Y1153750D02*
D03*
X658282Y1164750D02*
D03*
X648282D02*
D03*
X343740Y451120D02*
D03*
X333740D02*
D03*
X184470Y1315250D02*
D03*
X194470D02*
D03*
X262770Y655000D02*
D03*
X252770D02*
D03*
X141250Y40000D02*
D03*
X151250D02*
D03*
X241770Y644000D02*
D03*
X231770D02*
D03*
X123750Y1282000D02*
D03*
X133750D02*
D03*
X387950Y1390450D02*
D03*
X397950D02*
D03*
X174000Y531000D02*
D03*
X164000D02*
D03*
X250500Y536000D02*
D03*
X240500D02*
D03*
X150350Y1198600D02*
D03*
X140350D02*
D03*
X356700Y1369700D02*
D03*
X366700D02*
D03*
X112500Y529640D02*
D03*
X122500D02*
D03*
X112250Y1344250D02*
D03*
X102250D02*
D03*
X715000Y377000D02*
D03*
X705000D02*
D03*
X205750Y105250D02*
D03*
X195750D02*
D03*
X205750Y116250D02*
D03*
X195750D02*
D03*
X205750Y94250D02*
D03*
X195750D02*
D03*
X435650Y1140000D02*
D03*
X445650D02*
D03*
X686875Y525250D02*
D03*
X696875D02*
D03*
X101500Y540750D02*
D03*
X91500D02*
D03*
X101500Y529640D02*
D03*
X91500D02*
D03*
X101500Y507530D02*
D03*
X91500D02*
D03*
X101500Y518640D02*
D03*
X91500D02*
D03*
X516059Y480667D02*
D03*
X506059D02*
D03*
X435650Y1151000D02*
D03*
X445650D02*
D03*
X147000Y140000D02*
D03*
X137000D02*
D03*
X147000Y129000D02*
D03*
X137000D02*
D03*
X59250Y1355000D02*
D03*
X49250D02*
D03*
X655110Y667650D02*
D03*
X645110D02*
D03*
X537750Y457250D02*
D03*
X527750D02*
D03*
X655110Y656750D02*
D03*
X645110Y656750D02*
D03*
X743250Y655250D02*
D03*
X733250Y655250D02*
D03*
X476383Y1325133D02*
D03*
X466383D02*
D03*
X645000Y1133750D02*
D03*
X635000D02*
D03*
X13750Y300750D02*
D03*
X23750D02*
D03*
X31000Y1353250D02*
D03*
X21000D02*
D03*
X142680Y1090250D02*
D03*
X132680D02*
D03*
X122500Y518640D02*
D03*
X112500Y518640D02*
D03*
D148*
X322200Y1108000D02*
D03*
Y1118000D02*
D03*
X354250Y927500D02*
D03*
Y917500D02*
D03*
X344250Y949500D02*
D03*
Y959500D02*
D03*
X325125Y965500D02*
D03*
Y975500D02*
D03*
X354250Y959500D02*
D03*
Y949500D02*
D03*
X409750Y979000D02*
D03*
Y989000D02*
D03*
Y1010000D02*
D03*
Y1000000D02*
D03*
X397875Y1032000D02*
D03*
Y1022000D02*
D03*
X311125Y1043000D02*
D03*
Y1053000D02*
D03*
X366375Y1053250D02*
D03*
Y1043250D02*
D03*
X376875Y1043250D02*
D03*
Y1033250D02*
D03*
X321625Y1064000D02*
D03*
Y1074000D02*
D03*
X331625Y1064000D02*
D03*
Y1074000D02*
D03*
X390625Y1074000D02*
D03*
Y1064000D02*
D03*
X400625Y1074000D02*
D03*
Y1064000D02*
D03*
X410625D02*
D03*
Y1074000D02*
D03*
X310625Y1086500D02*
D03*
Y1096500D02*
D03*
X320625D02*
D03*
Y1086500D02*
D03*
X312250Y1108000D02*
D03*
Y1118000D02*
D03*
X438250Y1052500D02*
D03*
Y1062500D02*
D03*
X375000Y1139750D02*
D03*
Y1129750D02*
D03*
X222500Y1414500D02*
D03*
Y1404500D02*
D03*
X304360Y922750D02*
D03*
Y912750D02*
D03*
X279500Y1201250D02*
D03*
Y1191250D02*
D03*
X269500D02*
D03*
Y1201250D02*
D03*
X259500Y1191250D02*
D03*
Y1201250D02*
D03*
X216000Y1151750D02*
D03*
Y1161750D02*
D03*
X247000D02*
D03*
Y1151750D02*
D03*
X232000Y1182750D02*
D03*
Y1172750D02*
D03*
X242000D02*
D03*
Y1182750D02*
D03*
X495764Y124494D02*
D03*
Y114494D02*
D03*
X526764Y114494D02*
D03*
Y124494D02*
D03*
X495610Y77738D02*
D03*
Y67738D02*
D03*
X526610Y67738D02*
D03*
Y77738D02*
D03*
X515809Y305528D02*
D03*
Y295528D02*
D03*
X484883Y305528D02*
D03*
Y295528D02*
D03*
X483883Y259778D02*
D03*
Y249778D02*
D03*
X430150Y1119000D02*
D03*
Y1129000D02*
D03*
X476750Y1416250D02*
D03*
Y1406250D02*
D03*
X606250Y666000D02*
D03*
Y656000D02*
D03*
X162970Y1304250D02*
D03*
Y1294250D02*
D03*
X346200Y1360200D02*
D03*
Y1370200D02*
D03*
X418200Y1360200D02*
D03*
Y1370200D02*
D03*
X517000Y457250D02*
D03*
Y467250D02*
D03*
X725500Y367000D02*
D03*
Y377000D02*
D03*
X650500Y140750D02*
D03*
Y150750D02*
D03*
X599500Y88750D02*
D03*
Y98750D02*
D03*
X592500Y62500D02*
D03*
Y72500D02*
D03*
X658833Y216250D02*
D03*
Y206250D02*
D03*
X579000Y277000D02*
D03*
Y287000D02*
D03*
X612771Y98750D02*
D03*
Y88750D02*
D03*
X597000Y234387D02*
D03*
Y244387D02*
D03*
X578812Y246250D02*
D03*
Y236250D02*
D03*
X192796Y1083640D02*
D03*
Y1073640D02*
D03*
X268000Y1070750D02*
D03*
Y1060750D02*
D03*
X108350Y1185100D02*
D03*
Y1175100D02*
D03*
X192650Y1207050D02*
D03*
Y1217050D02*
D03*
X686205Y536250D02*
D03*
Y546250D02*
D03*
X541500Y569750D02*
D03*
Y559750D02*
D03*
X195500Y535000D02*
D03*
Y545000D02*
D03*
D149*
X375250Y938500D02*
D03*
X385250D02*
D03*
X367000Y949000D02*
D03*
X377000D02*
D03*
X399375Y955125D02*
D03*
X389375D02*
D03*
X399375Y965125D02*
D03*
X389375D02*
D03*
X310375Y992500D02*
D03*
X320375D02*
D03*
X304500Y982500D02*
D03*
X314500D02*
D03*
X399375Y978375D02*
D03*
X389375D02*
D03*
X315375Y1002500D02*
D03*
X325375D02*
D03*
X399250Y1010250D02*
D03*
X389250D02*
D03*
X355376Y1022000D02*
D03*
X365376D02*
D03*
X376875Y1053750D02*
D03*
X386875D02*
D03*
X402875Y1085000D02*
D03*
X392875D02*
D03*
X395500Y1144500D02*
D03*
X385500D02*
D03*
X580500Y888500D02*
D03*
X590500D02*
D03*
X569500D02*
D03*
X559500D02*
D03*
X538500D02*
D03*
X548500D02*
D03*
X527500D02*
D03*
X517500D02*
D03*
X222610Y979500D02*
D03*
X232610D02*
D03*
X222610Y989500D02*
D03*
X232610D02*
D03*
X278860Y965000D02*
D03*
X288860D02*
D03*
X278860Y955000D02*
D03*
X288860D02*
D03*
X239000Y1128250D02*
D03*
X229000D02*
D03*
X506264Y114494D02*
D03*
X516264D02*
D03*
X516264Y124494D02*
D03*
X506264D02*
D03*
X516110Y77738D02*
D03*
X506110D02*
D03*
Y67738D02*
D03*
X516110D02*
D03*
X505309Y295528D02*
D03*
X495309D02*
D03*
X505309Y305528D02*
D03*
X495309D02*
D03*
X504309Y249778D02*
D03*
X494309D02*
D03*
X504309Y259778D02*
D03*
X494309D02*
D03*
X623500Y951750D02*
D03*
X633500D02*
D03*
X623500Y975500D02*
D03*
X633500D02*
D03*
X637282Y1195750D02*
D03*
X647282D02*
D03*
X648282Y1175250D02*
D03*
X658282D02*
D03*
X163750Y1335750D02*
D03*
X173750D02*
D03*
X213720Y1291250D02*
D03*
X203720D02*
D03*
X655000Y1123250D02*
D03*
X645000D02*
D03*
Y1113250D02*
D03*
X655000D02*
D03*
X645000Y1103250D02*
D03*
X655000Y1103250D02*
D03*
X307250Y434250D02*
D03*
X297250D02*
D03*
X614750Y279250D02*
D03*
X604750D02*
D03*
X541000Y580250D02*
D03*
X531000D02*
D03*
X313000Y505500D02*
D03*
X323000D02*
D03*
X75000Y1350750D02*
D03*
X85000D02*
D03*
X220200Y1247500D02*
D03*
X210200D02*
D03*
X156450Y1282000D02*
D03*
X146450D02*
D03*
X207700Y1272900D02*
D03*
X197700D02*
D03*
X241770Y633500D02*
D03*
X231770D02*
D03*
X252250Y1335000D02*
D03*
X262250D02*
D03*
X237750Y1356000D02*
D03*
X247750D02*
D03*
X188250Y1364750D02*
D03*
X198250D02*
D03*
X69500Y344500D02*
D03*
X59500D02*
D03*
X142680Y1100750D02*
D03*
X132680D02*
D03*
X142500Y1031500D02*
D03*
X152500D02*
D03*
D150*
X376000Y979500D02*
D03*
Y984500D02*
D03*
Y989500D02*
D03*
Y994500D02*
D03*
Y999500D02*
D03*
Y1004500D02*
D03*
X337500D02*
D03*
Y999500D02*
D03*
Y994500D02*
D03*
Y989500D02*
D03*
Y984500D02*
D03*
Y979500D02*
D03*
D151*
X369250Y1011250D02*
D03*
X364250D02*
D03*
X359250D02*
D03*
X354250D02*
D03*
X349250D02*
D03*
X344250D02*
D03*
Y972750D02*
D03*
X349250D02*
D03*
X354250D02*
D03*
X359250D02*
D03*
X364250D02*
D03*
X369250D02*
D03*
D152*
X356750Y992000D02*
D03*
D153*
X420200Y1074000D02*
D03*
X425800D02*
D03*
X302850Y446750D02*
D03*
X297250D02*
D03*
D154*
X361375Y1085000D02*
D03*
D155*
X342375Y1075000D02*
D03*
Y1080000D02*
D03*
Y1085000D02*
D03*
Y1090000D02*
D03*
Y1095000D02*
D03*
X380375D02*
D03*
Y1090000D02*
D03*
Y1085000D02*
D03*
Y1080000D02*
D03*
Y1075000D02*
D03*
D156*
X351375Y1105500D02*
D03*
X356375D02*
D03*
X361375D02*
D03*
X366375D02*
D03*
X371375D02*
D03*
Y1064500D02*
D03*
X366375D02*
D03*
X361375D02*
D03*
X356375D02*
D03*
X351375D02*
D03*
D157*
X454000Y1416250D02*
D03*
Y1399250D02*
D03*
X287970Y650500D02*
D03*
Y633500D02*
D03*
X430450Y1377200D02*
D03*
Y1360200D02*
D03*
X96800Y1186650D02*
D03*
Y1169650D02*
D03*
X275970Y590500D02*
D03*
Y607500D02*
D03*
X297250Y406000D02*
D03*
Y423000D02*
D03*
X317960Y448250D02*
D03*
Y465250D02*
D03*
D158*
X169350Y1379500D02*
D03*
X139350Y1379500D02*
D03*
X120063Y1299500D02*
D03*
X150063Y1299500D02*
D03*
X341450Y1330450D02*
D03*
X371450D02*
D03*
X527500Y517500D02*
D03*
X497500D02*
D03*
X527449Y497050D02*
D03*
X497449Y497050D02*
D03*
X621000Y547000D02*
D03*
X591000D02*
D03*
X585500Y613250D02*
D03*
X555500D02*
D03*
D159*
X699250Y249750D02*
D03*
X696068Y252932D02*
D03*
D160*
X697500Y1165250D02*
D03*
Y1160750D02*
D03*
X692000Y114750D02*
D03*
Y119250D02*
D03*
X697500Y1310750D02*
D03*
Y1315250D02*
D03*
D161*
X-80000Y-80000D02*
D03*
X830000Y-80000D02*
D03*
X830000Y1510000D02*
D03*
X-80000Y1510000D02*
D03*
D162*
X566500Y968000D02*
D03*
D163*
X604000Y923500D02*
D03*
X599000D02*
D03*
X594000D02*
D03*
X589000D02*
D03*
X584000D02*
D03*
X579000D02*
D03*
X574000D02*
D03*
X569000D02*
D03*
X564000D02*
D03*
X559000D02*
D03*
X554000D02*
D03*
X549000D02*
D03*
X544000D02*
D03*
X539000D02*
D03*
X534000D02*
D03*
X529000D02*
D03*
Y1012500D02*
D03*
X534000D02*
D03*
X539000D02*
D03*
X544000D02*
D03*
X549000D02*
D03*
X554000D02*
D03*
X559000D02*
D03*
X564000D02*
D03*
X569000D02*
D03*
X574000D02*
D03*
X579000D02*
D03*
X584000D02*
D03*
X589000D02*
D03*
X594000D02*
D03*
X599000D02*
D03*
X604000D02*
D03*
D164*
X522000Y930500D02*
D03*
Y935500D02*
D03*
Y940500D02*
D03*
Y945500D02*
D03*
Y950500D02*
D03*
Y955500D02*
D03*
Y960500D02*
D03*
Y965500D02*
D03*
Y970500D02*
D03*
Y975500D02*
D03*
Y980500D02*
D03*
Y985500D02*
D03*
Y990500D02*
D03*
Y995500D02*
D03*
Y1000500D02*
D03*
Y1005500D02*
D03*
X611000D02*
D03*
Y1000500D02*
D03*
Y995500D02*
D03*
Y990500D02*
D03*
Y985500D02*
D03*
Y980500D02*
D03*
Y975500D02*
D03*
Y970500D02*
D03*
Y965500D02*
D03*
Y960500D02*
D03*
Y955500D02*
D03*
Y950500D02*
D03*
Y945500D02*
D03*
Y940500D02*
D03*
Y935500D02*
D03*
Y930500D02*
D03*
D165*
X259500Y1179250D02*
D03*
Y1172750D02*
D03*
Y1166250D02*
D03*
X284500D02*
D03*
Y1172750D02*
D03*
Y1179250D02*
D03*
Y1159750D02*
D03*
X259500D02*
D03*
D166*
X251500Y1115250D02*
D03*
Y1121750D02*
D03*
Y1128250D02*
D03*
X270500D02*
D03*
X270500Y1121750D02*
D03*
X270500Y1115250D02*
D03*
D167*
X727000Y1192950D02*
D03*
Y1137550D02*
D03*
Y892950D02*
D03*
Y837550D02*
D03*
Y1042950D02*
D03*
Y987550D02*
D03*
Y142450D02*
D03*
Y87050D02*
D03*
Y237050D02*
D03*
Y292450D02*
D03*
Y1287550D02*
D03*
Y1342950D02*
D03*
D168*
X726000Y1165250D02*
D03*
Y865250D02*
D03*
Y1015250D02*
D03*
Y114750D02*
D03*
Y264750D02*
D03*
Y1315250D02*
D03*
D169*
X542114Y132944D02*
D03*
Y106044D02*
D03*
X573914D02*
D03*
Y132944D02*
D03*
X542210Y86188D02*
D03*
Y59288D02*
D03*
X574010D02*
D03*
Y86188D02*
D03*
X530909Y313978D02*
D03*
Y287078D02*
D03*
X562709D02*
D03*
Y313978D02*
D03*
X530909Y262978D02*
D03*
Y236078D02*
D03*
X562709D02*
D03*
Y262978D02*
D03*
D170*
X573914Y119494D02*
D03*
X574010Y72738D02*
D03*
X562709Y300528D02*
D03*
Y249528D02*
D03*
D171*
X222500Y952750D02*
D03*
X222500Y888750D02*
D03*
D172*
X244500Y945250D02*
D03*
X244500Y893250D02*
D03*
X200500D02*
D03*
X200500Y945250D02*
D03*
X244500Y945250D02*
D03*
X244500Y893250D02*
D03*
X200500D02*
D03*
X200500Y945250D02*
D03*
D173*
X265860Y938000D02*
D03*
X265860Y899500D02*
D03*
X288860Y899500D02*
D03*
Y938000D02*
D03*
D174*
X267610Y924750D02*
D03*
Y912750D02*
D03*
X287110Y912750D02*
D03*
X287110Y924750D02*
D03*
D175*
X277360Y899500D02*
D03*
X277360Y938000D02*
D03*
D176*
X642000Y895000D02*
D03*
X620000Y895000D02*
D03*
Y878000D02*
D03*
X642000D02*
D03*
D177*
X632583Y206250D02*
D03*
X622250Y150750D02*
D03*
D178*
X626833Y206250D02*
D03*
X632583Y214000D02*
D03*
X638333Y206250D02*
D03*
Y198500D02*
D03*
X632583D02*
D03*
X626833D02*
D03*
Y214000D02*
D03*
X638333D02*
D03*
X632583Y213000D02*
D03*
X637583Y206250D02*
D03*
X637583Y199500D02*
D03*
X632583Y199500D02*
D03*
X627583Y199500D02*
D03*
Y213000D02*
D03*
X637583Y213000D02*
D03*
X616500Y150750D02*
D03*
X622250Y158500D02*
D03*
X628000Y150750D02*
D03*
Y143000D02*
D03*
X622250D02*
D03*
X616500D02*
D03*
Y158500D02*
D03*
X628000D02*
D03*
X622250Y157500D02*
D03*
X627250Y150750D02*
D03*
Y144000D02*
D03*
X622250D02*
D03*
X617250D02*
D03*
Y157500D02*
D03*
X627250D02*
D03*
D179*
X629583Y206250D02*
D03*
X619250Y150750D02*
D03*
D180*
X364750Y16125D02*
D03*
X604750D02*
D03*
X544750D02*
D03*
X484750D02*
D03*
X424750D02*
D03*
X304750D02*
D03*
X244750D02*
D03*
Y393125D02*
D03*
X304750D02*
D03*
X364750D02*
D03*
X424750D02*
D03*
X484750D02*
D03*
X544750D02*
D03*
X604750D02*
D03*
X364750Y857375D02*
D03*
X604750D02*
D03*
X544750D02*
D03*
X484750D02*
D03*
X424750D02*
D03*
X304750D02*
D03*
X244750D02*
D03*
Y1234375D02*
D03*
X304750D02*
D03*
X364750D02*
D03*
X424750D02*
D03*
X484750D02*
D03*
X544750D02*
D03*
X604750D02*
D03*
D181*
X172750Y324375D02*
D03*
Y264375D02*
D03*
Y204375D02*
D03*
Y144375D02*
D03*
Y84375D02*
D03*
X676750D02*
D03*
Y144375D02*
D03*
Y204375D02*
D03*
Y264375D02*
D03*
Y324375D02*
D03*
X172750Y1165625D02*
D03*
Y1105625D02*
D03*
Y1045625D02*
D03*
Y985625D02*
D03*
Y925625D02*
D03*
X676750D02*
D03*
Y985625D02*
D03*
Y1045625D02*
D03*
Y1105625D02*
D03*
Y1165625D02*
D03*
D182*
X172750Y26625D02*
D03*
Y382125D02*
D03*
X676750D02*
D03*
Y26625D02*
D03*
X172750Y867875D02*
D03*
Y1223375D02*
D03*
X676750D02*
D03*
Y867875D02*
D03*
D183*
X186000Y15875D02*
D03*
Y392875D02*
D03*
X663500D02*
D03*
Y15875D02*
D03*
X186000Y857125D02*
D03*
Y1234125D02*
D03*
X663500D02*
D03*
Y857125D02*
D03*
D184*
X284720Y233938D02*
D03*
Y225938D02*
D03*
Y217938D02*
D03*
X284720Y209938D02*
D03*
X284720Y201938D02*
D03*
Y193938D02*
D03*
Y185938D02*
D03*
Y177938D02*
D03*
Y169938D02*
D03*
X284720Y161938D02*
D03*
Y153938D02*
D03*
X284720Y145938D02*
D03*
Y137938D02*
D03*
X276720Y233938D02*
D03*
Y225938D02*
D03*
Y217938D02*
D03*
X276720Y209938D02*
D03*
Y201938D02*
D03*
X276720Y193938D02*
D03*
Y185938D02*
D03*
Y177938D02*
D03*
X276720Y169938D02*
D03*
Y161938D02*
D03*
Y153938D02*
D03*
X276720Y145938D02*
D03*
Y137938D02*
D03*
X268720Y233938D02*
D03*
Y225938D02*
D03*
Y217938D02*
D03*
Y209938D02*
D03*
Y201938D02*
D03*
Y193938D02*
D03*
Y185938D02*
D03*
Y177938D02*
D03*
Y169938D02*
D03*
Y161938D02*
D03*
Y153938D02*
D03*
Y145938D02*
D03*
Y137938D02*
D03*
X260720Y233938D02*
D03*
Y225938D02*
D03*
Y217938D02*
D03*
Y209938D02*
D03*
Y201938D02*
D03*
Y193938D02*
D03*
X260720Y185938D02*
D03*
X260720Y177938D02*
D03*
Y169938D02*
D03*
Y161938D02*
D03*
Y153938D02*
D03*
Y145938D02*
D03*
Y137938D02*
D03*
X252720Y233938D02*
D03*
X252720Y225938D02*
D03*
Y217938D02*
D03*
Y209938D02*
D03*
Y201938D02*
D03*
Y193938D02*
D03*
X252720Y185938D02*
D03*
Y177938D02*
D03*
X252720Y169938D02*
D03*
Y161938D02*
D03*
Y153938D02*
D03*
Y145938D02*
D03*
X252720Y137938D02*
D03*
X244720Y233938D02*
D03*
Y225938D02*
D03*
Y217938D02*
D03*
Y209938D02*
D03*
Y201938D02*
D03*
Y193938D02*
D03*
Y185938D02*
D03*
Y177938D02*
D03*
Y169938D02*
D03*
Y161938D02*
D03*
Y153938D02*
D03*
Y145938D02*
D03*
Y137938D02*
D03*
X236720Y233938D02*
D03*
Y225938D02*
D03*
Y217938D02*
D03*
Y209938D02*
D03*
Y201938D02*
D03*
Y193938D02*
D03*
Y185938D02*
D03*
Y177938D02*
D03*
Y169938D02*
D03*
Y161938D02*
D03*
Y153938D02*
D03*
Y145938D02*
D03*
Y137938D02*
D03*
X228720Y233938D02*
D03*
Y225938D02*
D03*
Y217938D02*
D03*
X228720Y209938D02*
D03*
X228720Y201938D02*
D03*
Y193938D02*
D03*
Y185938D02*
D03*
Y177938D02*
D03*
Y169938D02*
D03*
X228720Y161938D02*
D03*
Y153938D02*
D03*
X228720Y145938D02*
D03*
Y137938D02*
D03*
X220720Y233938D02*
D03*
X220720Y225938D02*
D03*
Y217938D02*
D03*
Y209938D02*
D03*
Y201938D02*
D03*
Y193938D02*
D03*
X220720Y185938D02*
D03*
Y177938D02*
D03*
X220720Y169938D02*
D03*
Y161938D02*
D03*
Y153938D02*
D03*
Y145938D02*
D03*
X220720Y137938D02*
D03*
X212720Y233938D02*
D03*
Y225938D02*
D03*
Y217938D02*
D03*
Y209938D02*
D03*
Y201938D02*
D03*
Y193938D02*
D03*
X212720Y185938D02*
D03*
X212720Y177938D02*
D03*
Y169938D02*
D03*
Y161938D02*
D03*
Y153938D02*
D03*
Y145938D02*
D03*
Y137938D02*
D03*
X204720Y233938D02*
D03*
Y225938D02*
D03*
Y217938D02*
D03*
Y209938D02*
D03*
Y201938D02*
D03*
Y193938D02*
D03*
X204720Y185938D02*
D03*
X204720Y177938D02*
D03*
Y169938D02*
D03*
Y161938D02*
D03*
Y153938D02*
D03*
Y145938D02*
D03*
Y137938D02*
D03*
X196720Y233938D02*
D03*
Y225938D02*
D03*
Y217938D02*
D03*
X196720Y209938D02*
D03*
Y201938D02*
D03*
X196720Y193938D02*
D03*
Y185938D02*
D03*
Y177938D02*
D03*
X196720Y169938D02*
D03*
Y161938D02*
D03*
Y153938D02*
D03*
X196720Y145938D02*
D03*
Y137938D02*
D03*
X188720Y233938D02*
D03*
Y225938D02*
D03*
Y217938D02*
D03*
X188720Y209938D02*
D03*
X188720Y201938D02*
D03*
Y193938D02*
D03*
Y185938D02*
D03*
Y177938D02*
D03*
Y169938D02*
D03*
X188720Y161938D02*
D03*
Y153938D02*
D03*
X188720Y145938D02*
D03*
Y137938D02*
D03*
X220500Y500750D02*
D03*
X231500Y500750D02*
D03*
X242500Y500750D02*
D03*
X253500D02*
D03*
X264500D02*
D03*
X220500Y489750D02*
D03*
X231500D02*
D03*
X242500Y489750D02*
D03*
X253500Y489750D02*
D03*
X264500D02*
D03*
X220500Y478750D02*
D03*
X231500D02*
D03*
X242500D02*
D03*
X253500D02*
D03*
X264500D02*
D03*
X220500Y467750D02*
D03*
X231500D02*
D03*
X242500D02*
D03*
X253500D02*
D03*
X264500D02*
D03*
X220500Y456750D02*
D03*
X231500D02*
D03*
X242500D02*
D03*
X253500D02*
D03*
X264500D02*
D03*
D185*
X656535Y92143D02*
D03*
X649464Y99214D02*
D03*
X658657Y241974D02*
D03*
X665728Y234903D02*
D03*
X634656Y265974D02*
D03*
X641728Y258903D02*
D03*
X633929Y83679D02*
D03*
X626858Y90750D02*
D03*
X657929Y121821D02*
D03*
X665000Y114750D02*
D03*
D186*
X657263Y257509D02*
D03*
X650192Y250438D02*
D03*
X657929Y107679D02*
D03*
X665000Y114750D02*
D03*
X634656Y265974D02*
D03*
X627585Y258903D02*
D03*
X658657Y227832D02*
D03*
X665728Y234903D02*
D03*
X633929Y83679D02*
D03*
X641000Y90750D02*
D03*
D187*
X229250Y784750D02*
D03*
Y724750D02*
D03*
X269250D02*
D03*
Y784750D02*
D03*
X734164Y460106D02*
D03*
X708764D02*
D03*
Y430106D02*
D03*
X413000Y962750D02*
D03*
X278000Y1338714D02*
D03*
Y1313286D02*
D03*
Y1287857D02*
D03*
X646100Y1260200D02*
D03*
X151179Y16523D02*
D03*
X125750D02*
D03*
X100321D02*
D03*
X13750Y938878D02*
D03*
X14000Y318071D02*
D03*
Y445128D02*
D03*
Y419700D02*
D03*
Y394271D02*
D03*
X44200Y1336750D02*
D03*
D188*
X482532Y1066750D02*
D03*
X482532Y1077750D02*
D03*
X482532Y1088750D02*
D03*
Y1099750D02*
D03*
X482532Y1110750D02*
D03*
X482532Y1121750D02*
D03*
X482532Y1132750D02*
D03*
X482532Y1162750D02*
D03*
X606532Y1066750D02*
D03*
X606532Y1077750D02*
D03*
X606532Y1088750D02*
D03*
X606532Y1099750D02*
D03*
Y1110750D02*
D03*
Y1121750D02*
D03*
X606532Y1132750D02*
D03*
Y1162750D02*
D03*
X606532Y1173750D02*
D03*
X606532Y1184750D02*
D03*
Y1195750D02*
D03*
X606532Y1206750D02*
D03*
X482532D02*
D03*
Y1195750D02*
D03*
Y1184750D02*
D03*
Y1173750D02*
D03*
D189*
X78000Y1384750D02*
D03*
X84500Y1363750D02*
D03*
X71500D02*
D03*
D190*
X242500Y478750D02*
D03*
D191*
X278500Y433750D02*
D03*
X274500D02*
D03*
X270500D02*
D03*
X266500D02*
D03*
X262500D02*
D03*
X258500D02*
D03*
X254500D02*
D03*
X250500D02*
D03*
X246500D02*
D03*
X242500D02*
D03*
X238500D02*
D03*
X234500D02*
D03*
X230500D02*
D03*
X226500D02*
D03*
X222500D02*
D03*
X218500D02*
D03*
X214500D02*
D03*
X210500D02*
D03*
X206500D02*
D03*
Y523750D02*
D03*
X210500D02*
D03*
X214500D02*
D03*
X218500D02*
D03*
X222500D02*
D03*
X226500D02*
D03*
X230500D02*
D03*
X234500D02*
D03*
X238500D02*
D03*
X242500Y523750D02*
D03*
X246500Y523750D02*
D03*
X250500D02*
D03*
X254500D02*
D03*
X258500D02*
D03*
X262500D02*
D03*
X266500D02*
D03*
X270500D02*
D03*
X274500D02*
D03*
X278500Y523750D02*
D03*
D192*
X197500Y442750D02*
D03*
X197500Y446750D02*
D03*
Y450750D02*
D03*
Y454750D02*
D03*
Y458750D02*
D03*
Y462750D02*
D03*
Y466750D02*
D03*
Y470750D02*
D03*
Y474750D02*
D03*
X197500Y478750D02*
D03*
X197500Y482750D02*
D03*
Y486750D02*
D03*
Y490750D02*
D03*
Y494750D02*
D03*
Y498750D02*
D03*
Y502750D02*
D03*
Y506750D02*
D03*
Y510750D02*
D03*
Y514750D02*
D03*
X287500D02*
D03*
Y510750D02*
D03*
Y506750D02*
D03*
Y502750D02*
D03*
Y498750D02*
D03*
Y494750D02*
D03*
Y490750D02*
D03*
Y486750D02*
D03*
Y482750D02*
D03*
Y478750D02*
D03*
Y474750D02*
D03*
Y470750D02*
D03*
Y466750D02*
D03*
Y462750D02*
D03*
Y458750D02*
D03*
Y454750D02*
D03*
Y450750D02*
D03*
Y446750D02*
D03*
Y442750D02*
D03*
D193*
X358700Y1347700D02*
D03*
X341700Y1347700D02*
D03*
X662000Y1089250D02*
D03*
X645000D02*
D03*
X602000Y371000D02*
D03*
X585000D02*
D03*
X418875Y406750D02*
D03*
X401875D02*
D03*
X316240Y414620D02*
D03*
X333240D02*
D03*
D194*
X380200Y1369700D02*
D03*
Y1379200D02*
D03*
X406200Y1360200D02*
D03*
Y1369700D02*
D03*
Y1379200D02*
D03*
X380200Y1360200D02*
D03*
D195*
X59150Y923786D02*
D03*
Y913986D02*
D03*
X72050Y918886D02*
D03*
D196*
X592000Y261773D02*
D03*
X607750Y69750D02*
D03*
D197*
X587000Y269023D02*
D03*
X592000D02*
D03*
X597000D02*
D03*
Y254523D02*
D03*
X592000D02*
D03*
X587000D02*
D03*
X602750Y77000D02*
D03*
X607750D02*
D03*
X612750D02*
D03*
Y62500D02*
D03*
X607750D02*
D03*
X602750D02*
D03*
D198*
X634071Y69821D02*
D03*
X627000Y62750D02*
D03*
D199*
X571250Y517000D02*
D03*
Y547000D02*
D03*
X548224Y517250D02*
D03*
Y547250D02*
D03*
D200*
X227796Y1070890D02*
D03*
D201*
X214046Y1061140D02*
D03*
Y1067640D02*
D03*
Y1074140D02*
D03*
Y1080640D02*
D03*
X241546D02*
D03*
Y1074140D02*
D03*
Y1067640D02*
D03*
Y1061140D02*
D03*
D202*
X511783Y542800D02*
D03*
Y568200D02*
D03*
X419983D02*
D03*
Y542800D02*
D03*
D203*
X706750Y629750D02*
D03*
Y642750D02*
D03*
X687750Y636250D02*
D03*
D204*
X450750Y505250D02*
D03*
X478750D02*
D03*
X555750Y579000D02*
D03*
X583750D02*
D03*
D205*
X465750Y424370D02*
D03*
X447750D02*
D03*
X412956Y475500D02*
D03*
X430956D02*
D03*
X718750Y670000D02*
D03*
X736750D02*
D03*
D206*
X401250Y614750D02*
D03*
Y596750D02*
D03*
X343240Y481120D02*
D03*
Y463120D02*
D03*
D207*
X654250Y749250D02*
D03*
Y685250D02*
D03*
D208*
X46750Y343250D02*
D03*
X56250Y320250D02*
D03*
X37250Y320250D02*
D03*
D209*
X132750Y1060750D02*
D03*
D210*
X142500Y1047000D02*
D03*
X136000Y1047000D02*
D03*
X129500Y1047000D02*
D03*
X123000Y1047000D02*
D03*
Y1074500D02*
D03*
X129500D02*
D03*
X136000D02*
D03*
X142500D02*
D03*
D211*
X652801Y823500D02*
D03*
X682801D02*
D03*
X432287Y508000D02*
D03*
X402287D02*
D03*
X637914Y823500D02*
D03*
X607914D02*
D03*
D212*
X459250Y472750D02*
D03*
Y442750D02*
D03*
D213*
X725000Y805750D02*
D03*
Y765750D02*
D03*
D214*
X683364Y460106D02*
D03*
X734164Y430106D02*
D03*
X671500Y1260200D02*
D03*
X18800Y1336750D02*
D03*
D215*
X35000Y35000D02*
D03*
X715000Y35000D02*
D03*
Y1395000D02*
D03*
X35000Y1395000D02*
D03*
X143000Y322750D02*
D03*
Y938750D02*
D03*
D216*
X413000Y294750D02*
D03*
D217*
X700550Y336950D02*
D03*
Y407050D02*
D03*
D218*
X619149Y660350D02*
D03*
X593749Y673050D02*
D03*
X619149Y685750D02*
D03*
X593749Y698450D02*
D03*
X619149Y711150D02*
D03*
X593749Y749250D02*
D03*
X619149Y761950D02*
D03*
X593749Y774650D02*
D03*
X568349Y761950D02*
D03*
X156500Y1045250D02*
D03*
Y1121250D02*
D03*
D219*
X545449Y688250D02*
D03*
Y662850D02*
D03*
Y772150D02*
D03*
Y746750D02*
D03*
X411700Y1312150D02*
D03*
X386700D02*
D03*
X366700D02*
D03*
X341700D02*
D03*
X411700Y1285950D02*
D03*
X386700D02*
D03*
X366700D02*
D03*
X341700D02*
D03*
D220*
X695000Y484250D02*
D03*
D221*
X662000Y532250D02*
D03*
D222*
X725000D02*
D03*
D223*
X278000Y1364143D02*
D03*
X14000Y470557D02*
D03*
D224*
Y140071D02*
D03*
Y165500D02*
D03*
Y190929D02*
D03*
Y216357D02*
D03*
Y114643D02*
D03*
Y89214D02*
D03*
D225*
Y241786D02*
D03*
D226*
X74893Y16523D02*
D03*
D227*
X507000Y1354750D02*
D03*
X652000Y1354750D02*
D03*
X658000Y1404250D02*
D03*
X501000D02*
D03*
D228*
X69346Y1409500D02*
D03*
X153346Y1359500D02*
D03*
X101346Y1328500D02*
D03*
X162346Y1409500D02*
D03*
X133346Y1328500D02*
D03*
X117346Y1409500D02*
D03*
Y1359500D02*
D03*
D229*
X13750Y964278D02*
D03*
X14000Y343471D02*
D03*
D230*
X194500Y1415750D02*
D03*
X260500D02*
D03*
D231*
X311000Y1282450D02*
D03*
X442400D02*
D03*
X311000Y1339250D02*
D03*
X442400D02*
D03*
M02*
