G04*
G04 #@! TF.GenerationSoftware,Altium Limited,Altium Designer,18.1.9 (240)*
G04*
G04 Layer_Color=8388736*
%FSLAX44Y44*%
%MOMM*%
G71*
G01*
G75*
%ADD14C,0.3000*%
%ADD18C,0.1000*%
D14*
X0Y25400D02*
G03*
X25400Y0I25400J0D01*
G01*
X724600Y0D02*
G03*
X750000Y25400I0J25400D01*
G01*
Y1404600D02*
G03*
X724600Y1430000I-25400J0D01*
G01*
X25400D02*
G03*
X0Y1404600I0J-25400D01*
G01*
X-0D02*
X0Y25400D01*
X25400Y1430000D02*
X724600Y1430000D01*
X750000Y25400D02*
Y1404600D01*
X25400Y0D02*
X724600Y0D01*
D18*
X143000Y-50000D02*
Y0D01*
X84750Y-50000D02*
Y0D01*
X143000Y-50000D02*
X607000Y-50000D01*
X-152000Y1582000D02*
X-152000Y-152000D01*
Y-152000D02*
X902000Y-152000D01*
X665250Y-50000D02*
Y0D01*
X607000Y-50000D02*
Y0D01*
X665250Y-50000D02*
X800000D01*
X750000Y686000D02*
X800000D01*
X750000Y744250D02*
X800000D01*
X800000Y686000D02*
X800000Y-50000D01*
X800000Y744250D02*
X800000Y1480000D01*
X902000Y1582000D02*
X902000Y-152000D01*
X665250Y1480000D02*
X800000D01*
X607000Y1430000D02*
Y1480000D01*
X665250Y1430000D02*
Y1480000D01*
X143000D02*
X607000Y1480000D01*
X84750Y1430000D02*
Y1480000D01*
X143000Y1430000D02*
Y1480000D01*
X-50000Y1480000D02*
X84750D01*
X-152000Y1582000D02*
X902000Y1582000D01*
X-50000Y-50000D02*
Y1480000D01*
Y-50000D02*
X84750D01*
M02*
