G04*
G04 #@! TF.GenerationSoftware,Altium Limited,Altium Designer,18.1.9 (240)*
G04*
G04 Layer_Color=255*
%FSLAX44Y44*%
%MOMM*%
G71*
G01*
G75*
G04:AMPARAMS|DCode=19|XSize=0.5mm|YSize=0.6mm|CornerRadius=0.05mm|HoleSize=0mm|Usage=FLASHONLY|Rotation=0.000|XOffset=0mm|YOffset=0mm|HoleType=Round|Shape=RoundedRectangle|*
%AMROUNDEDRECTD19*
21,1,0.5000,0.5000,0,0,0.0*
21,1,0.4000,0.6000,0,0,0.0*
1,1,0.1000,0.2000,-0.2500*
1,1,0.1000,-0.2000,-0.2500*
1,1,0.1000,-0.2000,0.2500*
1,1,0.1000,0.2000,0.2500*
%
%ADD19ROUNDEDRECTD19*%
G04:AMPARAMS|DCode=20|XSize=0.5mm|YSize=0.6mm|CornerRadius=0.05mm|HoleSize=0mm|Usage=FLASHONLY|Rotation=270.000|XOffset=0mm|YOffset=0mm|HoleType=Round|Shape=RoundedRectangle|*
%AMROUNDEDRECTD20*
21,1,0.5000,0.5000,0,0,270.0*
21,1,0.4000,0.6000,0,0,270.0*
1,1,0.1000,-0.2500,-0.2000*
1,1,0.1000,-0.2500,0.2000*
1,1,0.1000,0.2500,0.2000*
1,1,0.1000,0.2500,-0.2000*
%
%ADD20ROUNDEDRECTD20*%
%ADD21R,0.2500X0.4750*%
%ADD22R,0.4750X0.2500*%
%ADD23R,1.1000X1.1000*%
%ADD24R,1.1000X1.1000*%
G04:AMPARAMS|DCode=25|XSize=0.6mm|YSize=0.6mm|CornerRadius=0.06mm|HoleSize=0mm|Usage=FLASHONLY|Rotation=0.000|XOffset=0mm|YOffset=0mm|HoleType=Round|Shape=RoundedRectangle|*
%AMROUNDEDRECTD25*
21,1,0.6000,0.4800,0,0,0.0*
21,1,0.4800,0.6000,0,0,0.0*
1,1,0.1200,0.2400,-0.2400*
1,1,0.1200,-0.2400,-0.2400*
1,1,0.1200,-0.2400,0.2400*
1,1,0.1200,0.2400,0.2400*
%
%ADD25ROUNDEDRECTD25*%
G04:AMPARAMS|DCode=26|XSize=1mm|YSize=0.9mm|CornerRadius=0.1125mm|HoleSize=0mm|Usage=FLASHONLY|Rotation=270.000|XOffset=0mm|YOffset=0mm|HoleType=Round|Shape=RoundedRectangle|*
%AMROUNDEDRECTD26*
21,1,1.0000,0.6750,0,0,270.0*
21,1,0.7750,0.9000,0,0,270.0*
1,1,0.2250,-0.3375,-0.3875*
1,1,0.2250,-0.3375,0.3875*
1,1,0.2250,0.3375,0.3875*
1,1,0.2250,0.3375,-0.3875*
%
%ADD26ROUNDEDRECTD26*%
G04:AMPARAMS|DCode=27|XSize=1mm|YSize=0.9mm|CornerRadius=0.1125mm|HoleSize=0mm|Usage=FLASHONLY|Rotation=0.000|XOffset=0mm|YOffset=0mm|HoleType=Round|Shape=RoundedRectangle|*
%AMROUNDEDRECTD27*
21,1,1.0000,0.6750,0,0,0.0*
21,1,0.7750,0.9000,0,0,0.0*
1,1,0.2250,0.3875,-0.3375*
1,1,0.2250,-0.3875,-0.3375*
1,1,0.2250,-0.3875,0.3375*
1,1,0.2250,0.3875,0.3375*
%
%ADD27ROUNDEDRECTD27*%
%ADD28R,0.3000X0.6000*%
%ADD29R,1.9500X0.6000*%
G04:AMPARAMS|DCode=30|XSize=0.6mm|YSize=0.6mm|CornerRadius=0.06mm|HoleSize=0mm|Usage=FLASHONLY|Rotation=90.000|XOffset=0mm|YOffset=0mm|HoleType=Round|Shape=RoundedRectangle|*
%AMROUNDEDRECTD30*
21,1,0.6000,0.4800,0,0,90.0*
21,1,0.4800,0.6000,0,0,90.0*
1,1,0.1200,0.2400,0.2400*
1,1,0.1200,0.2400,-0.2400*
1,1,0.1200,-0.2400,-0.2400*
1,1,0.1200,-0.2400,0.2400*
%
%ADD30ROUNDEDRECTD30*%
G04:AMPARAMS|DCode=31|XSize=1.22mm|YSize=0.91mm|CornerRadius=0.1138mm|HoleSize=0mm|Usage=FLASHONLY|Rotation=180.000|XOffset=0mm|YOffset=0mm|HoleType=Round|Shape=RoundedRectangle|*
%AMROUNDEDRECTD31*
21,1,1.2200,0.6825,0,0,180.0*
21,1,0.9925,0.9100,0,0,180.0*
1,1,0.2275,-0.4963,0.3413*
1,1,0.2275,0.4963,0.3413*
1,1,0.2275,0.4963,-0.3413*
1,1,0.2275,-0.4963,-0.3413*
%
%ADD31ROUNDEDRECTD31*%
G04:AMPARAMS|DCode=32|XSize=1.22mm|YSize=0.91mm|CornerRadius=0.1138mm|HoleSize=0mm|Usage=FLASHONLY|Rotation=90.000|XOffset=0mm|YOffset=0mm|HoleType=Round|Shape=RoundedRectangle|*
%AMROUNDEDRECTD32*
21,1,1.2200,0.6825,0,0,90.0*
21,1,0.9925,0.9100,0,0,90.0*
1,1,0.2275,0.3413,0.4963*
1,1,0.2275,0.3413,-0.4963*
1,1,0.2275,-0.3413,-0.4963*
1,1,0.2275,-0.3413,0.4963*
%
%ADD32ROUNDEDRECTD32*%
%ADD33R,2.0000X1.7000*%
G04:AMPARAMS|DCode=34|XSize=1mm|YSize=1.5mm|CornerRadius=0.25mm|HoleSize=0mm|Usage=FLASHONLY|Rotation=270.000|XOffset=0mm|YOffset=0mm|HoleType=Round|Shape=RoundedRectangle|*
%AMROUNDEDRECTD34*
21,1,1.0000,1.0000,0,0,270.0*
21,1,0.5000,1.5000,0,0,270.0*
1,1,0.5000,-0.5000,-0.2500*
1,1,0.5000,-0.5000,0.2500*
1,1,0.5000,0.5000,0.2500*
1,1,0.5000,0.5000,-0.2500*
%
%ADD34ROUNDEDRECTD34*%
%ADD35R,3.7000X1.6000*%
G04:AMPARAMS|DCode=36|XSize=1.8mm|YSize=1.3mm|CornerRadius=0.1625mm|HoleSize=0mm|Usage=FLASHONLY|Rotation=270.000|XOffset=0mm|YOffset=0mm|HoleType=Round|Shape=RoundedRectangle|*
%AMROUNDEDRECTD36*
21,1,1.8000,0.9750,0,0,270.0*
21,1,1.4750,1.3000,0,0,270.0*
1,1,0.3250,-0.4875,-0.7375*
1,1,0.3250,-0.4875,0.7375*
1,1,0.3250,0.4875,0.7375*
1,1,0.3250,0.4875,-0.7375*
%
%ADD36ROUNDEDRECTD36*%
G04:AMPARAMS|DCode=37|XSize=3.6mm|YSize=1.5mm|CornerRadius=0.1875mm|HoleSize=0mm|Usage=FLASHONLY|Rotation=180.000|XOffset=0mm|YOffset=0mm|HoleType=Round|Shape=RoundedRectangle|*
%AMROUNDEDRECTD37*
21,1,3.6000,1.1250,0,0,180.0*
21,1,3.2250,1.5000,0,0,180.0*
1,1,0.3750,-1.6125,0.5625*
1,1,0.3750,1.6125,0.5625*
1,1,0.3750,1.6125,-0.5625*
1,1,0.3750,-1.6125,-0.5625*
%
%ADD37ROUNDEDRECTD37*%
G04:AMPARAMS|DCode=38|XSize=2mm|YSize=2mm|CornerRadius=0.25mm|HoleSize=0mm|Usage=FLASHONLY|Rotation=270.000|XOffset=0mm|YOffset=0mm|HoleType=Round|Shape=RoundedRectangle|*
%AMROUNDEDRECTD38*
21,1,2.0000,1.5000,0,0,270.0*
21,1,1.5000,2.0000,0,0,270.0*
1,1,0.5000,-0.7500,-0.7500*
1,1,0.5000,-0.7500,0.7500*
1,1,0.5000,0.7500,0.7500*
1,1,0.5000,0.7500,-0.7500*
%
%ADD38ROUNDEDRECTD38*%
%ADD39R,2.3500X4.1500*%
G04:AMPARAMS|DCode=40|XSize=0.6mm|YSize=1mm|CornerRadius=0.075mm|HoleSize=0mm|Usage=FLASHONLY|Rotation=90.000|XOffset=0mm|YOffset=0mm|HoleType=Round|Shape=RoundedRectangle|*
%AMROUNDEDRECTD40*
21,1,0.6000,0.8500,0,0,90.0*
21,1,0.4500,1.0000,0,0,90.0*
1,1,0.1500,0.4250,0.2250*
1,1,0.1500,0.4250,-0.2250*
1,1,0.1500,-0.4250,-0.2250*
1,1,0.1500,-0.4250,0.2250*
%
%ADD40ROUNDEDRECTD40*%
G04:AMPARAMS|DCode=41|XSize=1.3mm|YSize=0.8mm|CornerRadius=0.1mm|HoleSize=0mm|Usage=FLASHONLY|Rotation=270.000|XOffset=0mm|YOffset=0mm|HoleType=Round|Shape=RoundedRectangle|*
%AMROUNDEDRECTD41*
21,1,1.3000,0.6000,0,0,270.0*
21,1,1.1000,0.8000,0,0,270.0*
1,1,0.2000,-0.3000,-0.5500*
1,1,0.2000,-0.3000,0.5500*
1,1,0.2000,0.3000,0.5500*
1,1,0.2000,0.3000,-0.5500*
%
%ADD41ROUNDEDRECTD41*%
G04:AMPARAMS|DCode=42|XSize=1.3mm|YSize=0.8mm|CornerRadius=0.1mm|HoleSize=0mm|Usage=FLASHONLY|Rotation=0.000|XOffset=0mm|YOffset=0mm|HoleType=Round|Shape=RoundedRectangle|*
%AMROUNDEDRECTD42*
21,1,1.3000,0.6000,0,0,0.0*
21,1,1.1000,0.8000,0,0,0.0*
1,1,0.2000,0.5500,-0.3000*
1,1,0.2000,-0.5500,-0.3000*
1,1,0.2000,-0.5500,0.3000*
1,1,0.2000,0.5500,0.3000*
%
%ADD42ROUNDEDRECTD42*%
%ADD43R,2.2000X0.8000*%
G04:AMPARAMS|DCode=44|XSize=0.6mm|YSize=1mm|CornerRadius=0.075mm|HoleSize=0mm|Usage=FLASHONLY|Rotation=0.000|XOffset=0mm|YOffset=0mm|HoleType=Round|Shape=RoundedRectangle|*
%AMROUNDEDRECTD44*
21,1,0.6000,0.8500,0,0,0.0*
21,1,0.4500,1.0000,0,0,0.0*
1,1,0.1500,0.2250,-0.4250*
1,1,0.1500,-0.2250,-0.4250*
1,1,0.1500,-0.2250,0.4250*
1,1,0.1500,0.2250,0.4250*
%
%ADD44ROUNDEDRECTD44*%
%ADD45R,0.7000X0.7000*%
%ADD46R,0.5500X2.2000*%
%ADD47R,1.5000X0.3500*%
G04:AMPARAMS|DCode=48|XSize=2.6mm|YSize=1.15mm|CornerRadius=0.1438mm|HoleSize=0mm|Usage=FLASHONLY|Rotation=0.000|XOffset=0mm|YOffset=0mm|HoleType=Round|Shape=RoundedRectangle|*
%AMROUNDEDRECTD48*
21,1,2.6000,0.8625,0,0,0.0*
21,1,2.3125,1.1500,0,0,0.0*
1,1,0.2875,1.1563,-0.4313*
1,1,0.2875,-1.1563,-0.4313*
1,1,0.2875,-1.1563,0.4313*
1,1,0.2875,1.1563,0.4313*
%
%ADD48ROUNDEDRECTD48*%
G04:AMPARAMS|DCode=49|XSize=1.8mm|YSize=1.15mm|CornerRadius=0.1438mm|HoleSize=0mm|Usage=FLASHONLY|Rotation=90.000|XOffset=0mm|YOffset=0mm|HoleType=Round|Shape=RoundedRectangle|*
%AMROUNDEDRECTD49*
21,1,1.8000,0.8625,0,0,90.0*
21,1,1.5125,1.1500,0,0,90.0*
1,1,0.2875,0.4313,0.7563*
1,1,0.2875,0.4313,-0.7563*
1,1,0.2875,-0.4313,-0.7563*
1,1,0.2875,-0.4313,0.7563*
%
%ADD49ROUNDEDRECTD49*%
%ADD50R,1.0013X1.5019*%
%ADD51R,1.5000X1.0000*%
%ADD52R,0.8004X1.4006*%
%ADD53R,0.8006X1.5011*%
%ADD54R,1.5018X1.5018*%
%ADD55R,1.5009X1.5009*%
%ADD56R,0.7011X1.7526*%
%ADD57R,0.7007X1.7518*%
%ADD58R,0.7002X1.7504*%
%ADD59R,0.7010X1.7525*%
%ADD60R,0.7009X1.7522*%
%ADD61R,0.7006X1.7516*%
%ADD62R,0.7012X1.7530*%
%ADD63R,0.7002X1.7504*%
%ADD64R,0.6000X1.9500*%
%ADD65R,0.6000X0.3000*%
G04:AMPARAMS|DCode=66|XSize=2.4mm|YSize=2mm|CornerRadius=0.5mm|HoleSize=0mm|Usage=FLASHONLY|Rotation=0.000|XOffset=0mm|YOffset=0mm|HoleType=Round|Shape=RoundedRectangle|*
%AMROUNDEDRECTD66*
21,1,2.4000,1.0000,0,0,0.0*
21,1,1.4000,2.0000,0,0,0.0*
1,1,1.0000,0.7000,-0.5000*
1,1,1.0000,-0.7000,-0.5000*
1,1,1.0000,-0.7000,0.5000*
1,1,1.0000,0.7000,0.5000*
%
%ADD66ROUNDEDRECTD66*%
%ADD67R,0.7000X0.4500*%
%ADD68O,0.9000X0.2500*%
%ADD69O,0.2500X0.9000*%
%ADD70R,2.5000X2.5000*%
%ADD71R,0.3000X0.3500*%
%ADD72R,2.1000X2.1000*%
%ADD73R,0.8500X0.3000*%
%ADD74R,0.3000X0.8500*%
G04:AMPARAMS|DCode=75|XSize=0.31mm|YSize=0.3mm|CornerRadius=0mm|HoleSize=0mm|Usage=FLASHONLY|Rotation=135.000|XOffset=0mm|YOffset=0mm|HoleType=Round|Shape=Rectangle|*
%AMROTATEDRECTD75*
4,1,4,0.2157,-0.0035,0.0035,-0.2157,-0.2157,0.0035,-0.0035,0.2157,0.2157,-0.0035,0.0*
%
%ADD75ROTATEDRECTD75*%

%ADD76R,0.3000X0.3100*%
%ADD77R,7.4000X7.4000*%
%ADD78O,0.3000X0.8500*%
%ADD79O,0.8500X0.3000*%
%ADD80R,1.0000X0.4000*%
%ADD81R,0.8500X0.4000*%
%ADD82R,4.0000X2.0000*%
%ADD83R,4.2500X2.0000*%
%ADD84R,1.6500X0.9000*%
%ADD85R,1.6500X0.7600*%
%ADD86R,0.9000X1.4000*%
%ADD87R,1.2000X1.5000*%
%ADD88R,1.0000X1.3500*%
%ADD89R,1.3500X0.7000*%
%ADD90R,0.7000X1.3500*%
G04:AMPARAMS|DCode=91|XSize=1.4mm|YSize=1.2mm|CornerRadius=0.15mm|HoleSize=0mm|Usage=FLASHONLY|Rotation=180.000|XOffset=0mm|YOffset=0mm|HoleType=Round|Shape=RoundedRectangle|*
%AMROUNDEDRECTD91*
21,1,1.4000,0.9000,0,0,180.0*
21,1,1.1000,1.2000,0,0,180.0*
1,1,0.3000,-0.5500,0.4500*
1,1,0.3000,0.5500,0.4500*
1,1,0.3000,0.5500,-0.4500*
1,1,0.3000,-0.5500,-0.4500*
%
%ADD91ROUNDEDRECTD91*%
%ADD92R,0.4000X0.7000*%
%ADD93R,0.3600X0.4500*%
%ADD94R,0.7500X0.4500*%
%ADD95R,0.2000X0.2000*%
%ADD96C,0.3500*%
%ADD97R,3.8000X1.2000*%
%ADD98R,1.2000X3.8000*%
%ADD99R,1.2000X3.3500*%
%ADD100R,3.8500X1.2000*%
%ADD101C,0.5000*%
%ADD102C,1.6000*%
%ADD103R,3.0000X0.8000*%
G04:AMPARAMS|DCode=104|XSize=0.7mm|YSize=1mm|CornerRadius=0.0875mm|HoleSize=0mm|Usage=FLASHONLY|Rotation=0.000|XOffset=0mm|YOffset=0mm|HoleType=Round|Shape=RoundedRectangle|*
%AMROUNDEDRECTD104*
21,1,0.7000,0.8250,0,0,0.0*
21,1,0.5250,1.0000,0,0,0.0*
1,1,0.1750,0.2625,-0.4125*
1,1,0.1750,-0.2625,-0.4125*
1,1,0.1750,-0.2625,0.4125*
1,1,0.1750,0.2625,0.4125*
%
%ADD104ROUNDEDRECTD104*%
%ADD105R,5.5500X5.5500*%
%ADD106R,0.2000X0.9000*%
%ADD107R,0.9000X0.2000*%
G04:AMPARAMS|DCode=108|XSize=0.5mm|YSize=0.6mm|CornerRadius=0.0625mm|HoleSize=0mm|Usage=FLASHONLY|Rotation=270.000|XOffset=0mm|YOffset=0mm|HoleType=Round|Shape=RoundedRectangle|*
%AMROUNDEDRECTD108*
21,1,0.5000,0.4750,0,0,270.0*
21,1,0.3750,0.6000,0,0,270.0*
1,1,0.1250,-0.2375,-0.1875*
1,1,0.1250,-0.2375,0.1875*
1,1,0.1250,0.2375,0.1875*
1,1,0.1250,0.2375,-0.1875*
%
%ADD108ROUNDEDRECTD108*%
%ADD109R,1.2000X0.7000*%
%ADD110R,0.2500X0.3500*%
%ADD111R,1.6000X2.3500*%
%ADD112R,0.7000X0.3000*%
%ADD113R,1.6000X3.7000*%
%ADD114R,2.3500X1.6000*%
%ADD115R,0.3000X0.7000*%
%ADD217C,1.2000*%
%ADD220C,1.5000*%
%ADD225C,1.9000*%
%ADD235C,1.0000*%
G04:AMPARAMS|DCode=248|XSize=1.524mm|YSize=1.524mm|CornerRadius=0.1905mm|HoleSize=0mm|Usage=FLASHONLY|Rotation=180.000|XOffset=0mm|YOffset=0mm|HoleType=Round|Shape=RoundedRectangle|*
%AMROUNDEDRECTD248*
21,1,1.5240,1.1430,0,0,180.0*
21,1,1.1430,1.5240,0,0,180.0*
1,1,0.3810,-0.5715,0.5715*
1,1,0.3810,0.5715,0.5715*
1,1,0.3810,0.5715,-0.5715*
1,1,0.3810,-0.5715,-0.5715*
%
%ADD248ROUNDEDRECTD248*%
G04:AMPARAMS|DCode=249|XSize=1.6mm|YSize=1.6mm|CornerRadius=0.4mm|HoleSize=0mm|Usage=FLASHONLY|Rotation=0.000|XOffset=0mm|YOffset=0mm|HoleType=Round|Shape=RoundedRectangle|*
%AMROUNDEDRECTD249*
21,1,1.6000,0.8000,0,0,0.0*
21,1,0.8000,1.6000,0,0,0.0*
1,1,0.8000,0.4000,-0.4000*
1,1,0.8000,-0.4000,-0.4000*
1,1,0.8000,-0.4000,0.4000*
1,1,0.8000,0.4000,0.4000*
%
%ADD249ROUNDEDRECTD249*%
%ADD250C,5.0000*%
%ADD251C,0.8000*%
%ADD252C,0.9000*%
%ADD253C,1.1000*%
%ADD254C,1.9500*%
%ADD255C,1.4000*%
%ADD256C,3.3000*%
%ADD257O,5.0000X2.0000*%
%ADD258O,2.2000X5.0000*%
%ADD259O,2.0000X5.0000*%
G04:AMPARAMS|DCode=260|XSize=1.6mm|YSize=1.6mm|CornerRadius=0.4mm|HoleSize=0mm|Usage=FLASHONLY|Rotation=270.000|XOffset=0mm|YOffset=0mm|HoleType=Round|Shape=RoundedRectangle|*
%AMROUNDEDRECTD260*
21,1,1.6000,0.8000,0,0,270.0*
21,1,0.8000,1.6000,0,0,270.0*
1,1,0.8000,-0.4000,-0.4000*
1,1,0.8000,-0.4000,0.4000*
1,1,0.8000,0.4000,0.4000*
1,1,0.8000,0.4000,-0.4000*
%
%ADD260ROUNDEDRECTD260*%
%ADD261C,1.8000*%
G04:AMPARAMS|DCode=262|XSize=1.8mm|YSize=1.8mm|CornerRadius=0.45mm|HoleSize=0mm|Usage=FLASHONLY|Rotation=270.000|XOffset=0mm|YOffset=0mm|HoleType=Round|Shape=RoundedRectangle|*
%AMROUNDEDRECTD262*
21,1,1.8000,0.9000,0,0,270.0*
21,1,0.9000,1.8000,0,0,270.0*
1,1,0.9000,-0.4500,-0.4500*
1,1,0.9000,-0.4500,0.4500*
1,1,0.9000,0.4500,0.4500*
1,1,0.9000,0.4500,-0.4500*
%
%ADD262ROUNDEDRECTD262*%
G04:AMPARAMS|DCode=263|XSize=1.524mm|YSize=1.524mm|CornerRadius=0.1905mm|HoleSize=0mm|Usage=FLASHONLY|Rotation=90.000|XOffset=0mm|YOffset=0mm|HoleType=Round|Shape=RoundedRectangle|*
%AMROUNDEDRECTD263*
21,1,1.5240,1.1430,0,0,90.0*
21,1,1.1430,1.5240,0,0,90.0*
1,1,0.3810,0.5715,0.5715*
1,1,0.3810,0.5715,-0.5715*
1,1,0.3810,-0.5715,-0.5715*
1,1,0.3810,-0.5715,0.5715*
%
%ADD263ROUNDEDRECTD263*%
%ADD264C,2.3000*%
%ADD265C,1.5500*%
%ADD266O,0.9000X1.6000*%
%ADD267C,3.1000*%
D19*
X607000Y253900D02*
D03*
Y263900D02*
D03*
X621000Y279500D02*
D03*
Y269500D02*
D03*
X620750Y140250D02*
D03*
Y150250D02*
D03*
X661500Y131250D02*
D03*
Y121250D02*
D03*
X662750Y87500D02*
D03*
Y97500D02*
D03*
X623250Y87500D02*
D03*
Y97500D02*
D03*
X56250Y303950D02*
D03*
Y293950D02*
D03*
X307750Y465578D02*
D03*
Y455578D02*
D03*
X322200Y1108000D02*
D03*
Y1118000D02*
D03*
X354250Y927500D02*
D03*
Y917500D02*
D03*
X344250Y949500D02*
D03*
Y959500D02*
D03*
X325125Y965500D02*
D03*
Y975500D02*
D03*
X354250Y959500D02*
D03*
Y949500D02*
D03*
X409750Y979000D02*
D03*
Y989000D02*
D03*
Y1010000D02*
D03*
Y1000000D02*
D03*
X397875Y1032000D02*
D03*
Y1022000D02*
D03*
X311125Y1043000D02*
D03*
Y1053000D02*
D03*
X366375Y1053250D02*
D03*
Y1043250D02*
D03*
X376875Y1043250D02*
D03*
Y1033250D02*
D03*
X321625Y1064000D02*
D03*
Y1074000D02*
D03*
X331625Y1064000D02*
D03*
Y1074000D02*
D03*
X390625Y1074000D02*
D03*
Y1064000D02*
D03*
X400625Y1074000D02*
D03*
Y1064000D02*
D03*
X410625D02*
D03*
Y1074000D02*
D03*
X310625Y1086500D02*
D03*
Y1096500D02*
D03*
X320625D02*
D03*
Y1086500D02*
D03*
X312250Y1108000D02*
D03*
Y1118000D02*
D03*
X438250Y1052500D02*
D03*
Y1062500D02*
D03*
X375000Y1139750D02*
D03*
Y1129750D02*
D03*
X222500Y1414500D02*
D03*
Y1404500D02*
D03*
X304360Y922750D02*
D03*
Y912750D02*
D03*
X279500Y1201250D02*
D03*
Y1191250D02*
D03*
X269500D02*
D03*
Y1201250D02*
D03*
X259500Y1191250D02*
D03*
Y1201250D02*
D03*
X216000Y1151750D02*
D03*
Y1161750D02*
D03*
X247000D02*
D03*
Y1151750D02*
D03*
X232000Y1182750D02*
D03*
Y1172750D02*
D03*
X242000D02*
D03*
Y1182750D02*
D03*
X495764Y124494D02*
D03*
Y114494D02*
D03*
X526764Y114494D02*
D03*
Y124494D02*
D03*
X495610Y77738D02*
D03*
Y67738D02*
D03*
X526610Y67738D02*
D03*
Y77738D02*
D03*
X515809Y305528D02*
D03*
Y295528D02*
D03*
X484883Y305528D02*
D03*
Y295528D02*
D03*
X483883Y259778D02*
D03*
Y249778D02*
D03*
X430150Y1119000D02*
D03*
Y1129000D02*
D03*
X476750Y1416250D02*
D03*
Y1406250D02*
D03*
X162970Y1304250D02*
D03*
Y1294250D02*
D03*
X346200Y1360200D02*
D03*
Y1370200D02*
D03*
X418200Y1360200D02*
D03*
Y1370200D02*
D03*
X286250Y412000D02*
D03*
Y422000D02*
D03*
X725500Y367000D02*
D03*
Y377000D02*
D03*
X599500Y88750D02*
D03*
Y98750D02*
D03*
X592500Y62500D02*
D03*
Y72500D02*
D03*
X635532Y211805D02*
D03*
Y201805D02*
D03*
X579000Y277000D02*
D03*
Y287000D02*
D03*
X612771Y98750D02*
D03*
Y88750D02*
D03*
X597000Y291250D02*
D03*
Y281250D02*
D03*
X590250Y228250D02*
D03*
Y238250D02*
D03*
X578812Y246250D02*
D03*
Y236250D02*
D03*
X449250Y501000D02*
D03*
Y491000D02*
D03*
X307750Y503500D02*
D03*
Y513500D02*
D03*
X192796Y1083640D02*
D03*
Y1073640D02*
D03*
X268000Y1070750D02*
D03*
Y1060750D02*
D03*
X108350Y1185100D02*
D03*
Y1175100D02*
D03*
X192650Y1207050D02*
D03*
Y1217050D02*
D03*
X195500Y535000D02*
D03*
Y545000D02*
D03*
D20*
X640700Y304500D02*
D03*
X650700D02*
D03*
X640750Y294500D02*
D03*
X650750D02*
D03*
X645500Y248750D02*
D03*
X655500D02*
D03*
X621000Y319500D02*
D03*
X611000D02*
D03*
X508750Y502250D02*
D03*
X498750D02*
D03*
X508750Y492250D02*
D03*
X498750D02*
D03*
X213720Y1281250D02*
D03*
X203720D02*
D03*
X683750Y466750D02*
D03*
X693750D02*
D03*
X375250Y938500D02*
D03*
X385250D02*
D03*
X367000Y949000D02*
D03*
X377000D02*
D03*
X399375Y955125D02*
D03*
X389375D02*
D03*
X399375Y965125D02*
D03*
X389375D02*
D03*
X310375Y992500D02*
D03*
X320375D02*
D03*
X304500Y982500D02*
D03*
X314500D02*
D03*
X399375Y978375D02*
D03*
X389375D02*
D03*
X315375Y1002500D02*
D03*
X325375D02*
D03*
X399250Y1010250D02*
D03*
X389250D02*
D03*
X355376Y1022000D02*
D03*
X365376D02*
D03*
X376875Y1053750D02*
D03*
X386875D02*
D03*
X402875Y1085000D02*
D03*
X392875D02*
D03*
X395500Y1144500D02*
D03*
X385500D02*
D03*
X580500Y888500D02*
D03*
X590500D02*
D03*
X569500D02*
D03*
X559500D02*
D03*
X538500D02*
D03*
X548500D02*
D03*
X527500D02*
D03*
X517500D02*
D03*
X222610Y979500D02*
D03*
X232610D02*
D03*
X222610Y989500D02*
D03*
X232610D02*
D03*
X278860Y965000D02*
D03*
X288860D02*
D03*
X278860Y955000D02*
D03*
X288860D02*
D03*
X239000Y1128250D02*
D03*
X229000D02*
D03*
X506264Y114494D02*
D03*
X516264D02*
D03*
X516264Y124494D02*
D03*
X506264D02*
D03*
X516110Y77738D02*
D03*
X506110D02*
D03*
Y67738D02*
D03*
X516110D02*
D03*
X505309Y295528D02*
D03*
X495309D02*
D03*
X505309Y305528D02*
D03*
X495309D02*
D03*
X504309Y249778D02*
D03*
X494309D02*
D03*
X504309Y259778D02*
D03*
X494309D02*
D03*
X623500Y951750D02*
D03*
X633500D02*
D03*
X623500Y975500D02*
D03*
X633500D02*
D03*
X637282Y1195750D02*
D03*
X647282D02*
D03*
X648282Y1175250D02*
D03*
X658282D02*
D03*
X606500Y672750D02*
D03*
X616500D02*
D03*
X163750Y1335750D02*
D03*
X173750D02*
D03*
X213720Y1291250D02*
D03*
X203720D02*
D03*
X655000Y1123250D02*
D03*
X645000D02*
D03*
Y1113250D02*
D03*
X655000D02*
D03*
X645000Y1103250D02*
D03*
X655000Y1103250D02*
D03*
X641250Y161250D02*
D03*
X631250D02*
D03*
X635000Y62500D02*
D03*
X625000D02*
D03*
X75000Y1350750D02*
D03*
X85000D02*
D03*
X220200Y1247500D02*
D03*
X210200D02*
D03*
X156450Y1282000D02*
D03*
X146450D02*
D03*
X177600Y1272900D02*
D03*
X187600D02*
D03*
X241770Y633500D02*
D03*
X231770D02*
D03*
X252250Y1335000D02*
D03*
X262250D02*
D03*
X237750Y1356000D02*
D03*
X247750D02*
D03*
X188250Y1364750D02*
D03*
X198250D02*
D03*
X69500Y344500D02*
D03*
X59500D02*
D03*
X142680Y1100750D02*
D03*
X132680D02*
D03*
X142500Y1031500D02*
D03*
X152500D02*
D03*
D21*
X638500Y97500D02*
D03*
X643500D02*
D03*
X648500D02*
D03*
Y77500D02*
D03*
X643500D02*
D03*
X638500D02*
D03*
X636250Y147750D02*
D03*
X641250D02*
D03*
X646250D02*
D03*
Y127750D02*
D03*
X641250D02*
D03*
X636250D02*
D03*
X626000Y289500D02*
D03*
X621000D02*
D03*
X616000D02*
D03*
Y309500D02*
D03*
X621000D02*
D03*
X626000D02*
D03*
X621000Y258750D02*
D03*
X626000D02*
D03*
X631000D02*
D03*
Y238750D02*
D03*
X626000D02*
D03*
X621000D02*
D03*
D22*
X653500Y92500D02*
D03*
Y87500D02*
D03*
Y82500D02*
D03*
X633500D02*
D03*
Y87500D02*
D03*
Y92500D02*
D03*
X631250Y132750D02*
D03*
Y137750D02*
D03*
Y142750D02*
D03*
X651250D02*
D03*
Y137750D02*
D03*
Y132750D02*
D03*
X631000Y304500D02*
D03*
Y299500D02*
D03*
Y294500D02*
D03*
X611000D02*
D03*
Y299500D02*
D03*
Y304500D02*
D03*
X616000Y243750D02*
D03*
Y248750D02*
D03*
Y253750D02*
D03*
X636000D02*
D03*
Y248750D02*
D03*
Y243750D02*
D03*
D23*
X643500Y87500D02*
D03*
D24*
X641250Y137750D02*
D03*
X621000Y299500D02*
D03*
X626000Y248750D02*
D03*
D25*
X66750Y303950D02*
D03*
Y293950D02*
D03*
X74250Y282950D02*
D03*
Y272950D02*
D03*
X85250D02*
D03*
Y282950D02*
D03*
X329375Y469750D02*
D03*
Y459750D02*
D03*
X415750Y492250D02*
D03*
Y482250D02*
D03*
X318250Y459750D02*
D03*
Y469750D02*
D03*
X384500Y762750D02*
D03*
Y772750D02*
D03*
X387375Y1033250D02*
D03*
Y1043250D02*
D03*
X300625Y1053000D02*
D03*
Y1043000D02*
D03*
X321625Y1043000D02*
D03*
Y1053000D02*
D03*
X300000Y1074000D02*
D03*
Y1064000D02*
D03*
X311125Y1074000D02*
D03*
Y1064000D02*
D03*
X331125Y1086500D02*
D03*
Y1096500D02*
D03*
X413875Y1095000D02*
D03*
Y1085000D02*
D03*
X353625Y1127250D02*
D03*
Y1117250D02*
D03*
X364625Y1127250D02*
D03*
Y1117250D02*
D03*
X385500Y1124000D02*
D03*
Y1134000D02*
D03*
X364500Y1148000D02*
D03*
Y1138000D02*
D03*
X624532Y211805D02*
D03*
Y201805D02*
D03*
X588250Y175500D02*
D03*
Y165500D02*
D03*
X620250Y171250D02*
D03*
Y161250D02*
D03*
X485184Y124494D02*
D03*
Y134494D02*
D03*
X485111Y114488D02*
D03*
Y104488D02*
D03*
X485110Y67738D02*
D03*
Y57738D02*
D03*
Y77738D02*
D03*
Y87738D02*
D03*
X515309Y259778D02*
D03*
Y249778D02*
D03*
X233000Y1414500D02*
D03*
Y1404500D02*
D03*
X501000Y960500D02*
D03*
Y950500D02*
D03*
X321250Y887500D02*
D03*
X321250Y877500D02*
D03*
X232610Y1000000D02*
D03*
Y1010000D02*
D03*
X288860Y1006500D02*
D03*
X288860Y996500D02*
D03*
X321250Y897500D02*
D03*
Y887500D02*
D03*
X288860Y985500D02*
D03*
Y975500D02*
D03*
X661250Y975250D02*
D03*
Y985250D02*
D03*
X221500Y1183750D02*
D03*
Y1193750D02*
D03*
X218000Y1115250D02*
D03*
Y1105250D02*
D03*
X424650Y1108000D02*
D03*
X424650Y1098000D02*
D03*
X419150Y1119000D02*
D03*
X419150Y1129000D02*
D03*
X343500Y877500D02*
D03*
Y887500D02*
D03*
X173470Y1304250D02*
D03*
Y1294250D02*
D03*
X658282Y1185750D02*
D03*
Y1195750D02*
D03*
X659281Y1153750D02*
D03*
Y1143750D02*
D03*
X606250Y683250D02*
D03*
Y693250D02*
D03*
X174000Y552250D02*
D03*
Y542250D02*
D03*
X185000Y535000D02*
D03*
Y545000D02*
D03*
X307000Y492500D02*
D03*
Y482500D02*
D03*
X150850Y1187600D02*
D03*
Y1177600D02*
D03*
X366700Y1390700D02*
D03*
Y1380700D02*
D03*
X519750Y502750D02*
D03*
Y492750D02*
D03*
X74071Y1330250D02*
D03*
Y1340250D02*
D03*
X85071D02*
D03*
Y1330250D02*
D03*
X257500Y1060750D02*
D03*
Y1070750D02*
D03*
Y1091750D02*
D03*
Y1081750D02*
D03*
X139850Y1177600D02*
D03*
Y1187600D02*
D03*
X430250Y434250D02*
D03*
Y444250D02*
D03*
X480750Y501600D02*
D03*
Y491600D02*
D03*
X426750Y492250D02*
D03*
Y482250D02*
D03*
X404640Y494000D02*
D03*
X404640Y484000D02*
D03*
X69500Y334000D02*
D03*
Y324000D02*
D03*
X13750Y289750D02*
D03*
Y279750D02*
D03*
X121680Y1100250D02*
D03*
Y1090250D02*
D03*
D26*
X56250Y247750D02*
D03*
X73250D02*
D03*
X319000Y438000D02*
D03*
X336000D02*
D03*
X391599Y491250D02*
D03*
X374599D02*
D03*
X425250Y419553D02*
D03*
X408250D02*
D03*
X563750Y488000D02*
D03*
X580750D02*
D03*
X461500Y667000D02*
D03*
X478500D02*
D03*
X486250Y681292D02*
D03*
X503250D02*
D03*
X323861Y424500D02*
D03*
X340861D02*
D03*
X599250Y614750D02*
D03*
X616250D02*
D03*
X358700Y1347700D02*
D03*
X341700Y1347700D02*
D03*
X662000Y1089250D02*
D03*
X645000D02*
D03*
D27*
X30250Y276750D02*
D03*
Y259750D02*
D03*
X526250Y437750D02*
D03*
Y420750D02*
D03*
X667750Y424750D02*
D03*
Y441750D02*
D03*
X329000Y499000D02*
D03*
Y482000D02*
D03*
X341740Y468620D02*
D03*
Y485620D02*
D03*
X454000Y1416250D02*
D03*
Y1399250D02*
D03*
X287970Y650500D02*
D03*
Y633500D02*
D03*
X430450Y1377200D02*
D03*
Y1360200D02*
D03*
X96800Y1186650D02*
D03*
Y1169650D02*
D03*
X275970Y590500D02*
D03*
Y607500D02*
D03*
X297250Y406000D02*
D03*
Y423000D02*
D03*
D28*
X62750Y279000D02*
D03*
X56250D02*
D03*
X49750D02*
D03*
X43250D02*
D03*
Y260000D02*
D03*
X49750D02*
D03*
X56250D02*
D03*
X62750D02*
D03*
D29*
X53000Y269500D02*
D03*
D30*
X397500Y1349750D02*
D03*
X387500D02*
D03*
X354250Y906500D02*
D03*
X364250D02*
D03*
X354250Y895500D02*
D03*
X364250D02*
D03*
X364250Y938500D02*
D03*
X354250D02*
D03*
X377000Y959500D02*
D03*
X367000D02*
D03*
X399250Y989000D02*
D03*
X389250D02*
D03*
X399250Y1000000D02*
D03*
X389250D02*
D03*
X342700Y1118000D02*
D03*
X332700D02*
D03*
X614282Y219555D02*
D03*
X604282D02*
D03*
X582532Y195055D02*
D03*
X592532D02*
D03*
X610000Y143500D02*
D03*
X600000D02*
D03*
X137000Y162000D02*
D03*
X147000D02*
D03*
X137000Y151000D02*
D03*
X147000D02*
D03*
X569500Y878000D02*
D03*
X559500D02*
D03*
X580500D02*
D03*
X590500D02*
D03*
X527500D02*
D03*
X517500D02*
D03*
X538500D02*
D03*
X548500D02*
D03*
X599000Y903500D02*
D03*
X589000D02*
D03*
X489750Y950500D02*
D03*
X479750D02*
D03*
X212720Y250500D02*
D03*
X222720D02*
D03*
X222610Y969000D02*
D03*
X232610Y969000D02*
D03*
X321250Y887500D02*
D03*
X311250D02*
D03*
X226500Y1161750D02*
D03*
X236500D02*
D03*
X195500Y1161750D02*
D03*
X205500D02*
D03*
X200000Y1183750D02*
D03*
X190000D02*
D03*
X221500Y1172750D02*
D03*
X211500D02*
D03*
X229000Y1115250D02*
D03*
X239000D02*
D03*
X283000Y1110750D02*
D03*
X293000D02*
D03*
X283000Y1121750D02*
D03*
X293000D02*
D03*
X283000Y1132750D02*
D03*
X293000D02*
D03*
X137000Y118000D02*
D03*
X147000D02*
D03*
X528750Y909000D02*
D03*
X518750D02*
D03*
X74750Y902000D02*
D03*
X64750D02*
D03*
X476250Y1395250D02*
D03*
X466250D02*
D03*
X476250Y1384250D02*
D03*
X466250D02*
D03*
X476250Y1373250D02*
D03*
X466250D02*
D03*
X476250Y1362250D02*
D03*
X466250D02*
D03*
X476250Y1351250D02*
D03*
X466250D02*
D03*
X476250Y1340250D02*
D03*
X466250D02*
D03*
X30250Y544125D02*
D03*
X20250D02*
D03*
X163750Y1325250D02*
D03*
X173750D02*
D03*
X111500Y1314850D02*
D03*
X121500Y1314850D02*
D03*
X184470Y1304250D02*
D03*
X194470D02*
D03*
X638282Y1153750D02*
D03*
X648282Y1153750D02*
D03*
X658282Y1164750D02*
D03*
X648282D02*
D03*
X184470Y1315250D02*
D03*
X194470D02*
D03*
X262770Y655000D02*
D03*
X252770D02*
D03*
X141250Y40000D02*
D03*
X151250D02*
D03*
X241770Y644000D02*
D03*
X231770D02*
D03*
X133750Y1282000D02*
D03*
X123750D02*
D03*
X387950Y1390450D02*
D03*
X397950D02*
D03*
X174000Y531000D02*
D03*
X164000D02*
D03*
X250500Y536000D02*
D03*
X240500D02*
D03*
X150350Y1198600D02*
D03*
X140350D02*
D03*
X356700Y1369700D02*
D03*
X366700D02*
D03*
X112500Y529640D02*
D03*
X122500D02*
D03*
X112250Y1344250D02*
D03*
X102250D02*
D03*
X715000Y377000D02*
D03*
X705000D02*
D03*
X205750Y105250D02*
D03*
X195750D02*
D03*
X205750Y116250D02*
D03*
X195750D02*
D03*
X205750Y94250D02*
D03*
X195750D02*
D03*
X435650Y1140000D02*
D03*
X445650D02*
D03*
X448750Y512600D02*
D03*
X458750D02*
D03*
X101500Y529640D02*
D03*
X91500D02*
D03*
X101500Y540750D02*
D03*
X91500D02*
D03*
X101500Y518640D02*
D03*
X91500D02*
D03*
X101500Y507530D02*
D03*
X91500D02*
D03*
X323871Y408000D02*
D03*
X313871D02*
D03*
X435650Y1151000D02*
D03*
X445650D02*
D03*
X147000Y140000D02*
D03*
X137000D02*
D03*
X147000Y129000D02*
D03*
X137000D02*
D03*
X59250Y1355000D02*
D03*
X49250D02*
D03*
X459750Y501600D02*
D03*
X469750D02*
D03*
X479750Y512600D02*
D03*
X469750D02*
D03*
X508750Y512750D02*
D03*
X498750D02*
D03*
X476383Y1325133D02*
D03*
X466383D02*
D03*
X645000Y1133750D02*
D03*
X635000D02*
D03*
X13750Y300750D02*
D03*
X23750D02*
D03*
X31000Y1353250D02*
D03*
X21000D02*
D03*
X142680Y1090250D02*
D03*
X132680D02*
D03*
X122500Y518640D02*
D03*
X112500Y518640D02*
D03*
D31*
X545000Y443036D02*
D03*
Y410036D02*
D03*
X567012Y655000D02*
D03*
Y688000D02*
D03*
X507500Y408500D02*
D03*
Y441500D02*
D03*
D32*
X596500Y410000D02*
D03*
X563500D02*
D03*
D33*
X492750Y819500D02*
D03*
X542750D02*
D03*
X492750Y794500D02*
D03*
X542750D02*
D03*
X528309Y705250D02*
D03*
X478309D02*
D03*
X528309Y730250D02*
D03*
X478309D02*
D03*
D34*
X350000Y519550D02*
D03*
X350000Y532250D02*
D03*
X413000D02*
D03*
Y519550D02*
D03*
D35*
X649500Y458000D02*
D03*
Y486000D02*
D03*
D36*
X691500Y568250D02*
D03*
X720500D02*
D03*
D37*
X693750Y506250D02*
D03*
Y546250D02*
D03*
D38*
X588500Y636250D02*
D03*
X628500D02*
D03*
D39*
X521500Y612250D02*
D03*
Y553250D02*
D03*
X436300Y612250D02*
D03*
Y553250D02*
D03*
D40*
X684750Y612750D02*
D03*
Y603250D02*
D03*
X658750Y622250D02*
D03*
Y612750D02*
D03*
Y603250D02*
D03*
X684750Y622250D02*
D03*
X493750Y463500D02*
D03*
X519750Y482500D02*
D03*
Y473000D02*
D03*
X519750Y463500D02*
D03*
X493750Y482500D02*
D03*
X380200Y1369700D02*
D03*
Y1379200D02*
D03*
X406200Y1360200D02*
D03*
Y1369700D02*
D03*
Y1379200D02*
D03*
X380200Y1360200D02*
D03*
D41*
X454452Y681750D02*
D03*
X474452D02*
D03*
X249250Y1288500D02*
D03*
X229250D02*
D03*
X420500Y1416250D02*
D03*
X440500D02*
D03*
X454879Y58255D02*
D03*
X474879D02*
D03*
X454879Y87255D02*
D03*
X474879D02*
D03*
X290500Y1191250D02*
D03*
X310500D02*
D03*
X271750Y316750D02*
D03*
X251750D02*
D03*
X240000Y1038000D02*
D03*
X220000D02*
D03*
X553806Y645625D02*
D03*
X533806D02*
D03*
D42*
X507733Y645500D02*
D03*
Y665500D02*
D03*
X550500Y488250D02*
D03*
Y468250D02*
D03*
X569250Y617750D02*
D03*
Y637750D02*
D03*
X416750Y1022000D02*
D03*
Y1042000D02*
D03*
X309750Y970250D02*
D03*
Y950250D02*
D03*
X260860Y1010250D02*
D03*
Y1030250D02*
D03*
X199296Y1057640D02*
D03*
Y1037640D02*
D03*
X645000Y1055500D02*
D03*
Y1075500D02*
D03*
X134750Y1000500D02*
D03*
Y1020500D02*
D03*
D43*
X673906Y724000D02*
D03*
X638906D02*
D03*
D44*
X454500Y464250D02*
D03*
X473500D02*
D03*
X464000Y487250D02*
D03*
X46750Y343250D02*
D03*
X56250Y320250D02*
D03*
X37250Y320250D02*
D03*
D45*
X624600Y427400D02*
D03*
Y440100D02*
D03*
X624600Y452800D02*
D03*
X624600Y465500D02*
D03*
X570500Y427400D02*
D03*
Y440100D02*
D03*
Y452800D02*
D03*
Y465500D02*
D03*
D46*
X741050Y638750D02*
D03*
X728350D02*
D03*
X715650D02*
D03*
X702950D02*
D03*
X741050Y590750D02*
D03*
X728350Y590750D02*
D03*
X715650D02*
D03*
X702950Y590750D02*
D03*
D47*
X356790Y470360D02*
D03*
Y463860D02*
D03*
Y457360D02*
D03*
Y450860D02*
D03*
Y444360D02*
D03*
Y437860D02*
D03*
Y431360D02*
D03*
X415790Y431360D02*
D03*
Y470360D02*
D03*
Y463860D02*
D03*
Y457360D02*
D03*
Y450860D02*
D03*
Y444360D02*
D03*
Y437860D02*
D03*
D48*
X601750Y486250D02*
D03*
Y516250D02*
D03*
X631500Y503000D02*
D03*
Y533000D02*
D03*
X646750Y440450D02*
D03*
Y410450D02*
D03*
D49*
X623750Y593000D02*
D03*
X593750D02*
D03*
X641250Y586000D02*
D03*
X671250D02*
D03*
X169350Y1379500D02*
D03*
X139350Y1379500D02*
D03*
X120063Y1299500D02*
D03*
X150063Y1299500D02*
D03*
X341450Y1330450D02*
D03*
X371450D02*
D03*
D50*
X522750Y1298000D02*
D03*
D51*
X634700Y1314000D02*
D03*
D52*
X518750Y1322500D02*
D03*
D53*
X638250Y1329000D02*
D03*
D54*
X522000Y1405000D02*
D03*
D55*
X636500D02*
D03*
D56*
X623500Y1406250D02*
D03*
D57*
X612500D02*
D03*
D58*
X601500D02*
D03*
D59*
X590500D02*
D03*
D60*
X579500D02*
D03*
D61*
X568500D02*
D03*
D62*
X557500D02*
D03*
D63*
X546500D02*
D03*
D64*
X266220Y630250D02*
D03*
D65*
X275720Y640000D02*
D03*
Y633500D02*
D03*
Y627000D02*
D03*
Y620500D02*
D03*
X256720D02*
D03*
Y627000D02*
D03*
Y633500D02*
D03*
Y640000D02*
D03*
D66*
X431000Y647000D02*
D03*
X471000D02*
D03*
D67*
X223720Y1303250D02*
D03*
Y1309750D02*
D03*
Y1316250D02*
D03*
X204720Y1316250D02*
D03*
Y1309750D02*
D03*
Y1303250D02*
D03*
D68*
X376000Y979500D02*
D03*
Y984500D02*
D03*
Y989500D02*
D03*
Y994500D02*
D03*
Y999500D02*
D03*
Y1004500D02*
D03*
X337500D02*
D03*
Y999500D02*
D03*
Y994500D02*
D03*
Y989500D02*
D03*
Y984500D02*
D03*
Y979500D02*
D03*
D69*
X369250Y1011250D02*
D03*
X364250D02*
D03*
X359250D02*
D03*
X354250D02*
D03*
X349250D02*
D03*
X344250D02*
D03*
Y972750D02*
D03*
X349250D02*
D03*
X354250D02*
D03*
X359250D02*
D03*
X364250D02*
D03*
X369250D02*
D03*
D70*
X356750Y992000D02*
D03*
D71*
X420200Y1074000D02*
D03*
X425800D02*
D03*
X301100Y446750D02*
D03*
X295500D02*
D03*
D72*
X361375Y1085000D02*
D03*
D73*
X342375Y1075000D02*
D03*
Y1080000D02*
D03*
Y1085000D02*
D03*
Y1090000D02*
D03*
Y1095000D02*
D03*
X380375D02*
D03*
Y1090000D02*
D03*
Y1085000D02*
D03*
Y1080000D02*
D03*
Y1075000D02*
D03*
D74*
X351375Y1105500D02*
D03*
X356375D02*
D03*
X361375D02*
D03*
X366375D02*
D03*
X371375D02*
D03*
Y1064500D02*
D03*
X366375D02*
D03*
X361375D02*
D03*
X356375D02*
D03*
X351375D02*
D03*
D75*
X699250Y249750D02*
D03*
X696068Y252932D02*
D03*
D76*
X697500Y1165250D02*
D03*
Y1160750D02*
D03*
X692000Y114750D02*
D03*
Y119250D02*
D03*
X697500Y1310750D02*
D03*
Y1315250D02*
D03*
D77*
X566500Y968000D02*
D03*
D78*
X604000Y923500D02*
D03*
X599000D02*
D03*
X594000D02*
D03*
X589000D02*
D03*
X584000D02*
D03*
X579000D02*
D03*
X574000D02*
D03*
X569000D02*
D03*
X564000D02*
D03*
X559000D02*
D03*
X554000D02*
D03*
X549000D02*
D03*
X544000D02*
D03*
X539000D02*
D03*
X534000D02*
D03*
X529000D02*
D03*
Y1012500D02*
D03*
X534000D02*
D03*
X539000D02*
D03*
X544000D02*
D03*
X549000D02*
D03*
X554000D02*
D03*
X559000D02*
D03*
X564000D02*
D03*
X569000D02*
D03*
X574000D02*
D03*
X579000D02*
D03*
X584000D02*
D03*
X589000D02*
D03*
X594000D02*
D03*
X599000D02*
D03*
X604000D02*
D03*
D79*
X522000Y930500D02*
D03*
Y935500D02*
D03*
Y940500D02*
D03*
Y945500D02*
D03*
Y950500D02*
D03*
Y955500D02*
D03*
Y960500D02*
D03*
Y965500D02*
D03*
Y970500D02*
D03*
Y975500D02*
D03*
Y980500D02*
D03*
Y985500D02*
D03*
Y990500D02*
D03*
Y995500D02*
D03*
Y1000500D02*
D03*
Y1005500D02*
D03*
X611000D02*
D03*
Y1000500D02*
D03*
Y995500D02*
D03*
Y990500D02*
D03*
Y985500D02*
D03*
Y980500D02*
D03*
Y975500D02*
D03*
Y970500D02*
D03*
Y965500D02*
D03*
Y960500D02*
D03*
Y955500D02*
D03*
Y950500D02*
D03*
Y945500D02*
D03*
Y940500D02*
D03*
Y935500D02*
D03*
Y930500D02*
D03*
D80*
X259500Y1179250D02*
D03*
Y1172750D02*
D03*
Y1166250D02*
D03*
X284500D02*
D03*
Y1172750D02*
D03*
Y1179250D02*
D03*
Y1159750D02*
D03*
X259500D02*
D03*
D81*
X251500Y1115250D02*
D03*
Y1121750D02*
D03*
Y1128250D02*
D03*
X270500D02*
D03*
X270500Y1121750D02*
D03*
X270500Y1115250D02*
D03*
D82*
X727000Y1192950D02*
D03*
Y1137550D02*
D03*
Y892950D02*
D03*
Y837550D02*
D03*
Y1042950D02*
D03*
Y987550D02*
D03*
Y142450D02*
D03*
Y87050D02*
D03*
Y237050D02*
D03*
Y292450D02*
D03*
Y1287550D02*
D03*
Y1342950D02*
D03*
D83*
X726000Y1165250D02*
D03*
Y865250D02*
D03*
Y1015250D02*
D03*
Y114750D02*
D03*
Y264750D02*
D03*
Y1315250D02*
D03*
D84*
X540614Y132944D02*
D03*
Y106044D02*
D03*
X572414D02*
D03*
Y132944D02*
D03*
X540710Y86188D02*
D03*
Y59288D02*
D03*
X572510D02*
D03*
Y86188D02*
D03*
X530909Y313978D02*
D03*
Y287078D02*
D03*
X562709D02*
D03*
Y313978D02*
D03*
X530909Y262978D02*
D03*
Y236078D02*
D03*
X562709D02*
D03*
Y262978D02*
D03*
D85*
X572414Y119494D02*
D03*
X572510Y72738D02*
D03*
X562709Y300528D02*
D03*
Y249528D02*
D03*
D86*
X222500Y952750D02*
D03*
X222500Y888750D02*
D03*
D87*
X244500Y945250D02*
D03*
X244500Y893250D02*
D03*
X200500D02*
D03*
X200500Y945250D02*
D03*
X244500Y945250D02*
D03*
X244500Y893250D02*
D03*
X200500D02*
D03*
X200500Y945250D02*
D03*
D88*
X265860Y938000D02*
D03*
X265860Y899500D02*
D03*
X288860Y899500D02*
D03*
Y938000D02*
D03*
D89*
X267610Y924750D02*
D03*
Y912750D02*
D03*
X287110Y912750D02*
D03*
X287110Y924750D02*
D03*
D90*
X277360Y899500D02*
D03*
X277360Y938000D02*
D03*
D91*
X642000Y895000D02*
D03*
X620000Y895000D02*
D03*
Y878000D02*
D03*
X642000D02*
D03*
D92*
X609282Y201805D02*
D03*
X605000Y161250D02*
D03*
D93*
X603532Y201805D02*
D03*
X609282Y209555D02*
D03*
X615032Y201805D02*
D03*
Y194055D02*
D03*
X609282D02*
D03*
X603532D02*
D03*
Y209555D02*
D03*
X615032D02*
D03*
X609282Y208554D02*
D03*
X614282Y201805D02*
D03*
X614282Y195055D02*
D03*
X609282Y195055D02*
D03*
X604282Y195055D02*
D03*
Y208554D02*
D03*
X614282Y208554D02*
D03*
X599250Y161250D02*
D03*
X605000Y169000D02*
D03*
X610750Y161250D02*
D03*
Y153500D02*
D03*
X605000D02*
D03*
X599250D02*
D03*
Y169000D02*
D03*
X610750D02*
D03*
X605000Y168000D02*
D03*
X610000Y161250D02*
D03*
Y154500D02*
D03*
X605000D02*
D03*
X600000D02*
D03*
Y168000D02*
D03*
X610000D02*
D03*
D94*
X606282Y201805D02*
D03*
X602000Y161250D02*
D03*
D95*
X410970Y185188D02*
D03*
D96*
X449370Y240428D02*
D03*
X452700Y237098D02*
D03*
X456030Y233768D02*
D03*
X459360Y230438D02*
D03*
X462690Y227108D02*
D03*
X466020Y223778D02*
D03*
X462690Y220448D02*
D03*
X459360Y223778D02*
D03*
X452700Y230438D02*
D03*
X456030Y227108D02*
D03*
X446040Y237098D02*
D03*
X449370Y233768D02*
D03*
X446040Y230438D02*
D03*
X442710Y233768D02*
D03*
X452700Y223778D02*
D03*
X449370Y227108D02*
D03*
X456030Y220448D02*
D03*
X459360Y217118D02*
D03*
X442710Y227108D02*
D03*
X439380Y230438D02*
D03*
X446040Y223778D02*
D03*
X456030Y213788D02*
D03*
X452700Y217118D02*
D03*
X432720Y237098D02*
D03*
X436050Y233768D02*
D03*
Y240428D02*
D03*
X439380Y237098D02*
D03*
X462690Y207128D02*
D03*
X459360Y210458D02*
D03*
X466020D02*
D03*
X462690Y213788D02*
D03*
X456030Y207128D02*
D03*
X459360Y203798D02*
D03*
X449370Y213788D02*
D03*
X452700Y210458D02*
D03*
X436050Y227108D02*
D03*
X439380Y223778D02*
D03*
X429390Y233768D02*
D03*
X432720Y230438D02*
D03*
X429390Y227108D02*
D03*
X426060Y230438D02*
D03*
X432720Y223778D02*
D03*
X426060D02*
D03*
X422730Y227108D02*
D03*
X419400Y223778D02*
D03*
X466020Y197138D02*
D03*
X462690Y200468D02*
D03*
X459360Y197138D02*
D03*
X462690Y193808D02*
D03*
X449370Y207128D02*
D03*
X456030Y200468D02*
D03*
X452700Y203798D02*
D03*
X462690Y187148D02*
D03*
X466020Y183818D02*
D03*
X452700Y197138D02*
D03*
X449370Y200468D02*
D03*
X459360Y190478D02*
D03*
X456030Y193808D02*
D03*
X449370Y193808D02*
D03*
X459360Y183818D02*
D03*
X456030Y187148D02*
D03*
Y180488D02*
D03*
X459360Y177158D02*
D03*
X449370Y187148D02*
D03*
X452700Y183818D02*
D03*
X466020Y170498D02*
D03*
X462690Y173828D02*
D03*
X456030D02*
D03*
X459360Y170498D02*
D03*
X449370Y180488D02*
D03*
X452700Y177158D02*
D03*
X462690Y167168D02*
D03*
X456030D02*
D03*
X459360Y163838D02*
D03*
X466020Y157178D02*
D03*
X462690Y160508D02*
D03*
X456030D02*
D03*
X459360Y157178D02*
D03*
X449370Y167168D02*
D03*
X452700Y163838D02*
D03*
X466020Y150518D02*
D03*
X462690Y153848D02*
D03*
X459360Y150518D02*
D03*
X449370Y160508D02*
D03*
X452700Y157178D02*
D03*
X459360Y143858D02*
D03*
X449370Y153848D02*
D03*
X452700Y150518D02*
D03*
X466020Y137198D02*
D03*
X462690Y140528D02*
D03*
X456030D02*
D03*
X459360Y137198D02*
D03*
X452700Y143858D02*
D03*
X462690Y133868D02*
D03*
X456030D02*
D03*
X449370Y140528D02*
D03*
X452700Y137198D02*
D03*
X459360Y237098D02*
D03*
X406079Y223778D02*
D03*
X399420D02*
D03*
X402749Y227108D02*
D03*
X406079Y230438D02*
D03*
X409409Y233768D02*
D03*
X412739Y237098D02*
D03*
X396090Y227108D02*
D03*
X399420Y230438D02*
D03*
X396089Y233768D02*
D03*
X392759Y230438D02*
D03*
Y237098D02*
D03*
X389429Y233768D02*
D03*
X402749D02*
D03*
X386099Y237098D02*
D03*
X382769Y240428D02*
D03*
X379439Y237098D02*
D03*
X382769Y233768D02*
D03*
X386099Y223778D02*
D03*
X382769Y227108D02*
D03*
X379439Y230438D02*
D03*
X372779Y237098D02*
D03*
X376109Y233768D02*
D03*
X369449Y240428D02*
D03*
X362789D02*
D03*
X369449Y233768D02*
D03*
X366119Y237098D02*
D03*
X372779Y230438D02*
D03*
X376109Y227108D02*
D03*
X379439Y223778D02*
D03*
X366119Y230438D02*
D03*
X369449Y227108D02*
D03*
X372779Y223778D02*
D03*
X356129Y233768D02*
D03*
X362789Y227108D02*
D03*
X359459Y230438D02*
D03*
X366119Y223778D02*
D03*
X369449Y220448D02*
D03*
X372779Y217118D02*
D03*
X356129Y227108D02*
D03*
X362789Y220448D02*
D03*
X359459Y223778D02*
D03*
X366119Y217118D02*
D03*
X369449Y213788D02*
D03*
X372779Y210458D02*
D03*
X362789Y213788D02*
D03*
X359459Y217118D02*
D03*
X366119Y210458D02*
D03*
X369449Y207128D02*
D03*
X372779Y203798D02*
D03*
X356129Y213788D02*
D03*
X362789Y207128D02*
D03*
X359459Y210458D02*
D03*
X366119Y203798D02*
D03*
X369449Y200468D02*
D03*
X372779Y197138D02*
D03*
X362789Y200468D02*
D03*
X359459Y203798D02*
D03*
X366119Y197138D02*
D03*
X369449Y193808D02*
D03*
X372779Y190478D02*
D03*
X356129Y200468D02*
D03*
X362789Y193808D02*
D03*
X359459Y197138D02*
D03*
X366119Y190478D02*
D03*
X369449Y187148D02*
D03*
X372779Y183818D02*
D03*
X362789Y187148D02*
D03*
X359459Y190478D02*
D03*
X366119Y183818D02*
D03*
X369449Y180488D02*
D03*
X372779Y177158D02*
D03*
X356129Y187148D02*
D03*
X362789Y180488D02*
D03*
X359459Y183818D02*
D03*
X366119Y177158D02*
D03*
X369449Y173828D02*
D03*
X362789Y173828D02*
D03*
X359459Y177158D02*
D03*
X366119Y170498D02*
D03*
X369449Y167168D02*
D03*
X356129Y173828D02*
D03*
X362789Y167168D02*
D03*
X359459Y170498D02*
D03*
X366119Y163838D02*
D03*
X369449Y160508D02*
D03*
X359459Y163838D02*
D03*
X366119Y157178D02*
D03*
X362789Y160508D02*
D03*
X369449Y153848D02*
D03*
X372779Y150518D02*
D03*
X376109Y147188D02*
D03*
X356129Y160508D02*
D03*
X362789Y153848D02*
D03*
X359459Y157178D02*
D03*
X366119Y150518D02*
D03*
X369449Y147188D02*
D03*
X372779Y143857D02*
D03*
X379439Y137198D02*
D03*
X376109Y140527D02*
D03*
X382769Y140527D02*
D03*
X379439Y143857D02*
D03*
X372779Y137198D02*
D03*
X369449Y140527D02*
D03*
X366119Y143857D02*
D03*
X362789Y147188D02*
D03*
X366119Y137198D02*
D03*
X362789Y140527D02*
D03*
X382769Y147188D02*
D03*
X389429D02*
D03*
X396089Y147188D02*
D03*
X402749Y147188D02*
D03*
X409409D02*
D03*
X416069Y147188D02*
D03*
X422729Y147188D02*
D03*
X429390D02*
D03*
X436050D02*
D03*
X442710D02*
D03*
X449370D02*
D03*
X456030D02*
D03*
X462690D02*
D03*
X386099Y143857D02*
D03*
X392759D02*
D03*
X399419D02*
D03*
X406079D02*
D03*
X412739D02*
D03*
X419399D02*
D03*
X426059D02*
D03*
X439380D02*
D03*
X432720D02*
D03*
X442710Y140527D02*
D03*
X436050Y140527D02*
D03*
X429390Y140527D02*
D03*
X422729D02*
D03*
X416069Y140527D02*
D03*
X409409Y140527D02*
D03*
X402749D02*
D03*
X396089Y140527D02*
D03*
X389429Y140527D02*
D03*
X439380Y137198D02*
D03*
X432720D02*
D03*
X426059D02*
D03*
X419399D02*
D03*
X412739D02*
D03*
X406079D02*
D03*
X399419D02*
D03*
X392759D02*
D03*
X386099D02*
D03*
X446040D02*
D03*
X452700Y130538D02*
D03*
X442710Y133868D02*
D03*
X396089D02*
D03*
X402749D02*
D03*
X409409D02*
D03*
X416069D02*
D03*
X422730D02*
D03*
X429390D02*
D03*
X436050D02*
D03*
X446040Y130538D02*
D03*
X439380D02*
D03*
X426059D02*
D03*
X412739D02*
D03*
X399419D02*
D03*
D97*
X364750Y16125D02*
D03*
X604750D02*
D03*
X544750D02*
D03*
X484750D02*
D03*
X424750D02*
D03*
X304750D02*
D03*
X244750D02*
D03*
Y393125D02*
D03*
X304750D02*
D03*
X364750D02*
D03*
X424750D02*
D03*
X484750D02*
D03*
X544750D02*
D03*
X604750D02*
D03*
X364750Y857375D02*
D03*
X604750D02*
D03*
X544750D02*
D03*
X484750D02*
D03*
X424750D02*
D03*
X304750D02*
D03*
X244750D02*
D03*
Y1234375D02*
D03*
X304750D02*
D03*
X364750D02*
D03*
X424750D02*
D03*
X484750D02*
D03*
X544750D02*
D03*
X604750D02*
D03*
D98*
X172750Y324375D02*
D03*
Y264375D02*
D03*
Y204375D02*
D03*
Y144375D02*
D03*
Y84375D02*
D03*
X676750D02*
D03*
Y144375D02*
D03*
Y204375D02*
D03*
Y264375D02*
D03*
Y324375D02*
D03*
X172750Y1165625D02*
D03*
Y1105625D02*
D03*
Y1045625D02*
D03*
Y985625D02*
D03*
Y925625D02*
D03*
X676750D02*
D03*
Y985625D02*
D03*
Y1045625D02*
D03*
Y1105625D02*
D03*
Y1165625D02*
D03*
D99*
X172750Y26625D02*
D03*
Y382125D02*
D03*
X676750D02*
D03*
Y26625D02*
D03*
X172750Y867875D02*
D03*
Y1223375D02*
D03*
X676750D02*
D03*
Y867875D02*
D03*
D100*
X186000Y15875D02*
D03*
Y392875D02*
D03*
X663500D02*
D03*
Y15875D02*
D03*
X186000Y857125D02*
D03*
Y1234125D02*
D03*
X663500D02*
D03*
Y857125D02*
D03*
D101*
X284720Y233938D02*
D03*
Y225938D02*
D03*
Y217938D02*
D03*
X284720Y209938D02*
D03*
X284720Y201938D02*
D03*
Y193938D02*
D03*
Y185938D02*
D03*
Y177938D02*
D03*
Y169938D02*
D03*
X284720Y161938D02*
D03*
Y153938D02*
D03*
X284720Y145938D02*
D03*
Y137938D02*
D03*
X276720Y233938D02*
D03*
Y225938D02*
D03*
Y217938D02*
D03*
X276720Y209938D02*
D03*
Y201938D02*
D03*
X276720Y193938D02*
D03*
Y185938D02*
D03*
Y177938D02*
D03*
X276720Y169938D02*
D03*
Y161938D02*
D03*
Y153938D02*
D03*
X276720Y145938D02*
D03*
Y137938D02*
D03*
X268720Y233938D02*
D03*
Y225938D02*
D03*
Y217938D02*
D03*
Y209938D02*
D03*
Y201938D02*
D03*
Y193938D02*
D03*
Y185938D02*
D03*
Y177938D02*
D03*
Y169938D02*
D03*
Y161938D02*
D03*
Y153938D02*
D03*
Y145938D02*
D03*
Y137938D02*
D03*
X260720Y233938D02*
D03*
Y225938D02*
D03*
Y217938D02*
D03*
Y209938D02*
D03*
Y201938D02*
D03*
Y193938D02*
D03*
X260720Y185938D02*
D03*
X260720Y177938D02*
D03*
Y169938D02*
D03*
Y161938D02*
D03*
Y153938D02*
D03*
Y145938D02*
D03*
Y137938D02*
D03*
X252720Y233938D02*
D03*
X252720Y225938D02*
D03*
Y217938D02*
D03*
Y209938D02*
D03*
Y201938D02*
D03*
Y193938D02*
D03*
X252720Y185938D02*
D03*
Y177938D02*
D03*
X252720Y169938D02*
D03*
Y161938D02*
D03*
Y153938D02*
D03*
Y145938D02*
D03*
X252720Y137938D02*
D03*
X244720Y233938D02*
D03*
Y225938D02*
D03*
Y217938D02*
D03*
Y209938D02*
D03*
Y201938D02*
D03*
Y193938D02*
D03*
Y185938D02*
D03*
Y177938D02*
D03*
Y169938D02*
D03*
Y161938D02*
D03*
Y153938D02*
D03*
Y145938D02*
D03*
Y137938D02*
D03*
X236720Y233938D02*
D03*
Y225938D02*
D03*
Y217938D02*
D03*
Y209938D02*
D03*
Y201938D02*
D03*
Y193938D02*
D03*
Y185938D02*
D03*
Y177938D02*
D03*
Y169938D02*
D03*
Y161938D02*
D03*
Y153938D02*
D03*
Y145938D02*
D03*
Y137938D02*
D03*
X228720Y233938D02*
D03*
Y225938D02*
D03*
Y217938D02*
D03*
X228720Y209938D02*
D03*
X228720Y201938D02*
D03*
Y193938D02*
D03*
Y185938D02*
D03*
Y177938D02*
D03*
Y169938D02*
D03*
X228720Y161938D02*
D03*
Y153938D02*
D03*
X228720Y145938D02*
D03*
Y137938D02*
D03*
X220720Y233938D02*
D03*
X220720Y225938D02*
D03*
Y217938D02*
D03*
Y209938D02*
D03*
Y201938D02*
D03*
Y193938D02*
D03*
X220720Y185938D02*
D03*
Y177938D02*
D03*
X220720Y169938D02*
D03*
Y161938D02*
D03*
Y153938D02*
D03*
Y145938D02*
D03*
X220720Y137938D02*
D03*
X212720Y233938D02*
D03*
Y225938D02*
D03*
Y217938D02*
D03*
Y209938D02*
D03*
Y201938D02*
D03*
Y193938D02*
D03*
X212720Y185938D02*
D03*
X212720Y177938D02*
D03*
Y169938D02*
D03*
Y161938D02*
D03*
Y153938D02*
D03*
Y145938D02*
D03*
Y137938D02*
D03*
X204720Y233938D02*
D03*
Y225938D02*
D03*
Y217938D02*
D03*
Y209938D02*
D03*
Y201938D02*
D03*
Y193938D02*
D03*
X204720Y185938D02*
D03*
X204720Y177938D02*
D03*
Y169938D02*
D03*
Y161938D02*
D03*
Y153938D02*
D03*
Y145938D02*
D03*
Y137938D02*
D03*
X196720Y233938D02*
D03*
Y225938D02*
D03*
Y217938D02*
D03*
X196720Y209938D02*
D03*
Y201938D02*
D03*
X196720Y193938D02*
D03*
Y185938D02*
D03*
Y177938D02*
D03*
X196720Y169938D02*
D03*
Y161938D02*
D03*
Y153938D02*
D03*
X196720Y145938D02*
D03*
Y137938D02*
D03*
X188720Y233938D02*
D03*
Y225938D02*
D03*
Y217938D02*
D03*
X188720Y209938D02*
D03*
X188720Y201938D02*
D03*
Y193938D02*
D03*
Y185938D02*
D03*
Y177938D02*
D03*
Y169938D02*
D03*
X188720Y161938D02*
D03*
Y153938D02*
D03*
X188720Y145938D02*
D03*
Y137938D02*
D03*
D102*
X229250Y784750D02*
D03*
Y724750D02*
D03*
X269250D02*
D03*
Y784750D02*
D03*
X72500Y939050D02*
D03*
X734643Y426536D02*
D03*
Y451965D02*
D03*
X683786Y426536D02*
D03*
X709214Y451964D02*
D03*
Y426536D02*
D03*
X413000Y962750D02*
D03*
X278000Y1338714D02*
D03*
Y1313286D02*
D03*
Y1287857D02*
D03*
X646100Y1260200D02*
D03*
X151179Y16523D02*
D03*
X125750D02*
D03*
X100321D02*
D03*
X13750Y938878D02*
D03*
X14000Y318071D02*
D03*
Y445128D02*
D03*
Y419700D02*
D03*
Y394271D02*
D03*
X44200Y1336750D02*
D03*
D103*
X482532Y1066750D02*
D03*
X482532Y1077750D02*
D03*
X482532Y1088750D02*
D03*
Y1099750D02*
D03*
X482532Y1110750D02*
D03*
X482532Y1121750D02*
D03*
X482532Y1132750D02*
D03*
X482532Y1162750D02*
D03*
X606532Y1066750D02*
D03*
X606532Y1077750D02*
D03*
X606532Y1088750D02*
D03*
X606532Y1099750D02*
D03*
Y1110750D02*
D03*
Y1121750D02*
D03*
X606532Y1132750D02*
D03*
Y1162750D02*
D03*
X606532Y1173750D02*
D03*
X606532Y1184750D02*
D03*
Y1195750D02*
D03*
X606532Y1206750D02*
D03*
X482532D02*
D03*
Y1195750D02*
D03*
Y1184750D02*
D03*
Y1173750D02*
D03*
D104*
X78000Y1384750D02*
D03*
X84500Y1363750D02*
D03*
X71500D02*
D03*
D105*
X242500Y478750D02*
D03*
D106*
X278500Y433750D02*
D03*
X274500D02*
D03*
X270500D02*
D03*
X266500D02*
D03*
X262500D02*
D03*
X258500D02*
D03*
X254500D02*
D03*
X250500D02*
D03*
X246500D02*
D03*
X242500D02*
D03*
X238500D02*
D03*
X234500D02*
D03*
X230500D02*
D03*
X226500D02*
D03*
X222500D02*
D03*
X218500D02*
D03*
X214500D02*
D03*
X210500D02*
D03*
X206500D02*
D03*
Y523750D02*
D03*
X210500D02*
D03*
X214500D02*
D03*
X218500D02*
D03*
X222500D02*
D03*
X226500D02*
D03*
X230500D02*
D03*
X234500D02*
D03*
X238500D02*
D03*
X242500Y523750D02*
D03*
X246500Y523750D02*
D03*
X250500D02*
D03*
X254500D02*
D03*
X258500D02*
D03*
X262500D02*
D03*
X266500D02*
D03*
X270500D02*
D03*
X274500D02*
D03*
X278500Y523750D02*
D03*
D107*
X197500Y442750D02*
D03*
X197500Y446750D02*
D03*
Y450750D02*
D03*
Y454750D02*
D03*
Y458750D02*
D03*
Y462750D02*
D03*
Y466750D02*
D03*
Y470750D02*
D03*
Y474750D02*
D03*
X197500Y478750D02*
D03*
X197500Y482750D02*
D03*
Y486750D02*
D03*
Y490750D02*
D03*
Y494750D02*
D03*
Y498750D02*
D03*
Y502750D02*
D03*
Y506750D02*
D03*
Y510750D02*
D03*
Y514750D02*
D03*
X287500D02*
D03*
Y510750D02*
D03*
Y506750D02*
D03*
Y502750D02*
D03*
Y498750D02*
D03*
Y494750D02*
D03*
Y490750D02*
D03*
Y486750D02*
D03*
Y482750D02*
D03*
Y478750D02*
D03*
Y474750D02*
D03*
Y470750D02*
D03*
Y466750D02*
D03*
Y462750D02*
D03*
Y458750D02*
D03*
Y454750D02*
D03*
Y450750D02*
D03*
Y446750D02*
D03*
Y442750D02*
D03*
D108*
X59150Y891286D02*
D03*
Y881486D02*
D03*
X72050Y886386D02*
D03*
D109*
X592000Y261773D02*
D03*
X607750Y69750D02*
D03*
D110*
X587000Y269023D02*
D03*
X592000D02*
D03*
X597000D02*
D03*
Y254523D02*
D03*
X592000D02*
D03*
X587000D02*
D03*
X602750Y77000D02*
D03*
X607750D02*
D03*
X612750D02*
D03*
Y62500D02*
D03*
X607750D02*
D03*
X602750D02*
D03*
D111*
X227796Y1070890D02*
D03*
D112*
X214046Y1061140D02*
D03*
Y1067640D02*
D03*
Y1074140D02*
D03*
Y1080640D02*
D03*
X241546D02*
D03*
Y1074140D02*
D03*
Y1067640D02*
D03*
Y1061140D02*
D03*
D113*
X579250Y559000D02*
D03*
X607250D02*
D03*
D114*
X132750Y1060750D02*
D03*
D115*
X142500Y1047000D02*
D03*
X136000Y1047000D02*
D03*
X129500Y1047000D02*
D03*
X123000Y1047000D02*
D03*
Y1074500D02*
D03*
X129500D02*
D03*
X136000D02*
D03*
X142500D02*
D03*
D217*
X619149Y660350D02*
D03*
X593749Y673050D02*
D03*
X619149Y685750D02*
D03*
X593749Y698450D02*
D03*
X619149Y711150D02*
D03*
X593749Y749250D02*
D03*
X619149Y761950D02*
D03*
X593749Y774650D02*
D03*
X568349Y761950D02*
D03*
X156500Y1045250D02*
D03*
Y1121250D02*
D03*
D220*
X725450Y394500D02*
D03*
Y349500D02*
D03*
D225*
X652149Y640050D02*
D03*
X652149Y794950D02*
D03*
D235*
X496750Y907250D02*
D03*
X-80000Y-80000D02*
D03*
X830000Y-80000D02*
D03*
X830000Y1510000D02*
D03*
X-80000Y1510000D02*
D03*
X347500Y105250D02*
D03*
D248*
X72500Y964450D02*
D03*
X13750Y964278D02*
D03*
X14000Y343471D02*
D03*
D249*
X683786Y451964D02*
D03*
X74893Y16523D02*
D03*
D250*
X35000Y35000D02*
D03*
X715000Y35000D02*
D03*
Y1395000D02*
D03*
X35000Y1395000D02*
D03*
X143000Y322750D02*
D03*
Y938750D02*
D03*
D251*
X750000Y721000D02*
D03*
Y709000D02*
D03*
Y697250D02*
D03*
Y733000D02*
D03*
X630250Y0D02*
D03*
X642250D02*
D03*
X654000D02*
D03*
X618250D02*
D03*
X131750Y0D02*
D03*
X96000D02*
D03*
X107750D02*
D03*
X119750D02*
D03*
X119750Y1430000D02*
D03*
X107750D02*
D03*
X96000D02*
D03*
X131750D02*
D03*
X618250Y1430000D02*
D03*
X654000D02*
D03*
X642250D02*
D03*
X630250D02*
D03*
D252*
X313750Y680750D02*
D03*
X184750D02*
D03*
X313750Y829750D02*
D03*
X184750Y829750D02*
D03*
D253*
X413000Y294750D02*
D03*
D254*
X700550Y336950D02*
D03*
Y407050D02*
D03*
D255*
X545449Y688250D02*
D03*
Y662850D02*
D03*
Y772150D02*
D03*
Y746750D02*
D03*
X411700Y1312150D02*
D03*
X386700D02*
D03*
X366700D02*
D03*
X341700D02*
D03*
X411700Y1285950D02*
D03*
X386700D02*
D03*
X366700D02*
D03*
X341700D02*
D03*
D256*
X682649Y660350D02*
D03*
Y774650D02*
D03*
D257*
X695000Y484250D02*
D03*
D258*
X662000Y532250D02*
D03*
D259*
X725000D02*
D03*
D260*
X278000Y1364143D02*
D03*
X14000Y470557D02*
D03*
D261*
Y140071D02*
D03*
Y165500D02*
D03*
Y190929D02*
D03*
Y216357D02*
D03*
Y114643D02*
D03*
Y89214D02*
D03*
D262*
Y241786D02*
D03*
D263*
X671500Y1260200D02*
D03*
X18800Y1336750D02*
D03*
D264*
X507000Y1354750D02*
D03*
X652000Y1354750D02*
D03*
X658000Y1404250D02*
D03*
X501000D02*
D03*
D265*
X69346Y1409500D02*
D03*
X153346Y1359500D02*
D03*
X101346Y1328500D02*
D03*
X162346Y1409500D02*
D03*
X133346Y1328500D02*
D03*
X117346Y1409500D02*
D03*
Y1359500D02*
D03*
D266*
X194500Y1415750D02*
D03*
X260500D02*
D03*
D267*
X311000Y1282450D02*
D03*
X442400D02*
D03*
X311000Y1339250D02*
D03*
X442400D02*
D03*
M02*
